<svg width="175" height="22" viewBox="0 0 175 22" fill="none" xmlns="http://www.w3.org/2000/svg">
<path d="M16.3638 17H12.7818L11.3579 13.2956H4.83907L3.49303 17H0L6.35197 0.691778H9.83388L16.3638 17ZM10.3011 10.5479L8.05399 4.49629L5.85138 10.5479H10.3011ZM18.1326 0.691778H24.6514C25.9419 0.691778 26.9023 0.747399 27.5326 0.858642C28.1704 0.962469 28.7378 1.18496 29.2347 1.5261C29.739 1.86725 30.158 2.32334 30.4917 2.89439C30.8254 3.45802 30.9923 4.09211 30.9923 4.79664C30.9923 5.56051 30.7846 6.26134 30.3693 6.89914C29.9614 7.53693 29.4052 8.01527 28.7007 8.33417C29.6945 8.6234 30.4583 9.11658 30.9923 9.8137C31.5263 10.5108 31.7932 11.3303 31.7932 12.2722C31.7932 13.0138 31.619 13.7369 31.2704 14.4414C30.9293 15.1385 30.4583 15.6985 29.8576 16.1212C29.2643 16.5365 28.5301 16.7923 27.655 16.8888C27.1062 16.9481 25.7824 16.9852 23.6836 17H18.1326V0.691778ZM21.4254 3.40611V7.17724H23.5835C24.8665 7.17724 25.6638 7.1587 25.9752 7.12162C26.5389 7.05488 26.9801 6.86206 27.299 6.54316C27.6253 6.21685 27.7885 5.79041 27.7885 5.26386C27.7885 4.75956 27.6476 4.35167 27.3658 4.04019C27.0914 3.7213 26.6798 3.52847 26.131 3.46173C25.8047 3.42465 24.8665 3.40611 23.3165 3.40611H21.4254ZM21.4254 9.89157V14.2523H24.4735C25.66 14.2523 26.4128 14.2189 26.7317 14.1522C27.2212 14.0632 27.6179 13.8481 27.922 13.507C28.2335 13.1584 28.3892 12.6949 28.3892 12.1164C28.3892 11.627 28.2706 11.2117 28.0332 10.8705C27.7959 10.5294 27.4511 10.2809 26.9987 10.1252C26.5537 9.96944 25.5822 9.89157 24.0841 9.89157H21.4254ZM45.02 11.004L48.2127 12.0163C47.7232 13.7962 46.9075 15.12 45.7654 15.9877C44.6307 16.848 43.1882 17.2781 41.438 17.2781C39.2725 17.2781 37.4926 16.5402 36.0984 15.0644C34.7041 13.5811 34.007 11.5565 34.007 8.9905C34.007 6.27618 34.7078 4.16998 36.1095 2.6719C37.5111 1.16641 39.3541 0.41367 41.6383 0.41367C43.6332 0.41367 45.2536 1.00326 46.4996 2.18243C47.2412 2.87956 47.7974 3.88074 48.1682 5.18599L44.9088 5.9647C44.716 5.11925 44.3118 4.45179 43.6962 3.96232C43.0881 3.47285 42.3465 3.22812 41.4714 3.22812C40.2625 3.22812 39.2799 3.66197 38.5234 4.52966C37.7744 5.39736 37.3999 6.80273 37.3999 8.74577C37.3999 10.8075 37.7707 12.2759 38.5123 13.151C39.2539 14.0261 40.218 14.4637 41.4046 14.4637C42.2798 14.4637 43.0325 14.1856 43.6629 13.6293C44.2933 13.0731 44.7456 12.198 45.02 11.004Z" fill="#4CB050"/>
<path d="M67.8249 11.004L71.0175 12.0163C70.5281 13.7962 69.7123 15.12 68.5702 15.9877C67.4355 16.848 65.9931 17.2781 64.2428 17.2781C62.0773 17.2781 60.2974 16.5402 58.9032 15.0644C57.5089 13.5811 56.8118 11.5565 56.8118 8.9905C56.8118 6.27618 57.5126 4.16998 58.9143 2.6719C60.3159 1.16641 62.1589 0.41367 64.4431 0.41367C66.438 0.41367 68.0585 1.00326 69.3044 2.18243C70.046 2.87956 70.6022 3.88074 70.973 5.18599L67.7136 5.9647C67.5208 5.11925 67.1166 4.45179 66.5011 3.96232C65.8929 3.47285 65.1513 3.22812 64.2762 3.22812C63.0674 3.22812 62.0847 3.66197 61.3283 4.52966C60.5792 5.39736 60.2047 6.80273 60.2047 8.74577C60.2047 10.8075 60.5755 12.2759 61.3171 13.151C62.0588 14.0261 63.0229 14.4637 64.2095 14.4637C65.0846 14.4637 65.8373 14.1856 66.4677 13.6293C67.0981 13.0731 67.5505 12.198 67.8249 11.004ZM73.1089 10.9261C73.1089 9.88786 73.3648 8.88297 73.8765 7.91145C74.3882 6.93993 75.1113 6.19831 76.0457 5.68659C76.9876 5.17487 78.037 4.91901 79.1939 4.91901C80.9812 4.91901 82.4459 5.50118 83.588 6.66553C84.7301 7.82245 85.3011 9.28715 85.3011 11.0596C85.3011 12.8469 84.7227 14.3302 83.5657 15.5093C82.4162 16.6811 80.9664 17.267 79.2161 17.267C78.1334 17.267 77.0988 17.0222 76.1125 16.5328C75.1335 16.0433 74.3882 15.3276 73.8765 14.3858C73.3648 13.4365 73.1089 12.2833 73.1089 10.9261ZM76.3127 11.093C76.3127 12.2648 76.5908 13.1621 77.147 13.7851C77.7032 14.408 78.3892 14.7195 79.205 14.7195C80.0208 14.7195 80.7031 14.408 81.2519 13.7851C81.8081 13.1621 82.0862 12.2573 82.0862 11.0707C82.0862 9.91382 81.8081 9.02388 81.2519 8.40092C80.7031 7.77796 80.0208 7.46648 79.205 7.46648C78.3892 7.46648 77.7032 7.77796 77.147 8.40092C76.5908 9.02388 76.3127 9.92124 76.3127 11.093ZM87.526 5.18599H90.4072V6.79902C91.438 5.54568 92.6654 4.91901 94.0893 4.91901C94.8458 4.91901 95.5021 5.07475 96.0583 5.38623C96.6145 5.69771 97.0706 6.16864 97.4266 6.79902C97.9457 6.16864 98.5057 5.69771 99.1064 5.38623C99.7071 5.07475 100.349 4.91901 101.031 4.91901C101.899 4.91901 102.633 5.097 103.233 5.45298C103.834 5.80154 104.283 6.31696 104.58 6.99926C104.795 7.50356 104.902 8.31934 104.902 9.4466V17H101.776V10.2476C101.776 9.07579 101.669 8.31934 101.454 7.97819C101.164 7.53322 100.719 7.31074 100.119 7.31074C99.6811 7.31074 99.2695 7.44423 98.8839 7.71121C98.4982 7.97819 98.2201 8.37125 98.0496 8.89039C97.879 9.4021 97.7937 10.2142 97.7937 11.3266V17H94.6678V10.5257C94.6678 9.37615 94.6122 8.63453 94.5009 8.3008C94.3897 7.96707 94.2154 7.71863 93.9781 7.55547C93.7482 7.39231 93.433 7.31074 93.0325 7.31074C92.5505 7.31074 92.1166 7.44052 91.731 7.70009C91.3453 7.95965 91.0672 8.33417 90.8966 8.82364C90.7335 9.31311 90.6519 10.1252 90.6519 11.2599V17H87.526V5.18599ZM107.939 5.18599H110.854V6.92139C111.232 6.32809 111.744 5.84604 112.389 5.47523C113.034 5.10442 113.75 4.91901 114.536 4.91901C115.908 4.91901 117.072 5.45669 118.029 6.53203C118.985 7.60738 119.464 9.10546 119.464 11.0263C119.464 12.999 118.982 14.5341 118.018 15.6317C117.054 16.7219 115.886 17.267 114.514 17.267C113.861 17.267 113.268 17.1372 112.734 16.8776C112.207 16.6181 111.651 16.1731 111.065 15.5427V21.4942H107.939V5.18599ZM111.032 10.8928C111.032 12.2203 111.295 13.2029 111.821 13.8407C112.348 14.4711 112.99 14.7863 113.746 14.7863C114.473 14.7863 115.077 14.497 115.559 13.9186C116.041 13.3327 116.282 12.376 116.282 11.0485C116.282 9.80999 116.034 8.89039 115.537 8.28967C115.04 7.68896 114.425 7.38861 113.69 7.38861C112.926 7.38861 112.292 7.68525 111.788 8.27855C111.284 8.86443 111.032 9.73583 111.032 10.8928ZM129.732 17V15.2312C129.301 15.8616 128.734 16.3585 128.03 16.7219C127.332 17.0853 126.595 17.267 125.816 17.267C125.022 17.267 124.31 17.0927 123.68 16.7441C123.05 16.3956 122.593 15.9061 122.312 15.2757C122.03 14.6454 121.889 13.774 121.889 12.6615V5.18599H125.015V10.6147C125.015 12.2759 125.07 13.2956 125.182 13.6738C125.3 14.0446 125.512 14.3413 125.816 14.5638C126.12 14.7788 126.506 14.8864 126.973 14.8864C127.507 14.8864 127.985 14.7418 128.408 14.4525C128.831 14.1559 129.12 13.7925 129.275 13.3624C129.431 12.9248 129.509 11.8606 129.509 10.1697V5.18599H132.635V17H129.732ZM141.301 5.18599V7.67784H139.165V12.439C139.165 13.4031 139.184 13.9668 139.221 14.1299C139.265 14.2857 139.358 14.4155 139.499 14.5193C139.647 14.6231 139.825 14.675 140.033 14.675C140.322 14.675 140.741 14.5749 141.29 14.3747L141.557 16.7998C140.83 17.1112 140.007 17.267 139.087 17.267C138.523 17.267 138.015 17.1743 137.563 16.9889C137.111 16.7961 136.777 16.5513 136.562 16.2547C136.354 15.9506 136.21 15.5427 136.128 15.031C136.061 14.6676 136.028 13.9334 136.028 12.8284V7.67784H134.593V5.18599H136.028V2.83877L139.165 1.01438V5.18599H141.301ZM150.312 13.24L153.426 13.7628C153.026 14.9049 152.392 15.7763 151.524 16.377C150.664 16.9703 149.585 17.267 148.287 17.267C146.233 17.267 144.712 16.5958 143.726 15.2535C142.947 14.1781 142.558 12.821 142.558 11.182C142.558 9.22412 143.07 7.69267 144.093 6.58766C145.116 5.47523 146.411 4.91901 147.975 4.91901C149.733 4.91901 151.12 5.50118 152.136 6.66553C153.152 7.82245 153.638 9.59863 153.593 11.9941H145.762C145.784 12.9211 146.036 13.6442 146.518 14.1633C147 14.675 147.601 14.9309 148.32 14.9309C148.81 14.9309 149.221 14.7974 149.555 14.5304C149.889 14.2634 150.141 13.8333 150.312 13.24ZM150.49 10.0807C150.467 9.17591 150.234 8.48991 149.789 8.02269C149.344 7.54805 148.802 7.31074 148.165 7.31074C147.482 7.31074 146.919 7.55918 146.474 8.05606C146.029 8.55295 145.81 9.22782 145.817 10.0807H150.49ZM159.144 17H156.018V5.18599H158.922V6.86576C159.419 6.07223 159.864 5.54939 160.257 5.29724C160.657 5.04509 161.11 4.91901 161.614 4.91901C162.326 4.91901 163.012 5.11554 163.672 5.5086L162.704 8.23405C162.177 7.89291 161.688 7.72233 161.236 7.72233C160.798 7.72233 160.427 7.8447 160.123 8.08944C159.819 8.32675 159.578 8.7606 159.4 9.39098C159.23 10.0214 159.144 11.3414 159.144 13.3512V17ZM163.928 13.6293L167.065 13.151C167.198 13.7591 167.469 14.2226 167.877 14.5415C168.285 14.853 168.856 15.0088 169.59 15.0088C170.398 15.0088 171.006 14.8604 171.414 14.5638C171.689 14.3561 171.826 14.078 171.826 13.7295C171.826 13.4921 171.752 13.2956 171.603 13.1399C171.448 12.9915 171.099 12.8543 170.558 12.7283C168.036 12.1721 166.438 11.664 165.763 11.2042C164.829 10.5664 164.362 9.68021 164.362 8.54553C164.362 7.5221 164.766 6.66182 165.574 5.9647C166.382 5.26757 167.636 4.91901 169.334 4.91901C170.951 4.91901 172.152 5.18229 172.938 5.70884C173.724 6.23539 174.266 7.01409 174.563 8.04494L171.615 8.59003C171.488 8.13023 171.247 7.77796 170.891 7.53322C170.543 7.28849 170.042 7.16612 169.39 7.16612C168.567 7.16612 167.977 7.28107 167.621 7.51097C167.384 7.67413 167.265 7.88549 167.265 8.14506C167.265 8.36754 167.369 8.55666 167.576 8.7124C167.858 8.92005 168.83 9.21299 170.491 9.59122C172.16 9.96944 173.324 10.433 173.984 10.9818C174.637 11.538 174.963 12.313 174.963 13.3067C174.963 14.3895 174.511 15.3202 173.606 16.0989C172.701 16.8776 171.362 17.267 169.59 17.267C167.981 17.267 166.705 16.9407 165.763 16.288C164.829 15.6354 164.217 14.7492 163.928 13.6293Z" fill="#DC143B"/>
</svg>
