<svg width="851" height="420" viewBox="0 0 851 420" fill="none" xmlns="http://www.w3.org/2000/svg">
<path d="M79.0268 395H61.7279L54.8514 377.11H23.3696L16.8691 395H0L30.6759 316.242H47.4913L79.0268 395ZM49.7477 363.841L38.8956 334.615L28.2584 363.841H49.7477ZM87.5688 316.242H119.051C125.282 316.242 129.921 316.51 132.965 317.048C136.045 317.549 138.785 318.624 141.185 320.271C143.62 321.919 145.644 324.121 147.255 326.879C148.867 329.601 149.673 332.663 149.673 336.066C149.673 339.755 148.67 343.139 146.664 346.219C144.694 349.299 142.008 351.61 138.606 353.15C143.405 354.546 147.094 356.928 149.673 360.295C152.251 363.661 153.541 367.619 153.541 372.168C153.541 375.749 152.699 379.241 151.016 382.644C149.368 386.01 147.094 388.714 144.193 390.756C141.328 392.762 137.782 393.997 133.556 394.463C130.905 394.749 124.512 394.928 114.377 395H87.5688V316.242ZM103.471 329.35V347.562H113.893C120.089 347.562 123.939 347.473 125.444 347.294C128.166 346.971 130.297 346.04 131.837 344.5C133.413 342.924 134.2 340.865 134.2 338.322C134.2 335.887 133.52 333.917 132.159 332.413C130.834 330.872 128.846 329.941 126.196 329.619C124.62 329.44 120.089 329.35 112.604 329.35H103.471ZM103.471 360.671V381.73H118.191C123.921 381.73 127.557 381.569 129.097 381.247C131.461 380.817 133.377 379.778 134.845 378.131C136.349 376.448 137.102 374.209 137.102 371.416C137.102 369.052 136.528 367.046 135.382 365.399C134.236 363.751 132.571 362.551 130.386 361.799C128.237 361.047 123.545 360.671 116.311 360.671H103.471ZM217.418 366.043L232.836 370.932C230.472 379.528 226.533 385.921 221.017 390.111C215.537 394.266 208.571 396.343 200.119 396.343C189.661 396.343 181.065 392.779 174.332 385.652C167.598 378.489 164.232 368.711 164.232 356.319C164.232 343.211 167.616 333.039 174.385 325.805C181.155 318.534 190.055 314.899 201.086 314.899C210.72 314.899 218.546 317.746 224.563 323.441C228.144 326.807 230.831 331.642 232.621 337.946L216.88 341.707C215.949 337.624 213.997 334.4 211.025 332.036C208.088 329.673 204.506 328.491 200.28 328.491C194.442 328.491 189.697 330.586 186.043 334.776C182.426 338.967 180.617 345.754 180.617 355.137C180.617 365.094 182.408 372.186 185.99 376.412C189.571 380.638 194.227 382.751 199.958 382.751C204.184 382.751 207.819 381.408 210.863 378.722C213.908 376.036 216.093 371.809 217.418 366.043Z" fill="#4CB050"/>
<path d="M327.55 366.043L342.969 370.932C340.605 379.528 336.665 385.921 331.15 390.111C325.67 394.266 318.704 396.343 310.251 396.343C299.793 396.343 291.198 392.779 284.464 385.652C277.731 378.489 274.364 368.711 274.364 356.319C274.364 343.211 277.749 333.039 284.518 325.805C291.287 318.534 300.187 314.899 311.218 314.899C320.853 314.899 328.678 317.746 334.695 323.441C338.277 326.807 340.963 331.642 342.754 337.946L327.013 341.707C326.082 337.624 324.13 334.4 321.157 332.036C318.22 329.673 314.639 328.491 310.413 328.491C304.575 328.491 299.829 330.586 296.176 334.776C292.559 338.967 290.75 345.754 290.75 355.137C290.75 365.094 292.541 372.186 296.122 376.412C299.704 380.638 304.36 382.751 310.09 382.751C314.316 382.751 317.952 381.408 320.996 378.722C324.04 376.036 326.225 371.809 327.55 366.043ZM353.069 365.667C353.069 360.653 354.304 355.8 356.776 351.108C359.247 346.416 362.739 342.835 367.252 340.364C371.8 337.892 376.868 336.657 382.455 336.657C391.087 336.657 398.16 339.468 403.676 345.091C409.192 350.678 411.949 357.752 411.949 366.312C411.949 374.943 409.156 382.106 403.569 387.801C398.017 393.46 391.015 396.289 382.563 396.289C377.334 396.289 372.337 395.107 367.574 392.744C362.846 390.38 359.247 386.924 356.776 382.375C354.304 377.791 353.069 372.221 353.069 365.667ZM368.541 366.473C368.541 372.132 369.884 376.466 372.57 379.474C375.256 382.483 378.569 383.987 382.509 383.987C386.449 383.987 389.744 382.483 392.394 379.474C395.08 376.466 396.423 372.096 396.423 366.366C396.423 360.778 395.08 356.48 392.394 353.472C389.744 350.463 386.449 348.959 382.509 348.959C378.569 348.959 375.256 350.463 372.57 353.472C369.884 356.48 368.541 360.814 368.541 366.473ZM422.694 337.946H436.608V345.736C441.587 339.683 447.514 336.657 454.391 336.657C458.044 336.657 461.213 337.409 463.9 338.913C466.586 340.417 468.788 342.692 470.508 345.736C473.015 342.692 475.719 340.417 478.62 338.913C481.521 337.409 484.619 336.657 487.914 336.657C492.104 336.657 495.65 337.516 498.551 339.235C501.452 340.919 503.619 343.408 505.052 346.703C506.09 349.138 506.61 353.078 506.61 358.522V395H491.513V362.39C491.513 356.731 490.994 353.078 489.955 351.431C488.559 349.282 486.41 348.207 483.509 348.207C481.395 348.207 479.408 348.852 477.545 350.141C475.683 351.431 474.34 353.329 473.516 355.836C472.692 358.307 472.28 362.229 472.28 367.601V395H457.184V363.733C457.184 358.182 456.916 354.6 456.378 352.988C455.841 351.377 454.999 350.177 453.853 349.389C452.743 348.601 451.221 348.207 449.287 348.207C446.959 348.207 444.864 348.834 443.001 350.087C441.139 351.341 439.796 353.15 438.972 355.513C438.184 357.877 437.79 361.799 437.79 367.279V395H422.694V337.946ZM521.276 337.946H535.351V346.327C537.178 343.462 539.649 341.134 542.765 339.343C545.881 337.552 549.337 336.657 553.134 336.657C559.76 336.657 565.383 339.253 570.003 344.446C574.623 349.64 576.933 356.874 576.933 366.151C576.933 375.678 574.605 383.091 569.949 388.392C565.293 393.657 559.652 396.289 553.026 396.289C549.875 396.289 547.009 395.663 544.431 394.409C541.888 393.156 539.202 391.007 536.372 387.962V416.704H521.276V337.946ZM536.211 365.506C536.211 371.917 537.482 376.662 540.025 379.743C542.568 382.787 545.666 384.309 549.319 384.309C552.829 384.309 555.748 382.912 558.076 380.119C560.404 377.289 561.568 372.669 561.568 366.258C561.568 360.277 560.369 355.836 557.969 352.935C555.569 350.034 552.597 348.583 549.051 348.583C545.362 348.583 542.3 350.016 539.864 352.881C537.429 355.71 536.211 359.919 536.211 365.506ZM626.52 395V386.458C624.442 389.502 621.703 391.902 618.3 393.657C614.933 395.412 611.37 396.289 607.609 396.289C603.777 396.289 600.339 395.448 597.294 393.764C594.25 392.081 592.047 389.717 590.686 386.673C589.325 383.629 588.645 379.42 588.645 374.048V337.946H603.741V364.163C603.741 372.186 604.01 377.11 604.547 378.937C605.12 380.728 606.141 382.16 607.609 383.235C609.078 384.273 610.94 384.793 613.196 384.793C615.775 384.793 618.085 384.094 620.127 382.697C622.168 381.265 623.565 379.51 624.317 377.433C625.069 375.319 625.445 370.18 625.445 362.014V337.946H640.541V395H626.52ZM682.392 337.946V349.98H672.077V372.973C672.077 377.63 672.166 380.351 672.346 381.139C672.56 381.892 673.008 382.518 673.689 383.02C674.405 383.521 675.265 383.772 676.267 383.772C677.664 383.772 679.688 383.288 682.338 382.321L683.627 394.033C680.118 395.537 676.142 396.289 671.701 396.289C668.979 396.289 666.526 395.842 664.341 394.946C662.156 394.015 660.544 392.833 659.506 391.401C658.503 389.932 657.804 387.962 657.411 385.491C657.088 383.736 656.927 380.19 656.927 374.854V349.98H649.997V337.946H656.927V326.61L672.077 317.8V337.946H682.392ZM725.908 376.842L740.95 379.367C739.016 384.882 735.954 389.09 731.763 391.992C727.609 394.857 722.398 396.289 716.13 396.289C706.209 396.289 698.867 393.048 694.103 386.565C690.343 381.372 688.462 374.818 688.462 366.903C688.462 357.448 690.934 350.052 695.876 344.715C700.819 339.343 707.069 336.657 714.626 336.657C723.114 336.657 729.811 339.468 734.718 345.091C739.625 350.678 741.971 359.256 741.756 370.825H703.935C704.042 375.302 705.26 378.794 707.588 381.301C709.916 383.772 712.817 385.007 716.291 385.007C718.655 385.007 720.643 384.363 722.254 383.073C723.866 381.784 725.084 379.707 725.908 376.842ZM726.767 361.584C726.66 357.215 725.531 353.902 723.383 351.645C721.234 349.353 718.619 348.207 715.539 348.207C712.244 348.207 709.522 349.407 707.373 351.807C705.224 354.206 704.168 357.465 704.203 361.584H726.767ZM768.564 395H753.468V337.946H767.489V346.058C769.889 342.226 772.038 339.701 773.936 338.483C775.87 337.265 778.055 336.657 780.49 336.657C783.929 336.657 787.242 337.606 790.429 339.504L785.755 352.666C783.212 351.019 780.848 350.195 778.664 350.195C776.551 350.195 774.76 350.786 773.291 351.968C771.823 353.114 770.659 355.209 769.799 358.253C768.976 361.298 768.564 367.673 768.564 377.379V395ZM791.665 378.722L806.815 376.412C807.459 379.349 808.767 381.587 810.736 383.127C812.706 384.631 815.464 385.384 819.01 385.384C822.914 385.384 825.851 384.667 827.82 383.235C829.146 382.232 829.808 380.889 829.808 379.205C829.808 378.059 829.45 377.11 828.734 376.358C827.982 375.642 826.298 374.979 823.684 374.37C811.506 371.684 803.788 369.231 800.529 367.01C796.016 363.93 793.76 359.65 793.76 354.17C793.76 349.228 795.712 345.073 799.616 341.707C803.52 338.34 809.572 336.657 817.774 336.657C825.582 336.657 831.384 337.928 835.18 340.471C838.977 343.014 841.591 346.774 843.024 351.753L828.787 354.385C828.179 352.165 827.015 350.463 825.295 349.282C823.612 348.1 821.195 347.509 818.043 347.509C814.067 347.509 811.22 348.064 809.501 349.174C808.355 349.962 807.782 350.983 807.782 352.236C807.782 353.311 808.283 354.224 809.286 354.976C810.647 355.979 815.339 357.394 823.361 359.22C831.42 361.047 837.043 363.285 840.23 365.936C843.382 368.622 844.958 372.365 844.958 377.164C844.958 382.393 842.773 386.888 838.404 390.648C834.034 394.409 827.57 396.289 819.01 396.289C811.238 396.289 805.078 394.713 800.529 391.562C796.016 388.41 793.062 384.13 791.665 378.722Z" fill="#DC143B"/>
<path d="M90.3291 184.698V73.7415H112.992V107.583C120.008 103.462 125.517 101.278 137.833 101.278C148.264 101.278 156.894 106.06 163.722 113.174C170.551 120.238 173.965 130.405 173.965 143.676C173.965 157.4 170.47 167.971 163.48 175.388C156.544 182.805 148.103 185.29 138.156 185.29C133.263 185.29 128.424 185.379 123.638 183.108C118.907 180.787 114.82 177.381 111.379 172.891V184.698H90.3291ZM112.831 142.767C112.831 151.093 114.229 157.249 117.025 161.235C120.95 166.886 126.165 169.712 132.671 169.712C137.672 169.712 141.919 167.719 145.414 163.732C148.963 159.696 150.737 153.363 150.737 144.735C150.737 135.552 148.963 128.942 145.414 124.905C141.866 120.818 137.322 118.775 131.784 118.775C126.354 118.775 121.837 120.768 118.235 124.754C114.632 128.69 112.831 134.694 112.831 142.767Z" fill="url(#paint0_linear_2216_16)"/>
<path d="M56.2106 128.72L34.6263 125.219C37.0528 117.407 41.2286 111.623 47.1537 107.869C53.0788 104.115 61.8818 102.238 73.5627 102.238C84.1715 102.238 92.0716 103.379 97.2631 105.662C102.455 107.894 106.094 110.761 108.182 114.261C110.327 117.711 111.399 124.078 111.399 133.362L111.145 158.322C111.145 165.424 112.736 169.451 113.469 172.85C114.259 176.198 127.406 181.024 129.494 184.88L93.0309 184.268C92.4102 182.848 91.6484 181.354 90.7455 178.564C90.3505 177.296 91.9046 179.519 91.7354 179.113C87.6724 182.664 83.3273 182.879 78.7001 184.655C74.0729 186.431 67.299 186.706 62.0511 186.706C52.7966 186.706 45.489 184.449 40.1282 179.934C34.8238 175.419 32.1716 169.711 32.1716 162.812C32.1716 158.246 33.3849 154.187 35.8113 150.636C38.2378 147.034 41.6236 144.295 45.9687 142.417C50.3702 140.49 56.6903 138.816 64.929 137.395C76.0456 135.518 83.7483 133.768 88.0369 132.144V130.014C88.0369 125.904 86.9083 122.987 84.6511 121.262C82.3939 119.487 78.1335 118.599 71.8698 118.599C67.6376 118.599 64.3365 119.36 61.9664 120.882C59.5964 122.353 57.6778 124.966 56.2106 128.72ZM88.0369 146.07C84.9897 146.983 80.165 148.074 73.5627 149.342C66.9605 150.611 62.6436 151.854 60.6121 153.071C57.5085 155.05 55.9567 157.561 55.9567 160.605C55.9567 163.598 57.1981 166.185 59.681 168.367C62.1639 170.548 65.324 171.639 69.1612 171.639C73.4499 171.639 77.541 170.371 81.4346 167.834C84.3125 165.906 86.2029 163.547 87.1058 160.757C87.7265 158.931 88.0369 155.456 88.0369 150.332V146.07Z" fill="url(#paint1_linear_2216_16)"/>
<path d="M239.143 127.959L216.638 131.764C215.88 127.553 214.147 124.382 211.439 122.252C208.785 120.121 205.318 119.055 201.039 119.055C195.352 119.055 190.802 120.907 187.39 124.611C184.032 128.263 182.353 134.402 182.353 143.026C182.353 152.615 184.059 159.387 187.471 163.344C190.938 167.301 195.569 169.28 201.364 169.28C205.697 169.28 209.245 168.139 212.007 165.856C214.77 163.522 216.72 159.54 217.857 153.908L240.281 157.485C237.952 167.124 233.483 174.404 226.875 179.325C220.267 184.246 211.411 186.706 200.308 186.706C187.688 186.706 177.613 182.978 170.084 175.52C162.61 168.062 158.873 157.739 158.873 144.548C158.873 131.206 162.637 120.831 170.166 113.424C177.694 105.967 187.877 102.238 200.714 102.238C211.222 102.238 219.563 104.369 225.738 108.63C231.967 112.841 236.435 119.284 239.143 127.959Z" fill="url(#paint2_linear_2216_16)"/>
<path fill-rule="evenodd" clip-rule="evenodd" d="M136.5 268.293C209.287 268.293 268.293 209.287 268.293 136.5C268.293 63.7127 209.287 4.7069 136.5 4.7069C63.7127 4.7069 4.7069 63.7127 4.7069 136.5C4.7069 209.287 63.7127 268.293 136.5 268.293ZM136.5 273C211.887 273 273 211.887 273 136.5C273 61.1131 211.887 0 136.5 0C61.1131 0 0 61.1131 0 136.5C0 211.887 61.1131 273 136.5 273Z" fill="black"/>
<defs>
<linearGradient id="paint0_linear_2216_16" x1="132.147" y1="73.7415" x2="132.147" y2="185.29" gradientUnits="userSpaceOnUse">
<stop stop-color="#4CB050"/>
<stop offset="1" stop-color="#337836"/>
</linearGradient>
<linearGradient id="paint1_linear_2216_16" x1="80.8329" y1="102.238" x2="80.8329" y2="186.706" gradientUnits="userSpaceOnUse">
<stop stop-color="#4CB050"/>
<stop offset="1" stop-color="#337836"/>
</linearGradient>
<linearGradient id="paint2_linear_2216_16" x1="199.577" y1="102.238" x2="199.577" y2="186.706" gradientUnits="userSpaceOnUse">
<stop stop-color="#4CB050"/>
<stop offset="1" stop-color="#337836"/>
</linearGradient>
</defs>
</svg>
