<svg width="783" height="168" viewBox="0 0 783 168" fill="none" xmlns="http://www.w3.org/2000/svg">
<path d="M270.309 108.39H258.831L254.269 96.5204H233.382L229.069 108.39H217.877L238.23 56.1367H249.386L270.309 108.39ZM250.883 87.7165L243.683 68.3266L236.626 87.7165H250.883ZM275.976 56.1367H296.863C300.997 56.1367 304.074 56.3149 306.094 56.6713C308.138 57.004 309.956 57.7168 311.548 58.8099C313.163 59.9029 314.506 61.3643 315.575 63.194C316.645 64.9999 317.179 67.0316 317.179 69.289C317.179 71.7365 316.514 73.982 315.183 76.0255C313.876 78.0691 312.094 79.6017 309.837 80.6235C313.021 81.5502 315.468 83.1304 317.179 85.364C318.89 87.5977 319.746 90.2234 319.746 93.2412C319.746 95.6174 319.187 97.9342 318.07 100.192C316.977 102.425 315.468 104.219 313.544 105.574C311.643 106.904 309.29 107.724 306.486 108.033C304.728 108.223 300.486 108.342 293.762 108.39H275.976V56.1367ZM286.526 64.8336V76.9166H293.441C297.552 76.9166 300.106 76.8572 301.104 76.7384C302.91 76.5245 304.324 75.9067 305.346 74.885C306.391 73.8394 306.914 72.4731 306.914 70.786C306.914 69.1702 306.463 67.8633 305.56 66.8652C304.68 65.8435 303.362 65.2257 301.603 65.0118C300.558 64.893 297.552 64.8336 292.586 64.8336H286.526ZM286.526 85.6135V99.5857H296.292C300.094 99.5857 302.506 99.4787 303.528 99.2649C305.096 98.9797 306.368 98.2906 307.342 97.1976C308.34 96.0808 308.839 94.5956 308.839 92.7422C308.839 91.1739 308.459 89.8432 307.698 88.7501C306.938 87.6571 305.833 86.8611 304.383 86.3621C302.958 85.863 299.845 85.6135 295.045 85.6135H286.526ZM362.125 89.1779L372.355 92.4214C370.787 98.1243 368.173 102.366 364.513 105.146C360.878 107.902 356.256 109.281 350.648 109.281C343.71 109.281 338.007 106.916 333.539 102.188C329.072 97.4352 326.839 90.9481 326.839 82.7265C326.839 74.0295 329.084 67.2811 333.575 62.4811C338.066 57.6574 343.971 55.2456 351.29 55.2456C357.682 55.2456 362.874 57.1347 366.866 60.9128C369.242 63.1465 371.024 66.3544 372.212 70.5365L361.769 73.0315C361.151 70.3226 359.856 68.184 357.884 66.6157C355.935 65.0474 353.559 64.2633 350.755 64.2633C346.882 64.2633 343.733 65.6534 341.31 68.4335C338.91 71.2137 337.71 75.7166 337.71 81.9423C337.71 88.5482 338.898 93.2531 341.274 96.057C343.65 98.8609 346.739 100.263 350.541 100.263C353.345 100.263 355.757 99.3718 357.777 97.5896C359.797 95.8075 361.246 93.0036 362.125 89.1779Z" fill="#4CB050"/>
<path d="M435.194 89.1779L445.423 92.4214C443.855 98.1243 441.241 102.366 437.582 105.146C433.946 107.902 429.325 109.281 423.717 109.281C416.778 109.281 411.075 106.916 406.608 102.188C402.141 97.4352 399.907 90.9481 399.907 82.7265C399.907 74.0295 402.153 67.2811 406.644 62.4811C411.135 57.6574 417.04 55.2456 424.358 55.2456C430.75 55.2456 435.942 57.1347 439.934 60.9128C442.311 63.1465 444.093 66.3544 445.281 70.5365L434.837 73.0315C434.22 70.3226 432.925 68.184 430.952 66.6157C429.004 65.0474 426.628 64.2633 423.824 64.2633C419.95 64.2633 416.802 65.6534 414.378 68.4335C411.978 71.2137 410.778 75.7166 410.778 81.9423C410.778 88.5482 411.966 93.2531 414.343 96.057C416.719 98.8609 419.808 100.263 423.61 100.263C426.414 100.263 428.826 99.3718 430.845 97.5896C432.865 95.8075 434.315 93.0036 435.194 89.1779ZM452.124 88.9284C452.124 85.6017 452.944 82.3819 454.584 79.2691C456.223 76.1562 458.54 73.78 461.534 72.1404C464.552 70.5008 467.914 69.6811 471.621 69.6811C477.348 69.6811 482.041 71.5464 485.7 75.277C489.36 78.9839 491.189 83.6769 491.189 89.3561C491.189 95.0827 489.336 99.8352 485.629 103.613C481.946 107.368 477.3 109.245 471.692 109.245C468.223 109.245 464.908 108.461 461.748 106.893C458.611 105.324 456.223 103.031 454.584 100.013C452.944 96.9718 452.124 93.2768 452.124 88.9284ZM462.39 89.463C462.39 93.2174 463.281 96.0926 465.063 98.0887C466.845 100.085 469.043 101.083 471.657 101.083C474.271 101.083 476.457 100.085 478.215 98.0887C479.997 96.0926 480.888 93.1937 480.888 89.3917C480.888 85.6848 479.997 82.8334 478.215 80.8374C476.457 78.8413 474.271 77.8433 471.657 77.8433C469.043 77.8433 466.845 78.8413 465.063 80.8374C463.281 82.8334 462.39 85.7086 462.39 89.463ZM498.318 70.5365H507.549V75.7047C510.852 71.689 514.785 69.6811 519.347 69.6811C521.771 69.6811 523.874 70.1801 525.656 71.1781C527.438 72.1761 528.9 73.685 530.04 75.7047C531.704 73.685 533.498 72.1761 535.422 71.1781C537.347 70.1801 539.403 69.6811 541.589 69.6811C544.369 69.6811 546.721 70.2513 548.646 71.3919C550.571 72.5087 552.008 74.1602 552.959 76.3463C553.648 77.9621 553.992 80.576 553.992 84.1878V108.39H543.977V86.7541C543.977 82.9997 543.632 80.576 542.943 79.4829C542.016 78.0572 540.591 77.3443 538.666 77.3443C537.264 77.3443 535.945 77.7721 534.709 78.6275C533.474 79.4829 532.583 80.7423 532.036 82.4057C531.49 84.0452 531.216 86.6472 531.216 90.2115V108.39H521.201V87.6452C521.201 83.9621 521.023 81.5859 520.666 80.5166C520.31 79.4473 519.751 78.6512 518.991 78.1285C518.254 77.6057 517.244 77.3443 515.961 77.3443C514.417 77.3443 513.027 77.7602 511.791 78.5918C510.555 79.4235 509.664 80.6235 509.118 82.1918C508.595 83.7601 508.334 86.3621 508.334 89.9977V108.39H498.318V70.5365ZM563.723 70.5365H573.062V76.0968C574.273 74.1959 575.913 72.6513 577.98 71.4632C580.048 70.2751 582.341 69.6811 584.859 69.6811C589.255 69.6811 592.986 71.4038 596.051 74.8493C599.117 78.2948 600.649 83.0948 600.649 89.2491C600.649 95.5699 599.105 100.489 596.016 104.005C592.927 107.498 589.184 109.245 584.788 109.245C582.697 109.245 580.796 108.829 579.085 107.997C577.398 107.166 575.616 105.74 573.739 103.72V122.789H563.723V70.5365ZM573.632 88.8214C573.632 93.0748 574.475 96.2233 576.162 98.2669C577.85 100.287 579.905 101.297 582.329 101.297C584.657 101.297 586.594 100.37 588.139 98.5164C589.683 96.6392 590.455 93.5739 590.455 89.3204C590.455 85.3522 589.659 82.4057 588.067 80.4809C586.475 78.5562 584.503 77.5938 582.151 77.5938C579.703 77.5938 577.671 78.5443 576.056 80.4453C574.44 82.3225 573.632 85.1145 573.632 88.8214ZM633.548 108.39V102.722C632.17 104.742 630.352 106.334 628.095 107.498C625.861 108.663 623.497 109.245 621.002 109.245C618.459 109.245 616.178 108.687 614.158 107.57C612.138 106.453 610.677 104.885 609.774 102.865C608.871 100.845 608.42 98.053 608.42 94.4887V70.5365H618.435V87.9304C618.435 93.2531 618.613 96.5204 618.97 97.7322C619.35 98.9203 620.027 99.8708 621.002 100.584C621.976 101.273 623.211 101.617 624.708 101.617C626.419 101.617 627.952 101.154 629.306 100.227C630.661 99.2768 631.588 98.1124 632.087 96.7342C632.586 95.3322 632.835 91.9224 632.835 86.5046V70.5365H642.851V108.39H633.548ZM670.617 70.5365V78.5206H663.773V93.7758C663.773 96.8649 663.833 98.6708 663.952 99.1936C664.094 99.6926 664.391 100.108 664.843 100.441C665.318 100.774 665.888 100.94 666.554 100.94C667.48 100.94 668.823 100.619 670.581 99.9777L671.437 107.748C669.108 108.746 666.47 109.245 663.524 109.245C661.718 109.245 660.09 108.948 658.641 108.354C657.191 107.736 656.122 106.952 655.433 106.001C654.768 105.027 654.304 103.72 654.043 102.081C653.829 100.916 653.722 98.5639 653.722 95.0233V78.5206H649.124V70.5365H653.722V63.0158L663.773 57.1703V70.5365H670.617ZM699.488 96.3421L709.468 98.0174C708.185 101.677 706.153 104.469 703.373 106.394C700.617 108.294 697.159 109.245 693.001 109.245C686.419 109.245 681.547 107.094 678.387 102.794C675.892 99.348 674.645 94.9996 674.645 89.7482C674.645 83.475 676.284 78.5681 679.563 75.0275C682.842 71.4632 686.989 69.6811 692.003 69.6811C697.634 69.6811 702.078 71.5464 705.333 75.277C708.589 78.9839 710.145 84.6749 710.003 92.3501H684.91C684.981 95.3204 685.789 97.6372 687.333 99.3005C688.878 100.94 690.803 101.76 693.108 101.76C694.676 101.76 695.995 101.332 697.064 100.477C698.133 99.6213 698.941 98.2431 699.488 96.3421ZM700.058 86.2195C699.987 83.3205 699.238 81.1225 697.813 79.6255C696.387 78.1047 694.652 77.3443 692.609 77.3443C690.423 77.3443 688.617 78.1404 687.191 79.7324C685.765 81.3245 685.064 83.4868 685.088 86.2195H700.058ZM727.788 108.39H717.773V70.5365H727.076V75.9186C728.668 73.3761 730.093 71.7008 731.353 70.8929C732.636 70.085 734.085 69.6811 735.701 69.6811C737.982 69.6811 740.18 70.3108 742.295 71.5701L739.194 80.3027C737.507 79.2097 735.939 78.6631 734.489 78.6631C733.087 78.6631 731.899 79.0552 730.925 79.8394C729.951 80.5997 729.179 81.9898 728.608 84.0096C728.062 86.0294 727.788 90.259 727.788 96.6986V108.39ZM743.115 97.5896L753.166 96.057C753.594 98.0055 754.461 99.4906 755.768 100.512C757.075 101.51 758.905 102.009 761.257 102.009C763.847 102.009 765.796 101.534 767.103 100.584C767.982 99.9183 768.422 99.0273 768.422 97.9104C768.422 97.15 768.184 96.5204 767.709 96.0213C767.21 95.5461 766.093 95.1065 764.358 94.7026C756.279 92.9204 751.159 91.2927 748.996 89.8194C746.002 87.7759 744.505 84.9363 744.505 81.3007C744.505 78.0216 745.8 75.2651 748.39 73.0315C750.98 70.7979 754.996 69.6811 760.438 69.6811C765.618 69.6811 769.467 70.5246 771.986 72.2117C774.505 73.8988 776.239 76.3938 777.19 79.6968L767.744 81.4433C767.341 79.97 766.568 78.8413 765.428 78.0572C764.311 77.273 762.707 76.881 760.616 76.881C757.978 76.881 756.089 77.2493 754.949 77.9859C754.188 78.5087 753.808 79.1859 753.808 80.0176C753.808 80.7304 754.141 81.3364 754.806 81.8354C755.709 82.5007 758.822 83.4393 764.145 84.6512C769.491 85.863 773.222 87.3482 775.336 89.1066C777.428 90.8887 778.473 93.3719 778.473 96.556C778.473 100.025 777.024 103.007 774.125 105.502C771.226 107.997 766.937 109.245 761.257 109.245C756.101 109.245 752.014 108.199 748.996 106.108C746.002 104.017 744.042 101.178 743.115 97.5896Z" fill="#DC143B"/>
<path d="M55.1279 113.415V45.6985H68.9593V66.352C73.2409 63.8373 76.603 62.5041 84.1196 62.5041C90.4856 62.5041 95.7523 65.4222 99.9198 69.7642C104.087 74.0754 106.171 80.2805 106.171 88.3794C106.171 96.7554 104.038 103.207 99.7721 107.734C95.5391 112.26 90.3872 113.777 84.3165 113.777C81.3304 113.777 78.377 113.831 75.4565 112.445C72.5689 111.029 70.075 108.95 67.9748 106.209V113.415H55.1279ZM68.8608 87.8251C68.8608 92.9061 69.714 96.663 71.4204 99.0958C73.8158 102.545 76.9988 104.269 80.9694 104.269C84.0211 104.269 86.6135 103.053 88.7464 100.62C90.9122 98.1566 91.9951 94.2919 91.9951 89.0261C91.9951 83.4215 90.9122 79.3874 88.7464 76.9239C86.5807 74.4296 83.8078 73.1824 80.4279 73.1824C77.1137 73.1824 74.3573 74.3988 72.1587 76.8315C69.9601 79.2335 68.8608 82.898 68.8608 87.8251Z" fill="url(#paint0_linear_2024_25)"/>
<path d="M34.3053 79.2518L21.1324 77.1154C22.6133 72.3473 25.1617 68.8176 28.7778 66.5265C32.3939 64.2353 37.7664 63.0897 44.8953 63.0897C51.3698 63.0897 56.1913 63.7864 59.3597 65.1796C62.5281 66.542 64.7494 68.2913 66.0237 70.4277C67.3323 72.5331 67.9867 76.4188 67.9867 82.0848L67.8317 97.3179C67.8317 101.653 68.8027 104.11 69.2504 106.184C69.7325 108.228 77.7561 111.173 79.0304 113.526L56.7768 113.153C56.3979 112.286 55.933 111.375 55.382 109.672C55.1409 108.898 56.0894 110.255 55.9861 110.007C53.5065 112.174 50.8547 112.305 48.0307 113.389C45.2067 114.473 41.0726 114.641 37.8697 114.641C32.2217 114.641 27.7619 113.263 24.4902 110.508C21.2529 107.752 19.6343 104.269 19.6343 100.058C19.6343 97.2715 20.3747 94.7946 21.8556 92.6272C23.3365 90.429 25.4028 88.757 28.0546 87.6114C30.7409 86.4349 34.598 85.4131 39.6261 84.5462C46.4106 83.4006 51.1116 82.3325 53.7289 81.3417V80.0413C53.7289 77.5334 53.0401 75.7531 51.6626 74.7004C50.285 73.6167 47.6849 73.0749 43.8621 73.0749C41.2792 73.0749 39.2645 73.5393 37.8181 74.4682C36.3716 75.3661 35.2007 76.9606 34.3053 79.2518ZM53.7289 89.8407C51.8692 90.398 48.9247 91.0637 44.8953 91.8377C40.8659 92.6118 38.2314 93.3703 36.9916 94.1134C35.0974 95.3209 34.1503 96.8535 34.1503 98.7112C34.1503 100.538 34.908 102.117 36.4233 103.448C37.9386 104.78 39.8672 105.445 42.2091 105.445C44.8264 105.445 47.3233 104.671 49.6996 103.123C51.4559 101.947 52.6097 100.507 53.1607 98.8041C53.5395 97.6895 53.7289 95.5686 53.7289 92.4415V89.8407Z" fill="url(#paint1_linear_2024_25)"/>
<path d="M145.95 78.7873L132.215 81.1095C131.752 78.5396 130.694 76.6045 129.041 75.3041C127.422 74.0037 125.306 73.3535 122.694 73.3535C119.224 73.3535 116.447 74.4836 114.364 76.7439C112.315 78.9731 111.29 82.7195 111.29 87.983C111.29 93.8347 112.331 97.9681 114.414 100.383C116.529 102.798 119.356 104.006 122.893 104.006C125.537 104.006 127.703 103.309 129.388 101.916C131.074 100.492 132.264 98.061 132.958 94.6243L146.644 96.8071C145.222 102.69 142.495 107.133 138.462 110.136C134.429 113.139 129.025 114.641 122.248 114.641C114.546 114.641 108.398 112.365 103.803 107.814C99.2411 103.263 96.9602 96.9619 96.9602 88.9118C96.9602 80.7689 99.2576 74.4372 103.852 69.9168C108.447 65.3654 114.662 63.0897 122.496 63.0897C128.909 63.0897 134 64.3901 137.768 66.9909C141.57 69.5607 144.297 73.4929 145.95 78.7873Z" fill="url(#paint2_linear_2024_25)"/>
<circle cx="83.3061" cy="84" r="81.8698" stroke="black" stroke-width="2.87263"/>
<defs>
<linearGradient id="paint0_linear_2024_25" x1="80.6494" y1="45.6985" x2="80.6494" y2="113.777" gradientUnits="userSpaceOnUse">
<stop stop-color="#4CB050"/>
<stop offset="1" stop-color="#337836"/>
</linearGradient>
<linearGradient id="paint1_linear_2024_25" x1="49.3323" y1="63.0897" x2="49.3323" y2="114.641" gradientUnits="userSpaceOnUse">
<stop stop-color="#4CB050"/>
<stop offset="1" stop-color="#337836"/>
</linearGradient>
<linearGradient id="paint2_linear_2024_25" x1="121.802" y1="63.0897" x2="121.802" y2="114.641" gradientUnits="userSpaceOnUse">
<stop stop-color="#4CB050"/>
<stop offset="1" stop-color="#337836"/>
</linearGradient>
</defs>
</svg>
