<svg width="235" height="66" viewBox="0 0 235 66" fill="none" xmlns="http://www.w3.org/2000/svg">
<path d="M31.5043 12.1989L29.4361 13.0606C28.5744 -3.48481 17.5441 -1.76133 14.2695 16.8523L12.0289 17.714C14.5942 2.57869 22.887 -3.58358 27.885 2.06889C33.3347 -0.886685 38.2258 2.71972 39.0876 11.1648C38.1921 9.92557 37.6239 9.39999 36.5024 8.75191C35.6406 2.06889 31.7839 1.97627 28.974 3.58146C30.1587 5.57882 31.0592 8.43328 31.5043 12.1989Z" fill="#004F88"/>
<path d="M25.5325 4.10095C22.172 9.36544 20.8071 13.1579 19.4399 19.9924L21.5081 20.8541C22.3037 13.7959 23.6308 10.264 26.5907 5.54405C26.752 5.28676 26.7848 4.96132 26.6385 4.6952C26.4224 4.3024 26.205 4.09083 25.8442 3.9768C25.7257 3.93935 25.5993 3.99621 25.5325 4.10095Z" fill="#004F88"/>
<path d="M14.0971 57.5264L2.28029 55.163C1.6562 55.0382 1.23594 54.4506 1.31945 53.8197L5.72735 20.5155C5.78692 20.0654 6.0938 19.6867 6.52178 19.5352L14.0971 16.8522L17.027 18.5757L23.5763 35.6382H26.3339L26.8309 14.5943C26.8429 14.0872 27.1703 13.6416 27.6506 13.4786L36.5024 10.4753L34.0979 61.1421C34.0935 61.2346 34.0076 61.3014 33.9169 61.2829L23.921 59.2498L16.51 40.981H14.0971V57.5264Z" fill="url(#paint0_linear_217_2180)"/>
<path d="M40.6387 14.267L36.5024 10.5132L34.0895 61.1835L42.8792 58.2158L50.9261 57.3217C51.6119 57.2455 52.0948 56.6113 51.9857 55.9299L45.4611 15.1508C45.3646 14.5478 44.8335 14.1116 44.2233 14.1342L40.6387 14.267Z" fill="#008AEE"/>
<path d="M24.5337 22.2695L17.027 18.6136L23.64 35.8485H26.6785V26.9699L24.5337 22.2695Z" fill="#008AEE"/>
<path d="M16.5099 40.981H14.097V57.5642L22.5421 55.6305L16.5099 40.981Z" fill="#008AEE"/>
<path d="M41.8452 51.322L34.6066 60.6288L42.7042 56.6362L51.3243 56.8371L43.224 50.9773L41.3281 14.6118H40.6388L41.8452 51.322Z" fill="#004F88"/>
<path d="M34.1001 64.0056L0.478583 56.8647C0.290694 56.8248 0.11377 56.9681 0.11377 57.1602V58.506C0.11377 58.6486 0.21355 58.7718 0.353076 58.8014L34.1722 65.9843C34.221 65.9946 34.2715 65.9928 34.3194 65.9788L54.2668 60.1732C54.3958 60.1357 54.4845 60.0175 54.4845 59.8832V58.6972C54.4845 58.4967 54.2928 58.3519 54.1 58.4066L34.3904 63.9958C34.2959 64.0226 34.1963 64.026 34.1001 64.0056Z" fill="url(#paint1_linear_217_2180)"/>
<path d="M77.4098 48.6865H71.8781L62.6261 34.6791V48.6865H57.0943V25.9771H62.6261L71.8781 40.0492V25.9771H77.4098V48.6865ZM86.9515 30.409V35.0026H94.3595V39.2728H86.9515V44.2546H95.33V48.6865H81.4197V25.9771H95.33V30.409H86.9515ZM112.832 48.6865L108.206 41.7314L104.13 48.6865H97.8538L105.132 37.1377L97.692 25.9771H104.13L108.691 32.8352L112.702 25.9771H118.978L111.764 37.4289L119.269 48.6865H112.832ZM127.481 25.9771V39.5639C127.481 40.9226 127.815 41.9686 128.484 42.7018C129.152 43.4351 130.134 43.8017 131.428 43.8017C132.722 43.8017 133.714 43.4351 134.404 42.7018C135.094 41.9686 135.439 40.9226 135.439 39.5639V25.9771H140.971V39.5316C140.971 41.5588 140.539 43.2734 139.677 44.6752C138.814 46.077 137.65 47.1337 136.183 47.8454C134.738 48.5571 133.121 48.913 131.331 48.913C129.541 48.913 127.934 48.5679 126.51 47.8778C125.109 47.1661 123.998 46.1093 123.178 44.7075C122.359 43.2841 121.949 41.5588 121.949 39.5316V25.9771H127.481ZM153.072 48.913C151.411 48.913 149.923 48.6434 148.608 48.1042C147.292 47.5651 146.235 46.7671 145.438 45.7104C144.661 44.6536 144.251 43.3812 144.208 41.8931H150.096C150.182 42.7342 150.473 43.3812 150.969 43.8341C151.465 44.2654 152.112 44.4811 152.91 44.4811C153.73 44.4811 154.377 44.2978 154.851 43.9311C155.326 43.5429 155.563 43.0146 155.563 42.346C155.563 41.7853 155.369 41.3216 154.981 40.955C154.614 40.5883 154.15 40.2864 153.59 40.0492C153.05 39.8119 152.274 39.5424 151.26 39.2404C149.794 38.7875 148.597 38.3347 147.67 37.8818C146.742 37.4289 145.944 36.7603 145.276 35.8761C144.607 34.9919 144.273 33.8381 144.273 32.4147C144.273 30.3012 145.039 28.6513 146.57 27.4652C148.101 26.2575 150.096 25.6536 152.554 25.6536C155.056 25.6536 157.073 26.2575 158.604 27.4652C160.135 28.6513 160.955 30.312 161.062 32.447H155.078C155.035 31.7138 154.765 31.1423 154.269 30.7325C153.773 30.3012 153.137 30.0855 152.36 30.0855C151.692 30.0855 151.153 30.2688 150.743 30.6354C150.333 30.9805 150.128 31.4873 150.128 32.1559C150.128 32.8891 150.473 33.4606 151.163 33.8704C151.854 34.2802 152.932 34.7223 154.398 35.1967C155.865 35.6928 157.051 36.1672 157.957 36.6201C158.884 37.073 159.682 37.7308 160.351 38.5934C161.019 39.4561 161.354 40.5668 161.354 41.9255C161.354 43.2194 161.019 44.3948 160.351 45.4516C159.704 46.5083 158.755 47.3494 157.504 47.9748C156.253 48.6003 154.776 48.913 153.072 48.913Z" fill="black"/>
<path d="M188.142 32.7382C188.142 34.6144 187.496 36.178 186.202 37.4289C184.929 38.6581 182.977 39.2728 180.346 39.2728H176.011V48.6865H173.068V26.1389H180.346C182.891 26.1389 184.821 26.7535 186.137 27.9828C187.474 29.2121 188.142 30.7972 188.142 32.7382ZM180.346 36.8466C181.985 36.8466 183.193 36.4907 183.969 35.779C184.746 35.0673 185.134 34.0537 185.134 32.7382C185.134 29.9561 183.538 28.5651 180.346 28.5651H176.011V36.8466H180.346ZM202.024 48.913C199.932 48.913 198.023 48.4277 196.298 47.4572C194.573 46.4652 193.203 45.0957 192.189 43.3488C191.197 41.5804 190.701 39.5963 190.701 37.3965C190.701 35.1967 191.197 33.2234 192.189 31.4765C193.203 29.7081 194.573 28.3386 196.298 27.3681C198.023 26.3761 199.932 25.8801 202.024 25.8801C204.137 25.8801 206.057 26.3761 207.782 27.3681C209.507 28.3386 210.866 29.6973 211.858 31.4442C212.85 33.1911 213.346 35.1752 213.346 37.3965C213.346 39.6179 212.85 41.602 211.858 43.3488C210.866 45.0957 209.507 46.4652 207.782 47.4572C206.057 48.4277 204.137 48.913 202.024 48.913ZM202.024 46.3574C203.598 46.3574 205.011 45.9907 206.262 45.2575C207.534 44.5242 208.526 43.4782 209.238 42.1196C209.971 40.7609 210.338 39.1865 210.338 37.3965C210.338 35.5849 209.971 34.0106 209.238 32.6735C208.526 31.3148 207.545 30.2688 206.294 29.5356C205.043 28.8023 203.62 28.4357 202.024 28.4357C200.428 28.4357 199.004 28.8023 197.754 29.5356C196.503 30.2688 195.511 31.3148 194.777 32.6735C194.066 34.0106 193.71 35.5849 193.71 37.3965C193.71 39.1865 194.066 40.7609 194.777 42.1196C195.511 43.4782 196.503 44.5242 197.754 45.2575C199.026 45.9907 200.449 46.3574 202.024 46.3574ZM224.382 48.913C222.894 48.913 221.556 48.6542 220.37 48.1366C219.206 47.5974 218.289 46.8642 217.621 45.9368C216.952 44.9879 216.607 43.8988 216.585 42.6695H219.723C219.831 43.7263 220.262 44.6213 221.017 45.3545C221.794 46.0662 222.915 46.4221 224.382 46.4221C225.783 46.4221 226.883 46.077 227.681 45.3869C228.501 44.6752 228.911 43.7694 228.911 42.6695C228.911 41.8068 228.673 41.1059 228.199 40.5668C227.724 40.0276 227.131 39.6179 226.42 39.3375C225.708 39.0571 224.748 38.7552 223.541 38.4317C222.052 38.0435 220.856 37.6553 219.95 37.2671C219.066 36.8789 218.3 36.2751 217.653 35.4555C217.027 34.6144 216.715 33.493 216.715 32.0912C216.715 30.8619 217.027 29.7728 217.653 28.8239C218.278 27.8749 219.152 27.1417 220.273 26.6241C221.416 26.1065 222.721 25.8477 224.188 25.8477C226.301 25.8477 228.026 26.3761 229.363 27.4328C230.722 28.4896 231.488 29.8914 231.66 31.6383H228.425C228.317 30.7756 227.865 30.0208 227.067 29.3738C226.269 28.7053 225.212 28.371 223.896 28.371C222.667 28.371 221.664 28.6945 220.888 29.3415C220.111 29.9669 219.723 30.8511 219.723 31.9941C219.723 32.8137 219.95 33.4822 220.403 33.9998C220.877 34.5174 221.449 34.9164 222.117 35.1967C222.807 35.4555 223.767 35.7575 224.996 36.1025C226.484 36.5123 227.681 36.9221 228.587 37.3318C229.493 37.72 230.269 38.3347 230.916 39.1757C231.563 39.9953 231.887 41.1167 231.887 42.5401C231.887 43.64 231.596 44.6752 231.013 45.6457C230.431 46.6161 229.568 47.4033 228.425 48.0072C227.282 48.611 225.934 48.913 224.382 48.913Z" fill="#008AEE"/>
<defs>
<linearGradient id="paint0_linear_217_2180" x1="1.17102" y1="10.3408" x2="36.6747" y2="61.3559" gradientUnits="userSpaceOnUse">
<stop stop-color="#008AEE"/>
<stop offset="1" stop-color="#004F88"/>
</linearGradient>
<linearGradient id="paint1_linear_217_2180" x1="0.11377" y1="62.1488" x2="54.4845" y2="62.1488" gradientUnits="userSpaceOnUse">
<stop stop-color="#008AEE"/>
<stop offset="1" stop-color="#004F88"/>
</linearGradient>
</defs>
</svg>
