<svg width="56" height="56" viewBox="0 0 56 56" fill="none" xmlns="http://www.w3.org/2000/svg">
<g clipPath="url(#clip0_1_946)">
<path d="M36.1665 54.833H18.6665V31.9663C18.6665 31.0642 19.45 30.333 20.4165 30.333H34.4165C35.3831 30.333 36.1665 31.0642 36.1665 31.9663V54.833Z" stroke="#E31736" stroke-width="3" stroke-linecap="round" stroke-linejoin="round"/>
<path d="M51.9165 54.8333H36.1665V47.1C36.1665 46.2163 36.9499 45.5 37.9165 45.5H51.9165C52.8831 45.5 53.6665 46.2163 53.6665 47.1V53.2333C53.6665 54.1171 52.8831 54.8333 51.9165 54.8333Z" stroke="#E31736" stroke-width="3" stroke-linecap="round" stroke-linejoin="round"/>
<path d="M18.6665 54.8333V40.2818C18.6665 39.2977 17.883 38.5 16.9165 38.5H2.9165C1.95001 38.5 1.1665 39.2977 1.1665 40.2818V53.0515C1.1665 54.0357 1.95001 54.8333 2.9165 54.8333H18.6665Z" stroke="#E31736" stroke-width="3" stroke-linecap="round" stroke-linejoin="round"/>
<path d="M33.9317 16.911C33.9099 16.8086 33.9431 16.7023 34.0193 16.6304L38.8285 12.0944C38.8913 12.0351 38.9767 12.0058 39.0627 12.0139L41.3443 12.2308C41.6005 12.2551 41.7091 12.5696 41.5225 12.7469L36.4864 17.5334C36.4112 17.6049 36.3782 17.7102 36.3994 17.8118L37.8819 24.9499C37.9365 25.2127 37.645 25.4094 37.4217 25.2605L35.5227 23.9942C35.4575 23.9507 35.4119 23.8835 35.3957 23.8069L33.9317 16.911ZM31.1342 6.74639C31.0222 6.73486 30.926 6.66155 30.8852 6.55657L29.5939 3.23136C29.5671 3.16243 29.5667 3.08605 29.5928 3.01687L30.4531 0.736302C30.5504 0.478446 30.9147 0.47717 31.0137 0.734339L33.2446 6.52531C33.3251 6.73423 33.1567 6.9545 32.934 6.93158L31.1342 6.74639ZM21.9372 19.853C21.882 20.1154 22.1727 20.3129 22.3964 20.1648L25.9777 17.7938C26.0787 17.727 26.2099 17.7274 26.3105 17.7948L29.8909 20.1964C30.1142 20.3462 30.4066 20.1492 30.3517 19.886L29.395 15.3039C29.3737 15.2021 29.4067 15.0965 29.4821 15.025L32.7233 11.9482C32.9097 11.7712 32.8018 11.457 32.5459 11.432L28.334 11.0204C28.2213 11.0094 28.1245 10.936 28.0835 10.8305L26.423 6.55691C26.324 6.30212 25.9637 6.30167 25.864 6.55621L24.2056 10.7932C24.1644 10.8983 24.0678 10.9714 23.9554 10.9824L19.7385 11.3945C19.4834 11.4194 19.375 11.7322 19.56 11.9096L22.8079 15.0248C22.8826 15.0965 22.9151 15.2017 22.8938 15.3031L21.9372 19.853ZM19.2504 24.9264C19.0266 25.0746 18.7357 24.8768 18.7913 24.6141L20.5869 16.1275C20.6084 16.0256 20.5756 15.9198 20.5001 15.848L14.4769 10.1187C14.2905 9.94142 14.3991 9.62711 14.6552 9.60271L22.5519 8.85055C22.6651 8.83977 22.7624 8.76595 22.8033 8.65988L25.8645 0.725459C25.9633 0.469439 26.3255 0.46944 26.4243 0.725459L29.4855 8.65988C29.5264 8.76595 29.6238 8.83977 29.737 8.85055L37.6336 9.60271C37.8897 9.62711 37.9984 9.94142 37.8119 10.1187L31.7887 15.848C31.7133 15.9198 31.6804 16.0256 31.702 16.1275L33.4976 24.6141C33.5532 24.8768 33.2623 25.0746 33.0384 24.9264L26.3101 20.4707C26.2097 20.4042 26.0792 20.4042 25.9788 20.4707L19.2504 24.9264Z" fill="#E31736"/>
<path d="M12.3118 29.1212C12.293 29.0247 12.3226 28.9252 12.3911 28.8548L14.6958 26.4834C14.7598 26.4175 14.8505 26.3846 14.9419 26.3941L15.7211 26.4748C15.9698 26.5006 16.0797 26.8015 15.9061 26.9815L13.624 29.3476C13.5564 29.4177 13.527 29.5163 13.5452 29.612L14.2071 33.0884C14.258 33.3555 13.9558 33.547 13.7359 33.3871L13.1395 32.9532C13.0781 32.9086 13.036 32.8424 13.0215 32.7679L12.3118 29.1212ZM10.9956 23.5235C10.8816 23.5107 10.7849 23.4341 10.7465 23.326L10.1449 21.6363C10.1221 21.5722 10.1218 21.5021 10.144 21.4377L10.4184 20.6444C10.5112 20.376 10.8902 20.3748 10.9848 20.6425L11.8843 23.1897C11.958 23.3985 11.788 23.6125 11.5679 23.5878L10.9956 23.5235ZM6.37008 30.3091C6.31866 30.5759 6.62004 30.7682 6.84031 30.6091L8.22891 29.6062C8.33432 29.5301 8.47678 29.5305 8.58172 29.6073L9.96947 30.6228C10.1893 30.7837 10.4925 30.5918 10.4413 30.3243L10.0431 28.2441C10.0248 28.1483 10.0542 28.0495 10.122 27.9793L11.5069 26.5451C11.6804 26.3655 11.5712 26.0649 11.3229 26.0384L9.59619 25.8543C9.48156 25.8421 9.38407 25.7653 9.34539 25.6567L8.68728 23.8089C8.59273 23.5435 8.21747 23.543 8.1223 23.8083L7.46628 25.6366C7.42744 25.7449 7.3301 25.8214 7.21572 25.8336L5.48454 26.0182C5.23693 26.0446 5.12742 26.3437 5.29946 26.5237L6.69052 27.9793C6.75765 28.0495 6.7866 28.1479 6.76822 28.2433L6.37008 30.3091ZM5.26785 33.2059C5.04745 33.3651 4.74589 33.1725 4.79766 32.9056L5.6146 28.6934C5.63321 28.5975 5.60392 28.4985 5.53611 28.4281L2.7604 25.5479C2.58694 25.3679 2.69678 25.0671 2.94541 25.0413L6.51318 24.6706C6.62837 24.6586 6.72639 24.5814 6.765 24.4722L8.12288 20.6327C8.21718 20.3661 8.59425 20.3661 8.68854 20.6327L10.0464 24.4722C10.085 24.5814 10.1831 24.6586 10.2982 24.6706L13.866 25.0413C14.1146 25.0671 14.2245 25.3679 14.051 25.5479L11.2753 28.4281C11.2075 28.4985 11.1782 28.5975 11.1968 28.6934L12.0138 32.9056C12.0655 33.1725 11.764 33.3651 11.5436 33.2059L8.58139 31.0659C8.47652 30.9902 8.3349 30.9902 8.23003 31.0659L5.26785 33.2059Z" fill="#E31736"/>
<path d="M50.8118 36.1212C50.793 36.0247 50.8226 35.9252 50.8911 35.8548L53.1958 33.4834C53.2598 33.4175 53.3505 33.3846 53.4419 33.3941L54.2211 33.4748C54.4698 33.5006 54.5797 33.8015 54.4061 33.9815L52.124 36.3476C52.0564 36.4177 52.027 36.5163 52.0452 36.612L52.7071 40.0884C52.758 40.3555 52.4558 40.547 52.2359 40.3871L51.6395 39.9532C51.5781 39.9086 51.536 39.8424 51.5215 39.7679L50.8118 36.1212ZM49.4956 30.5235C49.3816 30.5107 49.2849 30.4341 49.2465 30.326L48.6449 28.6363C48.6221 28.5722 48.6218 28.5021 48.644 28.4377L48.9184 27.6444C49.0112 27.376 49.3902 27.3748 49.4848 27.6425L50.3843 30.1897C50.458 30.3985 50.288 30.6125 50.0679 30.5878L49.4956 30.5235ZM44.8701 37.3091C44.8187 37.5759 45.12 37.7682 45.3403 37.6091L46.7289 36.6062C46.8343 36.5301 46.9768 36.5305 47.0817 36.6073L48.4695 37.6228C48.6893 37.7837 48.9925 37.5918 48.9413 37.3243L48.5431 35.2441C48.5248 35.1483 48.5542 35.0495 48.622 34.9793L50.0069 33.5451C50.1804 33.3655 50.0712 33.0649 49.8229 33.0384L48.0962 32.8543C47.9816 32.8421 47.8841 32.7653 47.8454 32.6567L47.1873 30.8089C47.0927 30.5435 46.7175 30.543 46.6223 30.8083L45.9663 32.6366C45.9274 32.7449 45.8301 32.8214 45.7157 32.8336L43.9845 33.0182C43.7369 33.0446 43.6274 33.3437 43.7995 33.5237L45.1905 34.9793C45.2576 35.0495 45.2866 35.1479 45.2682 35.2433L44.8701 37.3091ZM43.7679 40.2059C43.5475 40.3651 43.2459 40.1725 43.2977 39.9056L44.1146 35.6934C44.1332 35.5975 44.1039 35.4985 44.0361 35.4281L41.2604 32.5479C41.0869 32.3679 41.1968 32.0671 41.4454 32.0413L45.0132 31.6706C45.1284 31.6586 45.2264 31.5814 45.265 31.4722L46.6229 27.6327C46.7172 27.3661 47.0942 27.3661 47.1885 27.6327L48.5464 31.4722C48.585 31.5814 48.6831 31.6586 48.7982 31.6706L52.366 32.0413C52.6146 32.0671 52.7245 32.3679 52.551 32.5479L49.7753 35.4281C49.7075 35.4985 49.6782 35.5975 49.6968 35.6934L50.5138 39.9056C50.5655 40.1725 50.264 40.3651 50.0436 40.2059L47.0814 38.0659C46.9765 37.9902 46.8349 37.9902 46.73 38.0659L43.7679 40.2059Z" fill="#E31736"/>
</g>
<defs>
<clipPath id="clip0_1_946">
<rect width="56" height="56" fill="white"/>
</clipPath>
</defs>
</svg>
