<svg width="32" height="30" viewBox="0 0 32 30" fill="none" xmlns="http://www.w3.org/2000/svg">
<path d="M15.0565 25.9035C14.4726 26.4888 14.4724 27.4363 15.0561 28.0219L15.9665 28.9351C16.5524 29.5228 17.5042 29.5231 18.0904 28.9357L30.9423 16.0597C31.5268 15.4741 31.5268 14.5259 30.9423 13.9403L18.0904 1.0643C17.5042 0.476929 16.5524 0.477217 15.9665 1.06494L15.0561 1.97809C14.4724 2.56365 14.4726 3.51117 15.0565 4.09652L24.8775 13.9406C25.4616 14.5261 25.4616 15.4739 24.8775 16.0594L15.0565 25.9035Z" fill="#09090B"/>
<path d="M1.05653 25.9035C0.472561 26.4888 0.472386 27.4363 1.05614 28.0219L1.96647 28.9351C2.55238 29.5228 3.50416 29.5231 4.09042 28.9357L16.9423 16.0597C17.5268 15.4741 17.5268 14.5259 16.9423 13.9403L4.09043 1.0643C3.50416 0.476929 2.55238 0.477217 1.96647 1.06494L1.05614 1.97809C0.472388 2.56365 0.472563 3.51117 1.05653 4.09652L10.8775 13.9406C11.4616 14.5261 11.4616 15.4739 10.8775 16.0594L1.05653 25.9035Z" fill="#09090B"/>
</svg>
