<svg width="26" height="24" viewBox="0 0 26 24" fill="none" xmlns="http://www.w3.org/2000/svg">
<path d="M13.3435 3.48902C13.9274 2.90368 13.9276 1.95615 13.3439 1.37059L13.0392 1.06494C12.4532 0.477221 11.5015 0.476931 10.9152 1.0643L1.05768 10.9403C0.473216 11.5259 0.473215 12.4741 1.05768 13.0597L10.9152 22.9357C11.5015 23.5231 12.4532 23.5228 13.0391 22.9351L13.3439 22.6294C13.9276 22.0439 13.9274 21.0963 13.3435 20.511L5.90942 13.0594C5.32529 12.4739 5.32529 11.5261 5.90942 10.9406L13.3435 3.48902Z" fill="#09090B"/>
<path d="M24.5427 3.48902C25.1267 2.90368 25.1268 1.95615 24.5431 1.37059L24.2384 1.06494C23.6525 0.477221 22.7007 0.476931 22.1144 1.0643L12.2569 10.9403C11.6724 11.5259 11.6724 12.4741 12.2569 13.0597L22.1144 22.9357C22.7007 23.5231 23.6525 23.5228 24.2384 22.9351L24.5431 22.6294C25.1268 22.0439 25.1267 21.0963 24.5427 20.511L17.1086 13.0594C16.5245 12.4739 16.5245 11.5261 17.1086 10.9406L24.5427 3.48902Z" fill="#09090B"/>
</svg>
