<svg width="24" height="24" viewBox="0 0 24 24" fill="none" xmlns="http://www.w3.org/2000/svg">
<path d="M12 5.43C11.8674 5.43 11.7402 5.37732 11.6464 5.28355C11.5527 5.18979 11.5 5.06261 11.5 4.93V2C11.5 1.86739 11.5527 1.74021 11.6464 1.64645C11.7402 1.55268 11.8674 1.5 12 1.5C12.1326 1.5 12.2598 1.55268 12.3536 1.64645C12.4473 1.74021 12.5 1.86739 12.5 2V4.93C12.5 5.06261 12.4473 5.18979 12.3536 5.28355C12.2598 5.37732 12.1326 5.43 12 5.43Z" fill="#929292"/>
<path d="M4.96484 5.43C4.83224 5.43 4.70506 5.37732 4.61129 5.28355C4.51752 5.18979 4.46484 5.06261 4.46484 4.93V2C4.46484 1.86739 4.51752 1.74021 4.61129 1.64645C4.70506 1.55268 4.83224 1.5 4.96484 1.5C5.09745 1.5 5.22463 1.55268 5.3184 1.64645C5.41217 1.74021 5.46484 1.86739 5.46484 2V4.93C5.46484 5.06261 5.41217 5.18979 5.3184 5.28355C5.22463 5.37732 5.09745 5.43 4.96484 5.43Z" fill="#929292"/>
<path d="M19.0352 5.43C18.9025 5.43 18.7754 5.37732 18.6816 5.28355C18.5878 5.18979 18.5352 5.06261 18.5352 4.93V2C18.5352 1.86739 18.5878 1.74021 18.6816 1.64645C18.7754 1.55268 18.9025 1.5 19.0352 1.5C19.1678 1.5 19.2949 1.55268 19.3887 1.64645C19.4825 1.74021 19.5352 1.86739 19.5352 2V4.93C19.5352 5.06261 19.4825 5.18979 19.3887 5.28355C19.2949 5.37732 19.1678 5.43 19.0352 5.43Z" fill="#929292"/>
<path d="M12 7.18C11.8674 7.18 11.7402 7.12732 11.6464 7.03355C11.5527 6.93979 11.5 6.81261 11.5 6.68V4.75C11.5 4.61739 11.5527 4.49021 11.6464 4.39645C11.7402 4.30268 11.8674 4.25 12 4.25C12.1326 4.25 12.2598 4.30268 12.3536 4.39645C12.4473 4.49021 12.5 4.61739 12.5 4.75V6.68C12.5 6.81261 12.4473 6.93979 12.3536 7.03355C12.2598 7.12732 12.1326 7.18 12 7.18Z" fill="#929292"/>
<path d="M4.96484 7.18C4.83224 7.18 4.70506 7.12732 4.61129 7.03355C4.51752 6.93979 4.46484 6.81261 4.46484 6.68V4.75C4.46484 4.61739 4.51752 4.49021 4.61129 4.39645C4.70506 4.30268 4.83224 4.25 4.96484 4.25C5.09745 4.25 5.22463 4.30268 5.3184 4.39645C5.41217 4.49021 5.46484 4.61739 5.46484 4.75V6.68C5.46484 6.81261 5.41217 6.93979 5.3184 7.03355C5.22463 7.12732 5.09745 7.18 4.96484 7.18Z" fill="#929292"/>
<path d="M19.0352 7.18C18.9025 7.18 18.7754 7.12732 18.6816 7.03355C18.5878 6.93979 18.5352 6.81261 18.5352 6.68V4.75C18.5352 4.61739 18.5878 4.49021 18.6816 4.39645C18.7754 4.30268 18.9025 4.25 19.0352 4.25C19.1678 4.25 19.2949 4.30268 19.3887 4.39645C19.4825 4.49021 19.5352 4.61739 19.5352 4.75V6.68C19.5352 6.81261 19.4825 6.93979 19.3887 7.03355C19.2949 7.12732 19.1678 7.18 19.0352 7.18Z" fill="#929292"/>
<path d="M22 10H2C1.86739 10 1.74021 9.94732 1.64645 9.85355C1.55268 9.75979 1.5 9.63261 1.5 9.5V6C1.5 5.60218 1.65804 5.22064 1.93934 4.93934C2.22064 4.65804 2.60218 4.5 3 4.5H21C21.3978 4.5 21.7794 4.65804 22.0607 4.93934C22.342 5.22064 22.5 5.60218 22.5 6V9.5C22.5 9.63261 22.4473 9.75979 22.3536 9.85355C22.2598 9.94732 22.1326 10 22 10ZM2.5 9H21.5V6C21.5 5.86739 21.4473 5.74021 21.3536 5.64645C21.2598 5.55268 21.1326 5.5 21 5.5H3C2.86739 5.5 2.74021 5.55268 2.64645 5.64645C2.55268 5.74021 2.5 5.86739 2.5 6V9Z" fill="#929292"/>
<path d="M21 22.5H3C2.60218 22.5 2.22064 22.342 1.93934 22.0607C1.65804 21.7794 1.5 21.3978 1.5 21V9.5C1.5 9.36739 1.55268 9.24021 1.64645 9.14645C1.74021 9.05268 1.86739 9 2 9H22C22.1326 9 22.2598 9.05268 22.3536 9.14645C22.4473 9.24021 22.5 9.36739 22.5 9.5V21C22.5 21.3978 22.342 21.7794 22.0607 22.0607C21.7794 22.342 21.3978 22.5 21 22.5ZM2.5 10V21C2.5 21.1326 2.55268 21.2598 2.64645 21.3536C2.74021 21.4473 2.86739 21.5 3 21.5H21C21.1326 21.5 21.2598 21.4473 21.3536 21.3536C21.4473 21.2598 21.5 21.1326 21.5 21V10H2.5Z" fill="#929292"/>
</svg>
