<svg width="38" height="38" viewBox="0 0 38 38" fill="none" xmlns="http://www.w3.org/2000/svg">
<path d="M22.1044 10.9694C23.3202 11.2061 24.4375 11.7996 25.3134 12.6738C26.1893 13.548 26.7839 14.6632 27.0211 15.8767M22.1044 6C24.6303 6.28007 26.9857 7.40904 28.7839 9.20154C30.5821 10.994 31.7162 13.3435 32 15.8642M30.7553 25.7782V29.5052C30.7567 29.8512 30.6857 30.1937 30.5468 30.5107C30.4079 30.8277 30.2042 31.1123 29.9488 31.3462C29.6933 31.5801 29.3918 31.7582 29.0634 31.869C28.735 31.9799 28.387 32.0211 28.0418 31.9899C24.2115 31.5745 20.5323 30.2682 17.2998 28.1759C14.2923 26.2685 11.7425 23.7235 9.83141 20.7218C7.7278 17.4808 6.41868 13.7908 6.0101 9.95067C5.979 9.60712 6.01991 9.26087 6.13022 8.93396C6.24053 8.60705 6.41784 8.30665 6.65085 8.05189C6.88385 7.79712 7.16746 7.59357 7.4836 7.4542C7.79974 7.31482 8.1415 7.24267 8.48711 7.24235H12.2213C12.8254 7.23641 13.411 7.44992 13.869 7.84306C14.327 8.23621 14.6262 8.78217 14.7107 9.37919C14.8684 10.5719 15.1607 11.743 15.5821 12.8702C15.7495 13.3148 15.7858 13.7981 15.6865 14.2627C15.5872 14.7273 15.3566 15.1538 15.0219 15.4915L13.4411 17.0693C15.2131 20.1796 17.7933 22.7549 20.9095 24.5234L22.4903 22.9456C22.8287 22.6116 23.256 22.3814 23.7215 22.2823C24.187 22.1832 24.6711 22.2194 25.1167 22.3866C26.246 22.8072 27.4193 23.0989 28.6143 23.2562C29.219 23.3413 29.7712 23.6453 30.1659 24.1103C30.5607 24.5753 30.7704 25.1689 30.7553 25.7782Z" stroke="#09090B" stroke-width="2" stroke-linecap="round" stroke-linejoin="round"/>
</svg>
