<svg width="36" height="36" viewBox="0 0 36 36" fill="none" xmlns="http://www.w3.org/2000/svg">
<rect x="0.500977" y="0.5" width="35" height="35" rx="6.07143" stroke="#E31736"/>
<path d="M28.1478 9.6031H24.1286L22.4698 6.89544C22.0054 6.20729 21.2882 5.78613 20.4685 5.78613H15.5312C14.7115 5.78613 13.9504 6.20729 13.5309 6.89544L11.8711 9.6031H7.8519C7.41891 9.6031 7.07129 9.94328 7.07129 10.3665V11.1299C7.07129 11.5545 7.41891 11.8933 7.8519 11.8933H8.63251V27.1611C8.63251 28.8478 10.0303 30.2147 11.755 30.2147H24.2448C25.9694 30.2147 27.3672 28.8478 27.3672 27.1611V11.8933H28.1478C28.582 11.8933 28.9284 11.5545 28.9284 11.1299V10.3665C28.9284 9.94328 28.582 9.6031 28.1478 9.6031ZM15.458 8.21372C15.5068 8.13023 15.6044 8.07631 15.7068 8.07631H20.2929C20.3966 8.07631 20.4942 8.12999 20.5429 8.21348L21.3955 9.6031H14.6042L15.458 8.21372ZM24.2448 27.9245H11.755C11.3238 27.9245 10.9744 27.5828 10.9744 27.1611V11.8933H25.0254V27.1611C25.0254 27.581 24.6741 27.9245 24.2448 27.9245ZM17.9999 25.6343C18.4313 25.6343 18.7805 25.2929 18.7805 24.871V14.9468C18.7805 14.5249 18.4313 14.1835 17.9999 14.1835C17.5684 14.1835 17.2192 14.527 17.2192 14.9468V24.871C17.2192 25.2908 17.5705 25.6343 17.9999 25.6343ZM14.0968 25.6343C14.5261 25.6343 14.8774 25.2908 14.8774 24.871V14.9468C14.8774 14.5249 14.5283 14.1835 14.0968 14.1835C13.6653 14.1835 13.3162 14.527 13.3162 14.9468V24.871C13.3162 25.2908 13.6675 25.6343 14.0968 25.6343ZM21.9029 25.6343C22.3344 25.6343 22.6835 25.2929 22.6835 24.871V14.9468C22.6835 14.5249 22.3344 14.1835 21.9029 14.1835C21.4714 14.1835 21.1223 14.527 21.1223 14.9468V24.871C21.1223 25.2908 21.4736 25.6343 21.9029 25.6343Z" fill="#E31736"/>
</svg>
