<svg width="28" height="28" viewBox="0 0 28 28" fill="none" xmlns="http://www.w3.org/2000/svg">
<path d="M23.2526 0.97657C22.9438 0.666074 22.5766 0.419891 22.172 0.252266C21.7675 0.0846412 21.3337 -0.00109764 20.8958 1.0608e-05H14C13.1163 0.00104805 12.269 0.352571 11.6441 0.977467C11.0192 1.60236 10.6677 2.44961 10.6667 3.33334V19.3333C10.6677 20.2171 11.0192 21.0643 11.6441 21.6892C12.269 22.3141 13.1163 22.6656 14 22.6667H24.6667C25.5504 22.6657 26.3977 22.3143 27.0227 21.6893C27.6476 21.0644 27.9991 20.2171 28 19.3333V7.10482C28.0013 6.66681 27.9157 6.23289 27.748 5.82822C27.5804 5.42355 27.3341 5.05618 27.0234 4.74741L23.2526 0.97657ZM21.3333 1.38681C21.7024 1.46899 22.0409 1.65353 22.3099 1.91928L26.0807 5.69012C26.3481 5.95814 26.5333 6.29695 26.6147 6.66668H23.3333C22.8031 6.6661 22.2947 6.4552 21.9198 6.08025C21.5448 5.7053 21.3339 5.19693 21.3333 4.66668V1.38681ZM26.6667 19.3333C26.6661 19.8636 26.4552 20.372 26.0802 20.7469C25.7053 21.1219 25.1969 21.3328 24.6667 21.3333H14C13.4697 21.3328 12.9614 21.1219 12.5864 20.7469C12.2115 20.372 12.0006 19.8636 12 19.3333V3.33334C12.0006 2.80309 12.2115 2.29472 12.5864 1.91977C12.9614 1.54482 13.4697 1.33392 14 1.33334H20V4.66668C20.0009 5.55045 20.3524 6.39775 20.9773 7.02267C21.6023 7.64759 22.4496 7.99908 23.3333 8.00001H26.6667V19.3333ZM0 24.6667V8.66668C0.00103745 7.78294 0.35256 6.9357 0.977457 6.3108C1.60235 5.6859 2.4496 5.33438 3.33333 5.33334H8.66667V6.66668H3.33333C2.80308 6.66726 2.29471 6.87816 1.91976 7.2531C1.54481 7.62805 1.33391 8.13642 1.33333 8.66668V24.6667C1.33391 25.1969 1.54481 25.7053 1.91976 26.0802C2.29471 26.4552 2.80308 26.6661 3.33333 26.6667H14C14.5303 26.6661 15.0386 26.4552 15.4136 26.0802C15.7885 25.7053 15.9994 25.1969 16 24.6667H17.3333C17.3324 25.5504 16.9809 26.3978 16.356 27.0227C15.7311 27.6476 14.8838 27.9991 14 28H3.33333C2.4496 27.999 1.60235 27.6474 0.977457 27.0226C0.35256 26.3977 0.00103745 25.5504 0 24.6667Z" fill="black"/>
</svg>
