<svg width="23" height="28" viewBox="0 0 23 28" fill="none" xmlns="http://www.w3.org/2000/svg">
<path d="M16.0166 1.02979V5.93735C16.0166 6.51816 16.4874 6.98897 17.0682 6.98897H21.9758" stroke="black" stroke-width="1.2"/>
<path d="M1.64551 10.6698V3.83431C1.64551 2.09191 3.05798 0.679443 4.80037 0.679443H15.3441C15.9864 0.679443 16.6031 0.931272 17.0618 1.38091L20.242 4.4982L21.3194 5.65596C21.742 6.11005 21.9769 6.7073 21.9769 7.32758V24.1657C21.9769 25.9081 20.5644 27.3205 18.822 27.3205H4.80037C3.05798 27.3205 1.64551 25.9081 1.64551 24.1657V23.114" stroke="black" stroke-width="1.2" stroke-linecap="round"/>
<path d="M4.37245 18.1431C4.42387 18.1058 4.4706 18.0847 4.51266 18.08C4.55473 18.0754 4.59213 18.0964 4.62484 18.1431L5.19972 18.9844C5.23712 19.0358 5.25115 19.0779 5.24179 19.1106C5.23246 19.1387 5.20207 19.1714 5.15065 19.2088C4.9637 19.3443 4.74402 19.4588 4.49163 19.5523C4.24394 19.6411 3.96116 19.6855 3.64332 19.6855C3.2741 19.6855 2.92591 19.6154 2.59871 19.4752C2.27155 19.335 1.98411 19.1434 1.73638 18.9003C1.49335 18.6526 1.30171 18.3652 1.1615 18.038C1.02128 17.7108 0.951172 17.3626 0.951172 16.9934C0.951172 16.6195 1.02128 16.2712 1.1615 15.9487C1.30171 15.6262 1.49335 15.3435 1.73638 15.1004C1.98411 14.8574 2.27155 14.6681 2.59871 14.5326C2.92591 14.3923 3.2741 14.3222 3.64332 14.3222C3.96116 14.3222 4.24394 14.3713 4.49163 14.4695C4.74402 14.5629 4.96837 14.6775 5.16467 14.813C5.20207 14.8364 5.2231 14.8668 5.22777 14.9041C5.23246 14.9415 5.22777 14.9719 5.21374 14.9953L4.6038 15.8716C4.57576 15.909 4.54071 15.9277 4.49864 15.9277C4.46127 15.923 4.42387 15.9044 4.38647 15.8716C4.26963 15.7782 4.1528 15.7127 4.03593 15.6753C3.91909 15.6333 3.78824 15.6122 3.64332 15.6122C3.44702 15.6122 3.26474 15.6473 3.09648 15.7174C2.93292 15.7875 2.79035 15.8856 2.66882 16.0118C2.54732 16.1334 2.45148 16.2782 2.38138 16.4465C2.31597 16.6148 2.28323 16.797 2.28323 16.9934C2.28323 17.1897 2.31597 17.3743 2.38138 17.5472C2.45148 17.7155 2.54732 17.8627 2.66882 17.9889C2.79035 18.1151 2.93292 18.2156 3.09648 18.2904C3.26474 18.3605 3.44702 18.3955 3.64332 18.3955C3.7929 18.3955 3.92845 18.3698 4.04995 18.3184C4.17148 18.267 4.27899 18.2086 4.37245 18.1431ZM6.74284 17.9328C6.7849 17.9655 6.83629 18.0099 6.89704 18.066C6.95782 18.1174 7.02793 18.1712 7.1074 18.2273C7.22423 18.3067 7.34107 18.3698 7.45794 18.4165C7.57944 18.4586 7.70332 18.4796 7.82951 18.4796C8.07254 18.4796 8.23614 18.4306 8.32027 18.3324C8.40906 18.2343 8.45347 18.1198 8.45347 17.9889C8.45347 17.9141 8.42543 17.8487 8.36934 17.7926C8.31326 17.7365 8.24546 17.6874 8.16603 17.6454C8.09123 17.5986 8.00944 17.5612 7.92065 17.5332C7.83652 17.5005 7.76172 17.4724 7.69631 17.4491C7.13074 17.2528 6.70778 17.0214 6.42735 16.755C6.15158 16.4886 6.01371 16.1497 6.01371 15.7384C6.01371 15.5188 6.05809 15.3201 6.14692 15.1425C6.23571 14.9649 6.35956 14.813 6.51849 14.6868C6.68205 14.5606 6.87836 14.4648 7.1074 14.3994C7.33641 14.3292 7.59114 14.2942 7.87158 14.2942C8.0819 14.2942 8.28522 14.3176 8.48152 14.3643C8.68248 14.4111 8.87644 14.4882 9.06342 14.5957C9.22232 14.6891 9.36018 14.7849 9.47705 14.8831C9.59389 14.9812 9.65232 15.0631 9.65232 15.1285C9.65232 15.1705 9.62193 15.2266 9.56118 15.2967L9.02135 15.8716C8.98395 15.909 8.94423 15.9277 8.90217 15.9277C8.86943 15.9277 8.83907 15.9184 8.81103 15.8997C8.78764 15.881 8.7596 15.8576 8.7269 15.8296L8.69184 15.8015C8.59835 15.7221 8.48383 15.645 8.34831 15.5702C8.21742 15.4907 8.0772 15.451 7.92766 15.451C7.77339 15.451 7.64022 15.4767 7.52805 15.5281C7.41587 15.5795 7.35979 15.673 7.35979 15.8085C7.35979 15.9394 7.4252 16.0399 7.55609 16.11C7.68695 16.1801 7.8809 16.2572 8.13799 16.3413C8.38568 16.4255 8.61472 16.512 8.82505 16.6007C9.03537 16.6896 9.2153 16.797 9.36488 16.9232C9.51912 17.0448 9.6383 17.192 9.72243 17.3649C9.80656 17.5332 9.84863 17.7388 9.84863 17.9819C9.84863 18.239 9.79485 18.4726 9.68738 18.683C9.58453 18.8886 9.442 19.0662 9.25972 19.2158C9.07744 19.3607 8.86241 19.4752 8.61472 19.5593C8.367 19.6388 8.10059 19.6785 7.81549 19.6785C7.63321 19.6785 7.45324 19.6551 7.27566 19.6084C7.09804 19.5617 6.92508 19.4986 6.75686 19.4191C6.59326 19.3397 6.43902 19.2462 6.29415 19.1387C6.14923 19.0312 6.02072 18.9143 5.90855 18.7881L5.89453 18.7811C5.88983 18.7718 5.88517 18.7671 5.88051 18.7671C5.87581 18.7624 5.87115 18.7578 5.86649 18.7531C5.81506 18.697 5.78937 18.6502 5.78937 18.6128C5.78937 18.5755 5.81506 18.5311 5.86649 18.4796L6.47643 17.8977C6.52315 17.865 6.56287 17.8487 6.59561 17.8487C6.63298 17.8487 6.68205 17.8767 6.74284 17.9328ZM14.8505 14.5606L12.9716 19.4541C12.9388 19.557 12.8687 19.6084 12.7612 19.6084H11.941C11.8381 19.6084 11.7657 19.557 11.7236 19.4541L9.84473 14.5536C9.80267 14.4508 9.83538 14.3994 9.94289 14.3994L11.0646 14.4064C11.1674 14.4064 11.2352 14.4578 11.2679 14.5606L12.3476 17.7014L13.4132 14.5606C13.4459 14.4578 13.516 14.4064 13.6236 14.4064H14.7523C14.8598 14.4064 14.8925 14.4578 14.8505 14.5606Z" fill="black"/>
<path d="M4.37245 18.1431C4.42387 18.1058 4.4706 18.0847 4.51266 18.08C4.55473 18.0754 4.59213 18.0964 4.62484 18.1431L5.19972 18.9844C5.23712 19.0358 5.25115 19.0779 5.24179 19.1106C5.23246 19.1387 5.20207 19.1714 5.15065 19.2088C4.9637 19.3443 4.74402 19.4588 4.49163 19.5523C4.24394 19.6411 3.96116 19.6855 3.64332 19.6855C3.2741 19.6855 2.92591 19.6154 2.59871 19.4752C2.27155 19.335 1.98411 19.1434 1.73638 18.9003C1.49335 18.6526 1.30171 18.3652 1.1615 18.038C1.02128 17.7108 0.951172 17.3626 0.951172 16.9934C0.951172 16.6195 1.02128 16.2712 1.1615 15.9487C1.30171 15.6262 1.49335 15.3435 1.73638 15.1004C1.98411 14.8574 2.27155 14.6681 2.59871 14.5326C2.92591 14.3923 3.2741 14.3222 3.64332 14.3222C3.96116 14.3222 4.24394 14.3713 4.49163 14.4695C4.74402 14.5629 4.96837 14.6775 5.16467 14.813C5.20207 14.8364 5.2231 14.8668 5.22777 14.9041C5.23246 14.9415 5.22777 14.9719 5.21374 14.9953L4.6038 15.8716C4.57576 15.909 4.54071 15.9277 4.49864 15.9277C4.46127 15.923 4.42387 15.9044 4.38647 15.8716C4.26963 15.7782 4.1528 15.7127 4.03593 15.6753C3.91909 15.6333 3.78824 15.6122 3.64332 15.6122C3.44702 15.6122 3.26474 15.6473 3.09648 15.7174C2.93292 15.7875 2.79035 15.8856 2.66882 16.0118C2.54732 16.1334 2.45148 16.2782 2.38138 16.4465C2.31597 16.6148 2.28323 16.797 2.28323 16.9934C2.28323 17.1897 2.31597 17.3743 2.38138 17.5472C2.45148 17.7155 2.54732 17.8627 2.66882 17.9889C2.79035 18.1151 2.93292 18.2156 3.09648 18.2904C3.26474 18.3605 3.44702 18.3955 3.64332 18.3955C3.7929 18.3955 3.92845 18.3698 4.04995 18.3184C4.17148 18.267 4.27899 18.2086 4.37245 18.1431ZM6.74284 17.9328C6.7849 17.9655 6.83629 18.0099 6.89704 18.066C6.95782 18.1174 7.02793 18.1712 7.1074 18.2273C7.22423 18.3067 7.34107 18.3698 7.45794 18.4165C7.57944 18.4586 7.70332 18.4796 7.82951 18.4796C8.07254 18.4796 8.23614 18.4306 8.32027 18.3324C8.40906 18.2343 8.45347 18.1198 8.45347 17.9889C8.45347 17.9141 8.42543 17.8487 8.36934 17.7926C8.31326 17.7365 8.24546 17.6874 8.16603 17.6454C8.09123 17.5986 8.00944 17.5612 7.92065 17.5332C7.83652 17.5005 7.76172 17.4724 7.69631 17.4491C7.13074 17.2528 6.70778 17.0214 6.42735 16.755C6.15158 16.4886 6.01371 16.1497 6.01371 15.7384C6.01371 15.5188 6.05809 15.3201 6.14692 15.1425C6.23571 14.9649 6.35956 14.813 6.51849 14.6868C6.68205 14.5606 6.87836 14.4648 7.1074 14.3994C7.33641 14.3292 7.59114 14.2942 7.87158 14.2942C8.0819 14.2942 8.28522 14.3176 8.48152 14.3643C8.68248 14.4111 8.87644 14.4882 9.06342 14.5957C9.22232 14.6891 9.36018 14.7849 9.47705 14.8831C9.59389 14.9812 9.65232 15.0631 9.65232 15.1285C9.65232 15.1705 9.62193 15.2266 9.56118 15.2967L9.02135 15.8716C8.98395 15.909 8.94423 15.9277 8.90217 15.9277C8.86943 15.9277 8.83907 15.9184 8.81103 15.8997C8.78764 15.881 8.7596 15.8576 8.7269 15.8296L8.69184 15.8015C8.59835 15.7221 8.48383 15.645 8.34831 15.5702C8.21742 15.4907 8.0772 15.451 7.92766 15.451C7.77339 15.451 7.64022 15.4767 7.52805 15.5281C7.41587 15.5795 7.35979 15.673 7.35979 15.8085C7.35979 15.9394 7.4252 16.0399 7.55609 16.11C7.68695 16.1801 7.8809 16.2572 8.13799 16.3413C8.38568 16.4255 8.61472 16.512 8.82505 16.6007C9.03537 16.6896 9.2153 16.797 9.36488 16.9232C9.51912 17.0448 9.6383 17.192 9.72243 17.3649C9.80656 17.5332 9.84863 17.7388 9.84863 17.9819C9.84863 18.239 9.79485 18.4726 9.68738 18.683C9.58453 18.8886 9.442 19.0662 9.25972 19.2158C9.07744 19.3607 8.86241 19.4752 8.61472 19.5593C8.367 19.6388 8.10059 19.6785 7.81549 19.6785C7.63321 19.6785 7.45324 19.6551 7.27566 19.6084C7.09804 19.5617 6.92508 19.4986 6.75686 19.4191C6.59326 19.3397 6.43902 19.2462 6.29414 19.1387C6.14923 19.0312 6.02072 18.9143 5.90855 18.7881L5.89453 18.7811C5.88983 18.7718 5.88517 18.7671 5.88051 18.7671C5.87581 18.7624 5.87115 18.7578 5.86649 18.7531C5.81506 18.697 5.78937 18.6503 5.78937 18.6128C5.78937 18.5755 5.81506 18.5311 5.86649 18.4796L6.47643 17.8977C6.52315 17.865 6.56287 17.8487 6.59561 17.8487C6.63298 17.8487 6.68205 17.8767 6.74284 17.9328ZM14.8505 14.5606L12.9716 19.4541C12.9388 19.557 12.8687 19.6084 12.7612 19.6084H11.941C11.8381 19.6084 11.7657 19.557 11.7236 19.4541L9.84473 14.5536C9.80267 14.4508 9.83538 14.3994 9.94289 14.3994L11.0646 14.4064C11.1674 14.4064 11.2352 14.4578 11.2679 14.5606L12.3476 17.7014L13.4132 14.5606C13.4459 14.4578 13.516 14.4064 13.6236 14.4064H14.7523C14.8598 14.4064 14.8925 14.4578 14.8505 14.5606Z" stroke="black" stroke-width="0.167967"/>
</svg>
