<svg width="44" height="44" viewBox="0 0 44 44" fill="none" xmlns="http://www.w3.org/2000/svg">
<rect width="44" height="44" rx="6" fill="#FFD9D7"/>
<path d="M26.6667 14.9999V14.0666C26.6667 12.7598 26.6667 12.1064 26.4123 11.6073C26.1886 11.1682 25.8317 10.8113 25.3926 10.5876C24.8935 10.3333 24.2401 10.3333 22.9333 10.3333H21.0667C19.7599 10.3333 19.1065 10.3333 18.6074 10.5876C18.1683 10.8113 17.8114 11.1682 17.5877 11.6073C17.3333 12.1064 17.3333 12.7598 17.3333 14.0666V14.9999M19.6667 21.4166V27.2499M24.3333 21.4166V27.2499M11.5 14.9999H32.5M30.1667 14.9999V28.0666C30.1667 30.0268 30.1667 31.0069 29.7852 31.7556C29.4496 32.4141 28.9142 32.9496 28.2556 33.2851C27.5069 33.6666 26.5268 33.6666 24.5667 33.6666H19.4333C17.4731 33.6666 16.4931 33.6666 15.7444 33.2851C15.0858 32.9496 14.5504 32.4141 14.2148 31.7556C13.8333 31.0069 13.8333 30.0268 13.8333 28.0666V14.9999" stroke="#CA0B00" stroke-width="2" stroke-linecap="round" stroke-linejoin="round"/>
</svg>
