<svg width="44" height="44" viewBox="0 0 44 44" fill="none" xmlns="http://www.w3.org/2000/svg">
<rect width="44" height="44" rx="6" fill="#F4FFF2"/>
<path d="M20.833 12.6668H15.933C13.9728 12.6668 12.9927 12.6668 12.244 13.0482C11.5855 13.3838 11.05 13.9192 10.7145 14.5778C10.333 15.3265 10.333 16.3066 10.333 18.2668V28.0668C10.333 30.027 10.333 31.007 10.7145 31.7557C11.05 32.4143 11.5855 32.9497 12.244 33.2853C12.9927 33.6668 13.9728 33.6668 15.933 33.6668H25.733C27.6932 33.6668 28.6733 33.6668 29.422 33.2853C30.0805 32.9497 30.616 32.4143 30.9515 31.7557C31.333 31.007 31.333 30.027 31.333 28.0668V23.1668M17.333 26.6668H19.2866C19.8573 26.6668 20.1427 26.6668 20.4112 26.6023C20.6493 26.5451 20.8769 26.4509 21.0857 26.3229C21.3211 26.1786 21.5229 25.9769 21.9265 25.5733L33.083 14.4168C34.0495 13.4503 34.0495 11.8833 33.083 10.9168C32.1165 9.95027 30.5495 9.95027 29.583 10.9168L18.4264 22.0733C18.0229 22.4769 17.8211 22.6786 17.6768 22.9141C17.5489 23.1229 17.4546 23.3505 17.3974 23.5886C17.333 23.8571 17.333 24.1425 17.333 24.7132V26.6668Z" stroke="#5AA469" stroke-width="2" stroke-linecap="round" stroke-linejoin="round"/>
</svg>
