<svg width="42" height="42" viewBox="0 0 42 42" fill="none" xmlns="http://www.w3.org/2000/svg">
<path d="M36.75 17.0625C36.4019 17.0625 36.0681 17.2008 35.8219 17.4469C35.5758 17.6931 35.4375 18.0269 35.4375 18.375V28.875C35.4375 29.2231 35.2992 29.5569 35.0531 29.8031C34.8069 30.0492 34.4731 30.1875 34.125 30.1875H7.875C7.5269 30.1875 7.19306 30.0492 6.94692 29.8031C6.70078 29.5569 6.5625 29.2231 6.5625 28.875V18.375C6.5625 18.0269 6.42422 17.6931 6.17808 17.4469C5.93194 17.2008 5.5981 17.0625 5.25 17.0625C4.9019 17.0625 4.56806 17.2008 4.32192 17.4469C4.07578 17.6931 3.9375 18.0269 3.9375 18.375V28.875C3.93842 29.9189 4.35386 30.9198 5.0925 31.6575C5.83022 32.3961 6.83106 32.8116 7.875 32.8125H34.125C35.1689 32.8116 36.1698 32.3961 36.9075 31.6575C37.6461 30.9198 38.0616 29.9189 38.0625 28.875V18.375C38.0625 18.0269 37.9242 17.6931 37.6781 17.4469C37.4319 17.2008 37.0981 17.0625 36.75 17.0625Z" fill="#424242"/>
<path d="M20.2123 24.675C20.4395 24.8454 20.7159 24.9375 20.9998 24.9375C21.2838 24.9375 21.5602 24.8454 21.7873 24.675L37.288 13.0462C37.5298 12.8639 37.7011 12.6035 37.7729 12.3093C37.8446 12.0151 37.8124 11.7051 37.6817 11.4319C37.4863 11.028 37.2245 10.6598 36.9073 10.3425C36.1696 9.60386 35.1688 9.18842 34.1248 9.1875H7.87485C6.83091 9.18842 5.83006 9.60386 5.09235 10.3425C4.77519 10.6598 4.51344 11.028 4.31797 11.4319C4.18727 11.7051 4.15507 12.0151 4.22683 12.3093C4.2986 12.6035 4.46991 12.8639 4.71172 13.0462L20.2123 24.675ZM7.87485 11.8125H34.1248C34.2466 11.7933 34.3706 11.7933 34.4923 11.8125L20.9998 21.9844L7.50735 11.8125C7.6291 11.7933 7.7531 11.7933 7.87485 11.8125Z" fill="#424242"/>
</svg>
