<svg width="22" height="28" viewBox="0 0 22 28" fill="none" xmlns="http://www.w3.org/2000/svg">
<path d="M15.1562 1.28125V6.09375C15.1562 6.66331 15.6179 7.125 16.1875 7.125H21" stroke="black" stroke-width="1.2"/>
<path d="M1.0625 10.7344V4.03125C1.0625 2.32261 2.44761 0.9375 4.15625 0.9375H14.4957C15.1256 0.9375 15.7303 1.18445 16.1801 1.62538L19.2987 4.68228L20.3553 5.81762C20.7697 6.26291 21 6.84859 21 7.45686V23.9688C21 25.6774 19.6149 27.0625 17.9062 27.0625H4.15625C2.44761 27.0625 1.0625 25.6774 1.0625 23.9688V22.9375" stroke="black" stroke-width="1.2" stroke-linecap="round"/>
<path d="M4.82367 14.5498L3.25617 16.8942L4.8993 19.3486C4.9268 19.3944 4.93137 19.4311 4.91305 19.4586C4.8993 19.4861 4.86719 19.4998 4.8168 19.4998H3.64117C3.55867 19.4998 3.48762 19.4494 3.42805 19.3486L2.51367 17.9873L1.5993 19.3486C1.55805 19.4128 1.52367 19.454 1.49617 19.4723C1.46867 19.4907 1.42969 19.4998 1.3793 19.4998H0.217422C0.166994 19.4998 0.132619 19.4884 0.114297 19.4655C0.100547 19.438 0.107421 19.399 0.134921 19.3486L1.77805 16.8942L0.224297 14.5498C0.196797 14.5086 0.187618 14.4742 0.196796 14.4467C0.20594 14.4146 0.235744 14.3986 0.286172 14.3986H1.47555C1.52594 14.3986 1.56492 14.4101 1.59242 14.433C1.61992 14.4559 1.65199 14.4948 1.68867 14.5498L2.52055 15.7873L3.34555 14.5498C3.37762 14.4994 3.40969 14.4628 3.4418 14.4398C3.47387 14.4123 3.51512 14.3986 3.56555 14.3986H4.74117C4.79157 14.3986 4.82367 14.4146 4.83742 14.4467C4.85117 14.4788 4.84657 14.5132 4.82367 14.5498ZM5.5769 19.3486V14.5498C5.5769 14.4994 5.59065 14.4628 5.61815 14.4398C5.65025 14.4123 5.68463 14.3986 5.72127 14.3986H6.75252C6.84877 14.3986 6.8969 14.449 6.8969 14.5498V18.2829H8.80815C8.9044 18.2829 8.95252 18.3334 8.95252 18.4342V19.3486C8.95252 19.4494 8.9044 19.4998 8.80815 19.4998H5.72127C5.62502 19.4998 5.5769 19.4494 5.5769 19.3486ZM10.352 17.8567C10.3933 17.8888 10.4437 17.9323 10.5033 17.9873C10.5629 18.0378 10.6316 18.0904 10.7095 18.1454C10.8241 18.2234 10.9387 18.2853 11.0533 18.3311C11.1724 18.3723 11.2939 18.3929 11.4177 18.3929C11.656 18.3929 11.8164 18.3448 11.8989 18.2486C11.986 18.1523 12.0295 18.0401 12.0295 17.9117C12.0295 17.8384 12.002 17.7742 11.947 17.7192C11.892 17.6642 11.8255 17.6161 11.7477 17.5748C11.6743 17.529 11.5941 17.4923 11.507 17.4648C11.4245 17.4328 11.3512 17.4053 11.287 17.3823C10.7324 17.1898 10.3177 16.963 10.0427 16.7017C9.77223 16.4405 9.63703 16.1082 9.63703 15.7048C9.63703 15.4894 9.68055 15.2946 9.76766 15.1205C9.85473 14.9463 9.97618 14.7973 10.132 14.6736C10.2924 14.5498 10.4849 14.4559 10.7095 14.3917C10.9341 14.323 11.1839 14.2886 11.4589 14.2886C11.6652 14.2886 11.8645 14.3115 12.057 14.3573C12.2541 14.4032 12.4443 14.4788 12.6277 14.5842C12.7835 14.6759 12.9187 14.7698 13.0333 14.8661C13.1479 14.9623 13.2052 15.0426 13.2052 15.1067C13.2052 15.148 13.1754 15.2029 13.1158 15.2717L12.5864 15.8354C12.5497 15.8721 12.5108 15.8905 12.4695 15.8905C12.4374 15.8905 12.4077 15.8813 12.3802 15.8629C12.3572 15.8446 12.3297 15.8217 12.2977 15.7942L12.2633 15.7667C12.1716 15.6888 12.0593 15.6132 11.9264 15.5398C11.7981 15.4619 11.6605 15.423 11.5139 15.423C11.3627 15.423 11.232 15.4482 11.122 15.4986C11.012 15.549 10.957 15.6407 10.957 15.7736C10.957 15.9019 11.0212 16.0004 11.1495 16.0692C11.2779 16.1379 11.4681 16.2136 11.7202 16.2961C11.9631 16.3786 12.1877 16.4634 12.3939 16.5504C12.6002 16.6376 12.7766 16.7429 12.9233 16.8667C13.0745 16.9859 13.1914 17.1303 13.2739 17.2998C13.3564 17.4648 13.3977 17.6665 13.3977 17.9048C13.3977 18.1569 13.3449 18.3861 13.2395 18.5923C13.1387 18.794 12.9989 18.9682 12.8202 19.1148C12.6414 19.2569 12.4306 19.3692 12.1877 19.4517C11.9447 19.5296 11.6835 19.5686 11.4039 19.5686C11.2252 19.5686 11.0487 19.5457 10.8745 19.4998C10.7004 19.454 10.5308 19.3921 10.3658 19.3142C10.2054 19.2363 10.0541 19.1446 9.91203 19.0392C9.76993 18.9338 9.64391 18.8192 9.53391 18.6954L9.52016 18.6886C9.51555 18.6794 9.51098 18.6748 9.50641 18.6748C9.5018 18.6703 9.49723 18.6657 9.49266 18.6611C9.44223 18.6061 9.41703 18.5603 9.41703 18.5236C9.41703 18.4869 9.44223 18.4434 9.49266 18.3929L10.0908 17.8223C10.1366 17.7903 10.1756 17.7742 10.2077 17.7742C10.2443 17.7742 10.2924 17.8017 10.352 17.8567Z" fill="black"/>
<path fill-rule="evenodd" clip-rule="evenodd" d="M11.459 14.3745C11.1911 14.3745 10.9499 14.408 10.7348 14.4739L10.7332 14.4744C10.5178 14.5359 10.3356 14.6253 10.1851 14.7413C10.0391 14.8573 9.92587 14.9964 9.84461 15.1589C9.76411 15.3199 9.72306 15.5013 9.72306 15.7048C9.72306 16.0866 9.85001 16.3959 10.1022 16.6397C10.3648 16.889 10.7668 17.1108 11.3153 17.3012L11.316 17.3014C11.3805 17.3244 11.4537 17.3519 11.5357 17.3837C11.6273 17.4129 11.7123 17.4517 11.7907 17.5003C11.874 17.5448 11.9467 17.5973 12.0079 17.6585C12.0779 17.7285 12.1156 17.8141 12.1156 17.9117C12.1156 18.0613 12.0642 18.1937 11.9635 18.3054C11.8548 18.4313 11.6603 18.4789 11.4177 18.4789C11.2842 18.4789 11.1533 18.4566 11.0253 18.4123L11.0214 18.411C10.9004 18.3626 10.7804 18.2975 10.6613 18.2165L10.6601 18.2157C10.5805 18.1595 10.5097 18.1053 10.4479 18.0529L10.445 18.0505C10.3864 17.9964 10.338 17.9546 10.2994 17.9246L10.2965 17.9223L10.2938 17.9198C10.2668 17.8949 10.2452 17.8789 10.2287 17.8695C10.2145 17.8613 10.2078 17.8603 10.2073 17.8602C10.2013 17.8603 10.1818 17.8645 10.1453 17.8892L9.5528 18.4544C9.53128 18.476 9.51798 18.4934 9.51038 18.5065C9.5042 18.5172 9.5032 18.5226 9.50306 18.5236C9.5032 18.5247 9.5042 18.5311 9.51131 18.5441C9.51939 18.5587 9.53321 18.5779 9.55487 18.6017L9.55682 18.6036C9.56408 18.6082 9.56985 18.6132 9.57412 18.6175C9.57535 18.6187 9.57652 18.62 9.57766 18.6212L9.58721 18.626L9.59821 18.6384C9.70405 18.7574 9.82564 18.868 9.96331 18.9702C10.1009 19.0723 10.2475 19.1612 10.403 19.2367C10.5632 19.3123 10.7276 19.3723 10.8965 19.4167C11.0635 19.4607 11.2327 19.4826 11.404 19.4826C11.6753 19.4826 11.9273 19.4449 12.1608 19.3701C12.395 19.2905 12.5964 19.1829 12.7662 19.048C12.9356 18.9089 13.0675 18.7443 13.1628 18.5539L13.1631 18.5532C13.2618 18.3601 13.3118 18.1446 13.3118 17.9048C13.3118 17.6761 13.2722 17.4884 13.1971 17.3383L13.1967 17.3374C13.12 17.1798 13.0115 17.0455 12.8702 16.9342L12.8679 16.9324C12.7288 16.8151 12.5601 16.7139 12.3606 16.6296C12.1566 16.5435 11.9341 16.4595 11.693 16.3776C11.4396 16.2947 11.244 16.2173 11.109 16.145C11.0351 16.1054 10.9749 16.0546 10.9332 15.9907C10.8912 15.9261 10.8712 15.8528 10.8712 15.7736C10.8712 15.6953 10.8874 15.623 10.9247 15.5609C10.9622 15.4983 11.0177 15.4519 11.0863 15.4205C11.21 15.3638 11.3534 15.337 11.514 15.337C11.6762 15.337 11.8285 15.3802 11.9695 15.4654C12.1051 15.5403 12.2216 15.6185 12.318 15.7004L12.3537 15.7289C12.3838 15.7547 12.4093 15.7761 12.4306 15.7932C12.4435 15.8012 12.456 15.8045 12.4696 15.8045C12.4824 15.8045 12.5004 15.7997 12.5249 15.7756L13.052 15.2142C13.0788 15.1832 13.0966 15.1578 13.1073 15.138C13.1127 15.128 13.1158 15.1204 13.1176 15.1148C13.1184 15.1121 13.1188 15.1101 13.1191 15.1087C13.1193 15.1073 13.1193 15.1067 13.1193 15.1067C13.1193 15.0998 13.1158 15.0812 13.0923 15.0484C13.0695 15.0164 13.0324 14.9775 12.9781 14.9319C12.8679 14.8394 12.7369 14.7482 12.5845 14.6585C12.4083 14.5572 12.226 14.4849 12.0376 14.441L12.0372 14.4409C11.8515 14.3967 11.6588 14.3745 11.459 14.3745ZM10.6852 14.3093C10.919 14.2378 11.1772 14.2026 11.459 14.2026C11.6716 14.2026 11.8776 14.2263 12.0768 14.2737C12.2824 14.3215 12.4803 14.4003 12.6706 14.5097L12.6713 14.5101C12.8305 14.6038 12.9697 14.7004 13.0886 14.8003C13.1489 14.8509 13.1978 14.9003 13.2322 14.9485C13.266 14.9958 13.2912 15.0494 13.2912 15.1067C13.2912 15.1472 13.2769 15.1857 13.2585 15.2198C13.2396 15.2547 13.213 15.2908 13.1808 15.328L13.1786 15.3306L12.6473 15.8963C12.5989 15.9447 12.5392 15.9764 12.4696 15.9764C12.42 15.9764 12.3737 15.9619 12.3326 15.9345L12.3295 15.9324L12.3266 15.9301C12.3029 15.9111 12.275 15.8879 12.2429 15.8604L12.2077 15.8322C12.1213 15.7588 12.0141 15.6863 11.885 15.6151L11.8818 15.6134C11.7666 15.5434 11.6446 15.5089 11.514 15.5089C11.3721 15.5089 11.2542 15.5326 11.1579 15.5767C11.1165 15.5957 11.0895 15.6203 11.072 15.6494C11.0543 15.6789 11.0431 15.719 11.0431 15.7736C11.0431 15.8227 11.0551 15.8628 11.0773 15.8968C11.0998 15.9315 11.1358 15.9643 11.1902 15.9935C11.3119 16.0586 11.4965 16.1324 11.747 16.2144L11.7479 16.2147C11.9925 16.2978 12.219 16.3833 12.4274 16.4713C12.6399 16.561 12.8237 16.6704 12.9777 16.8001C13.1382 16.9269 13.263 17.0809 13.3511 17.2618C13.4409 17.4416 13.4837 17.6571 13.4837 17.9048C13.4837 18.1692 13.4283 18.4119 13.3163 18.6312C13.3162 18.6313 13.3163 18.6311 13.3163 18.6312L13.2397 18.5924L13.3165 18.6308C13.3164 18.6309 13.3163 18.631 13.3163 18.6312C13.2099 18.8437 13.0625 19.0272 12.8747 19.1813L12.8737 19.1821C12.6863 19.3311 12.4665 19.4478 12.2154 19.5331L12.214 19.5335C11.9618 19.6144 11.6916 19.6545 11.404 19.6545C11.2178 19.6545 11.034 19.6307 10.8527 19.5829C10.6734 19.5357 10.4989 19.472 10.3292 19.3919L10.3283 19.3915C10.1631 19.3113 10.0073 19.2169 9.86091 19.1082C9.71914 19.0031 9.5924 18.8887 9.48089 18.765L9.49557 18.7723L9.50134 18.7608H9.5065C9.50475 18.7608 9.50299 18.7609 9.50134 18.7608L9.534 18.6954L9.47041 18.752C9.46195 18.7476 9.456 18.7424 9.4526 18.739C9.45057 18.737 9.44899 18.7352 9.44772 18.7336C9.44665 18.7322 9.44586 18.7311 9.44531 18.7302C9.44466 18.7293 9.44418 18.7285 9.44387 18.7279C9.44356 18.7274 9.44342 18.7271 9.44339 18.727L9.44961 18.7395L9.42933 18.7192C9.37715 18.6623 9.33119 18.5952 9.33119 18.5236C9.33119 18.4504 9.37883 18.3853 9.43197 18.3322L9.43338 18.3308L10.0363 17.7557L10.0416 17.7519C10.0924 17.7164 10.1492 17.6883 10.2078 17.6883C10.2468 17.6883 10.283 17.7026 10.314 17.7202C10.3447 17.7378 10.376 17.7621 10.4077 17.7911C10.4067 17.7904 10.4058 17.7896 10.4049 17.7889L10.3521 17.8567L10.4104 17.7936C10.4095 17.7927 10.4086 17.7919 10.4077 17.7911C10.4507 17.8247 10.5017 17.8688 10.5603 17.9229C10.5598 17.9225 10.5593 17.9221 10.5589 17.9217L10.5034 17.9873L10.5616 17.9242C10.5612 17.9238 10.5607 17.9234 10.5603 17.9229C10.6171 17.9709 10.6831 18.0216 10.7585 18.0748C10.7583 18.0747 10.7581 18.0745 10.7579 18.0744L10.7096 18.1454L10.7592 18.0753C10.759 18.0751 10.7587 18.0749 10.7585 18.0748C10.8677 18.149 10.976 18.2074 11.0834 18.2505C11.0828 18.2503 11.0821 18.2501 11.0815 18.2499L11.0534 18.3311L11.0853 18.2513C11.0847 18.251 11.084 18.2508 11.0834 18.2505C11.1931 18.2883 11.3044 18.307 11.4177 18.307C11.6512 18.307 11.7772 18.2586 11.8338 18.1926L11.8352 18.1909C11.9082 18.1102 11.9437 18.0185 11.9437 17.9117C11.9437 17.8626 11.9263 17.82 11.8864 17.78C11.8382 17.7318 11.7789 17.6886 11.7075 17.6508L11.7048 17.6493L11.7022 17.6477C11.6353 17.6059 11.5618 17.5722 11.4812 17.5468L11.4786 17.546L11.476 17.5449C11.3942 17.5131 11.3217 17.486 11.2586 17.4634C11.2587 17.4634 11.2588 17.4635 11.2589 17.4635L11.2871 17.3823L11.2582 17.4633C11.2583 17.4633 11.2585 17.4633 11.2586 17.4634C10.6983 17.2689 10.2709 17.037 9.98355 16.764L9.98304 16.7635C9.69453 16.4848 9.55119 16.1296 9.55119 15.7048C9.55119 15.4775 9.59721 15.2694 9.69089 15.082C9.7837 14.8964 9.91323 14.7376 10.0787 14.6063L10.0796 14.6055C10.2497 14.4743 10.4521 14.376 10.6852 14.3093ZM10.6852 14.3093C10.685 14.3094 10.6847 14.3095 10.6845 14.3095L10.7096 14.3917L10.686 14.3091C10.6857 14.3092 10.6855 14.3092 10.6852 14.3093ZM9.46934 18.7592L9.45617 18.7527L9.44961 18.7395L9.46934 18.7592ZM9.47243 18.7608L9.48089 18.765C9.47962 18.7636 9.47835 18.7622 9.47711 18.7608H9.47243ZM9.47243 18.7608L9.46934 18.7592L9.47089 18.7608H9.47243ZM0.28544 14.4845C0.285715 14.4845 0.285991 14.4845 0.286266 14.4845H1.47564C1.51404 14.4845 1.53068 14.4933 1.53748 14.499C1.55539 14.5139 1.582 14.5446 1.61726 14.5975L2.52091 15.9418L3.41714 14.5975L3.41814 14.596C3.44705 14.5505 3.47211 14.5238 3.49184 14.5098L3.49493 14.5076L3.49782 14.5051C3.51143 14.4934 3.53157 14.4845 3.56564 14.4845H4.74127C4.74931 14.4845 4.75512 14.4852 4.75907 14.4859C4.75859 14.4887 4.75694 14.4944 4.75147 14.5033L3.15287 16.8942L4.82669 19.3945C4.83126 19.4023 4.83404 19.4083 4.83573 19.4127C4.83105 19.4134 4.82486 19.4139 4.81689 19.4139H3.64127C3.60101 19.4139 3.5534 19.3917 3.50212 19.3049L3.50084 19.3027L2.51377 17.8332L1.52803 19.3007L1.5271 19.3021C1.48599 19.366 1.45983 19.3934 1.44859 19.4008C1.44082 19.406 1.42112 19.4139 1.37939 19.4139H0.217516C0.210366 19.4139 0.204316 19.4136 0.199228 19.4131C0.201497 19.4075 0.20459 19.4008 0.208715 19.393L1.8814 16.8944L0.296027 14.5024C0.291387 14.4954 0.28788 14.4894 0.28544 14.4845ZM0.18534 14.3349C0.217412 14.3177 0.253266 14.3126 0.286266 14.3126H1.47564C1.53807 14.3126 1.59932 14.3268 1.64752 14.367C1.68461 14.3979 1.72211 14.445 1.76016 14.502C1.76013 14.502 1.7602 14.5021 1.76016 14.502L2.52033 15.6328L3.27362 14.5029C3.30797 14.4491 3.34592 14.4036 3.38892 14.3721C3.43893 14.3305 3.50016 14.3126 3.56564 14.3126H4.74127C4.80823 14.3126 4.88334 14.3355 4.91651 14.4129C4.94401 14.4771 4.93043 14.5413 4.89664 14.5954L4.89523 14.5976L3.35967 16.8942L4.97316 19.3043C5.00554 19.3583 5.03012 19.4332 4.98749 19.5018C4.9504 19.5701 4.87612 19.5858 4.81689 19.5858H3.64127C3.51731 19.5858 3.42322 19.5082 3.35547 19.3945L2.51377 18.1415L1.6712 19.3958C1.62992 19.4599 1.58753 19.5148 1.54391 19.5439C1.49671 19.5753 1.43845 19.5858 1.37939 19.5858H0.217516C0.159112 19.5858 0.090603 19.5733 0.0472561 19.5191L0.0415834 19.512L0.0375275 19.5039C0.00349629 19.4359 0.0297252 19.3622 0.0595627 19.3074L0.0614182 19.304L1.67488 16.894L0.152891 14.5975C0.152856 14.5975 0.152891 14.5975 0.152891 14.5975C0.121163 14.5499 0.0938341 14.4867 0.114768 14.4213C0.126078 14.3835 0.150931 14.3535 0.18534 14.3349ZM5.72137 14.4845C5.7083 14.4845 5.69321 14.4888 5.67417 14.5051L5.67327 14.5059C5.67224 14.5067 5.66293 14.5144 5.66293 14.5498V19.3486C5.66293 19.3867 5.67211 19.3994 5.67527 19.4027C5.67767 19.4053 5.68754 19.4139 5.72137 19.4139H8.80824C8.84207 19.4139 8.85193 19.4053 8.85437 19.4027C8.8575 19.3994 8.86668 19.3867 8.86668 19.3486V18.4342C8.86668 18.3961 8.8575 18.3834 8.85437 18.3801C8.85193 18.3775 8.84207 18.3689 8.80824 18.3689H6.81105V14.5498C6.81105 14.5117 6.80187 14.4991 6.79875 14.4958C6.79631 14.4932 6.78644 14.4845 6.75262 14.4845H5.72137ZM5.56272 14.3742C5.60779 14.3358 5.66128 14.3126 5.72137 14.3126H6.75262C6.81504 14.3126 6.87736 14.3292 6.92308 14.3771C6.96804 14.4242 6.98293 14.4872 6.98293 14.5498V18.197H8.80824C8.87067 18.197 8.93299 18.2136 8.97871 18.2614C9.02367 18.3086 9.03855 18.3715 9.03855 18.4342V19.3486C9.03855 19.4113 9.02367 19.4742 8.97871 19.5214C8.93299 19.5692 8.87067 19.5858 8.80824 19.5858H5.72137C5.65894 19.5858 5.59662 19.5692 5.55093 19.5214C5.50594 19.4742 5.49105 19.4113 5.49105 19.3486V14.5498C5.49105 14.485 5.50896 14.4193 5.56272 14.3742Z" fill="black"/>
</svg>
