<svg width="56" height="56" viewBox="0 0 56 56" fill="none" xmlns="http://www.w3.org/2000/svg">
<path d="M27.7491 53.9996C32.8618 54 37.826 52.2797 41.8422 49.1157C45.8583 45.9518 48.6929 41.5283 49.8894 36.5575C51.0858 31.5867 50.5746 26.3579 48.438 21.713C46.3015 17.0681 42.6639 13.2773 38.1109 10.9512C37.869 11.7624 37.557 12.551 37.1785 13.3082C40.0115 14.8027 42.4507 16.9465 44.2963 19.5644L44.5744 19.9578H39.1279L39.0675 19.7952C38.4119 17.9916 37.524 16.2812 36.4261 14.7072C35.9912 15.4551 35.4872 16.2359 34.9141 17.0497C35.4135 17.8708 35.8539 18.7262 36.2321 19.6096L36.3824 19.9578H32.6853C32.127 20.636 31.5287 21.3328 30.8903 22.0482C30.7516 22.201 30.6018 22.3432 30.4421 22.4739H37.2599L37.3115 22.6547C37.9602 24.9541 38.3392 27.3211 38.4408 29.708L38.4527 29.9689H29.0072V23.26C28.1887 23.5206 27.3095 23.5206 26.491 23.26V29.9689H17.0453L17.0573 29.708C17.1589 27.3211 17.5378 24.9541 18.1866 22.6547L18.2382 22.4739H25.056C24.8963 22.3433 24.7464 22.201 24.6077 22.0483C23.9691 21.3328 23.3708 20.636 22.8127 19.9578H19.1158L19.266 19.6096C19.6443 18.7262 20.0847 17.8708 20.584 17.0498C20.0104 16.2358 19.5064 15.4549 19.0721 14.7072C17.9742 16.2812 17.0863 17.9916 16.4307 19.7952L16.3703 19.9578H10.9237L11.2018 19.5644C13.0475 16.9466 15.4866 14.8027 18.3197 13.3082C17.9412 12.5511 17.6292 11.7624 17.3873 10.9512C12.8343 13.2774 9.19674 17.0681 7.06017 21.713C4.9236 26.3579 4.4124 31.5867 5.60888 36.5575C6.80535 41.5283 9.63988 45.9518 13.6561 49.1157C17.6722 52.2797 22.6363 53.9999 27.7491 53.9996ZM46.0121 22.4739L46.0795 22.6168C47.1302 24.8438 47.7617 27.2452 47.9424 29.7009L47.9626 29.9689H40.9715L40.962 29.7295C40.8765 27.3871 40.5504 25.0597 39.9888 22.784L39.9109 22.4739H46.0121ZM39.9888 39.6698C40.5504 37.3941 40.8765 35.0668 40.962 32.7245L40.9715 32.485H47.9626L47.9424 32.7531C47.7616 35.2087 47.1301 37.6101 46.0795 39.837L46.0121 39.9799H39.9109L39.9888 39.6698ZM39.0675 42.6586L39.1279 42.4961H44.5744L44.2963 42.8894C41.998 46.152 38.7879 48.6636 35.0682 50.1097L34.8001 49.7023C36.5351 47.9406 38.0107 45.5051 39.0675 42.6586ZM29.0072 32.485H38.4528L38.4409 32.7459C38.3393 35.1328 37.9603 37.4998 37.3116 39.7991L37.26 39.9799H29.0072V32.485ZM29.0072 42.4961H36.3827L36.2324 42.8442C34.504 46.8533 32.05 49.4725 29.3224 50.2193L29.0072 50.3056V42.4961ZM26.491 50.3056L26.1758 50.2193C23.4484 49.4725 20.9942 46.8533 19.2658 42.8442L19.1155 42.4961H26.491V50.3056ZM26.491 32.485V39.98H18.2383L18.1866 39.7991C17.5379 37.4998 17.1589 35.1328 17.0574 32.7459L17.0454 32.4851L26.491 32.485ZM7.5558 29.7009C7.73651 27.2452 8.36801 24.8438 9.41868 22.6168L9.48611 22.4739H15.5873L15.5093 22.784C14.9478 25.0597 14.6217 27.3871 14.5362 29.7295L14.5267 29.9689H7.53556L7.5558 29.7009ZM9.41868 39.837C8.36803 37.6101 7.73653 35.2087 7.5558 32.7531L7.53556 32.485H14.5267L14.5362 32.7245C14.6217 35.0668 14.9478 37.3941 15.5093 39.6698L15.5873 39.9799H9.48611L9.41868 39.837ZM10.9237 42.4961H16.3703L16.4307 42.6586C17.4875 45.5051 18.9631 47.9406 20.6981 49.7021L20.4299 50.1096C16.7103 48.6635 13.5002 46.1518 11.2018 42.8893L10.9237 42.4961Z" fill="#E31736"/>
<path d="M28.0979 19.5565L28.0976 19.5568C28.0538 19.606 28.0001 19.6453 27.94 19.6722C27.8799 19.6992 27.8148 19.7131 27.749 19.7131C27.6831 19.7131 27.618 19.6992 27.5579 19.6722C27.4978 19.6453 27.4441 19.606 27.4003 19.5568L27.4 19.5565C26.389 18.4237 24.7115 16.4549 23.291 14.3644C22.5807 13.3189 21.9451 12.2583 21.4896 11.2679C21.0284 10.2651 20.7812 9.39653 20.7812 8.71772C20.7812 6.86977 21.5153 5.0975 22.822 3.7908C24.1288 2.4841 25.901 1.75 27.749 1.75C29.5969 1.75 31.3692 2.4841 32.6759 3.7908C33.9826 5.0975 34.7167 6.86977 34.7167 8.71772C34.7167 9.39653 34.4695 10.2651 34.0083 11.2679C33.5528 12.2583 32.9173 13.3189 32.2069 14.3644C30.7865 16.4549 29.1089 18.4237 28.0979 19.5565ZM23.9506 6.009C23.4486 6.76026 23.1807 7.64349 23.1807 8.54701C23.1807 9.75857 23.662 10.9205 24.5187 11.7772C25.3755 12.6339 26.5374 13.1152 27.749 13.1152C28.6525 13.1152 29.5357 12.8473 30.287 12.3453C31.0382 11.8433 31.6237 11.1299 31.9695 10.2951C32.3153 9.46038 32.4057 8.54185 32.2294 7.6557C32.0532 6.76954 31.6181 5.95556 30.9792 5.31668C30.3403 4.6778 29.5263 4.24272 28.6402 4.06646C27.754 3.8902 26.8355 3.98067 26.0007 4.32644C25.166 4.67221 24.4525 5.25775 23.9506 6.009Z" stroke="#E31736" stroke-width="1.5"/>
</svg>
