<svg width="56" height="56" viewBox="0 0 56 56" fill="none" xmlns="http://www.w3.org/2000/svg">
<path d="M47.6002 13.314H38.9902C39.9002 12.5424 40.5176 11.4818 40.7393 10.3096C40.961 9.13736 40.7735 7.92454 40.2082 6.87396C39.8976 6.29089 39.4719 5.77686 38.957 5.36298C38.442 4.94909 37.8485 4.64394 37.2122 4.46596C36.6007 4.30014 35.9615 4.26305 35.3349 4.35703C34.7084 4.45102 34.1081 4.67403 33.5722 5.01196C31.1455 6.70698 29.2129 9.01647 27.9722 11.704C26.7344 9.01465 24.8012 6.70447 22.3722 5.01196C21.8391 4.67359 21.2412 4.45025 20.6169 4.35623C19.9925 4.26221 19.3553 4.29959 18.7462 4.46596C18.1069 4.637 17.5102 4.93949 16.9944 5.35411C16.4785 5.76872 16.0548 6.28636 15.7502 6.87396C15.1849 7.92454 14.9974 9.13736 15.2191 10.3096C15.4409 11.4818 16.0583 12.5424 16.9682 13.314H8.56822C7.60283 13.314 6.67699 13.6975 5.99435 14.3801C5.31172 15.0627 4.92822 15.9886 4.92822 16.954V25.97C4.93444 26.7845 5.2137 27.5735 5.72133 28.2105C6.22896 28.8476 6.93562 29.296 7.72822 29.484V48.048C7.72822 49.0134 8.11172 49.9392 8.79435 50.6218C9.47699 51.3045 10.4028 51.688 11.3682 51.688H43.5682C44.8455 51.688 46.0705 51.1806 46.9736 50.2774C47.8768 49.3742 48.3842 48.1492 48.3842 46.872V29.484C49.1768 29.296 49.8835 28.8476 50.3911 28.2105C50.8987 27.5735 51.178 26.7845 51.1842 25.97V16.954C51.1807 15.9993 50.8038 15.0839 50.134 14.4036C49.4642 13.7234 48.5547 13.3322 47.6002 13.314ZM24.8222 27.146V15.75H25.7742C26.3202 15.75 26.7822 15.75 27.1742 15.75H28.8402C29.2182 15.75 29.6802 15.75 30.2402 15.75H31.4162V27.16L24.8222 27.146ZM34.8322 6.99996C35.0912 6.84057 35.3796 6.73489 35.6802 6.68919C35.9808 6.64349 36.2876 6.65872 36.5822 6.73396C36.9066 6.8217 37.2089 6.97675 37.4694 7.18901C37.7299 7.40127 37.9428 7.666 38.0942 7.96596C38.4253 8.57753 38.517 9.29044 38.3514 9.96587C38.1857 10.6413 37.7747 11.2309 37.1982 11.62C35.3957 12.6365 33.3728 13.1988 31.3042 13.258H29.9042C30.9586 10.7693 32.6602 8.6085 34.8322 6.99996ZM18.8022 11.676C18.2258 11.2869 17.8147 10.6973 17.6491 10.0219C17.4835 9.34644 17.5751 8.63353 17.9062 8.02196C18.0569 7.72397 18.2678 7.46057 18.5257 7.24847C18.7836 7.03638 19.0828 6.88024 19.4042 6.78996C19.5951 6.7703 19.7874 6.7703 19.9782 6.78996C20.3938 6.79071 20.801 6.90704 21.1542 7.12596C23.3392 8.7246 25.0476 10.888 26.0962 13.384H24.6962C22.6224 13.2995 20.5999 12.7134 18.8022 11.676ZM7.42022 16.954C7.42021 16.7928 7.45217 16.6333 7.51426 16.4846C7.57634 16.3359 7.66731 16.201 7.7819 16.0877C7.89649 15.9744 8.03242 15.885 8.18181 15.8246C8.33121 15.7642 8.4911 15.7341 8.65222 15.736H22.4002V27.146H8.40022C8.12188 27.0973 7.86911 26.9534 7.68522 26.7388C7.50132 26.5243 7.39774 26.2525 7.39222 25.97L7.42022 16.954ZM11.3962 49.28C11.2339 49.2818 11.0729 49.2513 10.9225 49.19C10.7722 49.1288 10.6357 49.0381 10.5209 48.9233C10.4061 48.8085 10.3154 48.672 10.2542 48.5216C10.1929 48.3713 10.1623 48.2103 10.1642 48.048V29.61H22.4002V49.28H11.3962ZM24.8222 49.28V29.61H31.4022V49.28H24.8222ZM43.6522 49.28H33.8522V29.61H46.0602V46.872C46.0602 47.5106 45.8065 48.1231 45.3549 48.5747C44.9033 49.0263 44.2909 49.28 43.6522 49.28ZM48.8042 25.97C48.7987 26.2525 48.6951 26.5243 48.5112 26.7388C48.3273 26.9534 48.0746 27.0973 47.7962 27.146H33.7962V15.736H47.6002C47.9246 15.7359 48.2358 15.8638 48.4665 16.0918C48.6971 16.3199 48.8285 16.6296 48.8322 16.954L48.8042 25.97Z" fill="#E31736"/>
</svg>
