<svg width="36" height="32" viewBox="0 0 36 32" fill="none" xmlns="http://www.w3.org/2000/svg">
<path d="M17.7046 32L17.1119 31.4641C3.6298 20.134 0 16.1531 0 9.64593C0 4.28708 4.22242 0 9.33378 0C13.6303 0 16.0748 2.52631 17.7046 4.44018C19.3343 2.52631 21.7788 0 26.0753 0C31.2608 0 35.4091 4.36363 35.4091 9.64593C35.4091 16.1531 31.7793 20.134 18.2972 31.4641L17.7046 32ZM9.33378 1.99042C5.25951 1.99042 1.92601 5.4354 1.92601 9.64593C1.92601 15.2344 5.33359 18.9091 17.7046 29.3971C30.0755 18.9091 33.4831 15.2344 33.4831 9.64593C33.4831 5.4354 30.1496 1.99042 26.0753 1.99042C22.3715 1.99042 20.3714 4.28708 18.8157 6.1244L17.7046 7.42584L16.5934 6.1244C15.0378 4.28708 13.0377 1.99042 9.33378 1.99042Z" fill="white"/>
</svg>
