<svg width="32" height="32" viewBox="0 0 32 32" fill="none" xmlns="http://www.w3.org/2000/svg">
<path d="M28 16.2C28 14.6 26.75 13.75 25 13.75H19.95C20.3 12.4 20.5 11.1 20.5 10C20.5 5.65 19.3 4.75 18.25 4.75C17.55 4.75 17.05 4.8 16.35 5.25C16.15 5.35 16.05 5.55 16 5.75L15.25 9.8C14.45 11.95 12.4 13.8 10.75 15.05V25.75C11.3 25.75 12 26.05 12.65 26.4C13.45 26.8 14.3 27.2 15.25 27.2H22.4C23.9 27.2 25 26 25 24.95C25 24.75 25 24.55 24.95 24.4C25.9 24.05 26.5 23.25 26.5 22.35C26.5 21.9 26.4 21.5 26.25 21.2C26.8 20.8 27.4 20.15 27.4 19.35C27.4 18.95 27.2 18.45 26.9 18.1C27.55 17.6 28 16.9 28 16.2ZM26.45 16.2C26.45 17.15 25.45 17.25 25.3 17.7C25.15 18.2 25.9 18.4 25.9 19.3C25.9 20.25 24.75 20.25 24.6 20.7C24.4 21.25 24.95 21.45 24.95 22.35C24.95 22.4 24.95 22.45 24.95 22.5C24.8 23.25 23.65 23.3 23.45 23.6C23.25 23.95 23.5 24.15 23.5 24.95C23.5 25.4 23 25.7 22.4 25.7H15.25C14.7 25.7 14 25.4 13.35 25.05C12.75 24.75 12.15 24.45 11.5 24.3V16.35C13.35 14.95 15.75 12.8 16.7 10.2C16.7 10.15 16.7 10.1 16.75 10.1L17.45 6.35001C17.7 6.25001 17.9 6.25 18.3 6.25C18.45 6.25 19.05 7.15 19.05 10C19.05 11.1 18.85 12.35 18.45 13.75H18.25C17.85 13.75 17.5 14.1 17.5 14.5C17.5 14.9 17.85 15.25 18.25 15.25H25C25.75 15.25 26.45 15.6 26.45 16.2Z" fill="#09090B"/>
<path d="M10 27.25H5.5C4.65 27.25 4 26.6 4 25.75V15.25C4 14.4 4.65 13.75 5.5 13.75H10C10.85 13.75 11.5 14.4 11.5 15.25V25.75C11.5 26.6 10.85 27.25 10 27.25ZM5.5 15.25V25.75H10V15.25H5.5Z" fill="#09090B"/>
</svg>
