<svg width="38" height="38" viewBox="0 0 38 38" fill="none" xmlns="http://www.w3.org/2000/svg">
<path d="M28.2389 7.30338C25.7886 4.85311 22.4653 3.47656 19.0001 3.47656C15.5349 3.47656 12.2117 4.85311 9.76139 7.30338C7.31112 9.75365 5.93457 13.0769 5.93457 16.5421C5.93457 20.0073 7.31112 23.3306 9.76139 25.7809L14.6301 30.6496C14.7409 30.7603 14.8723 30.8482 15.017 30.9081C15.1616 30.968 15.3167 30.9989 15.4733 30.9989C15.6298 30.9989 15.7849 30.968 15.9296 30.9081C16.0742 30.8482 16.2057 30.7603 16.3164 30.6496C16.4271 30.5389 16.5149 30.4075 16.5749 30.2628C16.6348 30.1181 16.6656 29.9631 16.6656 29.8065C16.6656 29.6499 16.6348 29.4949 16.5749 29.3502C16.5149 29.2055 16.4271 29.0741 16.3164 28.9634L11.4476 24.0946C9.95163 22.6005 8.93242 20.6962 8.51897 18.6226C8.10551 16.5491 8.31638 14.3995 9.1249 12.4459C9.93342 10.4922 11.3033 8.82226 13.0611 7.64732C14.8189 6.47237 16.8858 5.84522 19.0001 5.84522C21.1145 5.84522 23.1813 6.47237 24.9392 7.64732C26.697 8.82226 28.0668 10.4922 28.8754 12.4459C29.6839 14.3995 29.8948 16.5491 29.4813 18.6226C29.0678 20.6962 28.0486 22.6005 26.5526 24.0946L18.157 32.4903C18.0457 32.6006 17.9574 32.732 17.8971 32.8767C17.8368 33.0214 17.8057 33.1766 17.8057 33.3334C17.8057 33.4901 17.8368 33.6454 17.8971 33.7901C17.9574 33.9348 18.0457 34.0661 18.157 34.1765C18.2674 34.2878 18.3987 34.3761 18.5434 34.4364C18.6882 34.4967 18.8434 34.5278 19.0001 34.5278C19.1569 34.5278 19.3121 34.4967 19.4568 34.4364C19.6015 34.3761 19.7329 34.2878 19.8433 34.1765L28.2389 25.7809C29.4525 24.5678 30.4152 23.1276 31.0721 21.5423C31.7289 19.9571 32.067 18.258 32.067 16.5421C32.067 14.8262 31.7289 13.1271 31.0721 11.5419C30.4152 9.95669 29.4525 8.51642 28.2389 7.30338Z" fill="#424242"/>
<path d="M24.9375 16.625C24.9375 15.4507 24.5893 14.3027 23.9369 13.3263C23.2844 12.3499 22.3571 11.5889 21.2722 11.1395C20.1873 10.6901 18.9934 10.5725 17.8417 10.8016C16.6899 11.0307 15.6319 11.5962 14.8016 12.4266C13.9712 13.2569 13.4057 14.3149 13.1766 15.4667C12.9475 16.6184 13.0651 17.8122 13.5145 18.8972C13.9639 19.9821 14.7249 20.9094 15.7013 21.5619C16.6777 22.2143 17.8257 22.5625 19 22.5625C20.5747 22.5625 22.085 21.9369 23.1985 20.8235C24.3119 19.71 24.9375 18.1997 24.9375 16.625ZM15.4375 16.625C15.4375 15.9204 15.6464 15.2316 16.0379 14.6458C16.4293 14.0599 16.9857 13.6033 17.6367 13.3337C18.2877 13.064 19.004 12.9935 19.695 13.131C20.3861 13.2684 21.0208 13.6077 21.5191 14.1059C22.0173 14.6042 22.3566 15.2389 22.4941 15.93C22.6315 16.6211 22.561 17.3374 22.2913 17.9883C22.0217 18.6393 21.5651 19.1957 20.9792 19.5871C20.3934 19.9786 19.7046 20.1875 19 20.1875C18.0552 20.1875 17.149 19.8122 16.4809 19.1441C15.8128 18.476 15.4375 17.5698 15.4375 16.625Z" fill="#424242"/>
</svg>
