<svg width="189" height="58" viewBox="0 0 189 58" fill="none" xmlns="http://www.w3.org/2000/svg">
<path d="M17.4678 20.3587V48.4481L23.6448 42.7246V25.2897L32.9986 34.1833V44.3095L38.3814 49.5928V32.6863L27.0863 22.3839V12.0815L17.4678 20.3587Z" fill="#5AA469"/>
<path fill-rule="evenodd" clip-rule="evenodd" d="M9.54048 19.4614C8.32938 20.5694 5.85136 22.8351 5.62808 23.0343L5.94533 25.2569L10.4078 29.2113L14.6529 26.0098L13.8464 23.0542L9.91002 25.4793L32.2096 6.0779L31.8883 11.8072L30.6549 11.738L31.2611 13.5359L32.2302 13.5902L32.1612 14.821C35.5775 15.3654 31.8561 18.6845 31.4902 15.7535C30.8786 16.6258 31.6461 17.7025 32.7033 17.7618C33.8965 17.8288 35.4796 15.5363 33.253 14.2649L33.2875 13.6495L34.2566 13.7039L35.2363 11.9949L33.9147 11.9208L34.3467 4.2186L36.6696 2.19763L36.3467 1.65036L33.8502 2.03951L12.6629 20.5184L9.54048 19.4614ZM32.417 11.8368L32.7671 5.59287L33.6222 4.84892L33.2278 11.8823L32.417 11.8368Z" fill="#5AA469"/>
<path fill-rule="evenodd" clip-rule="evenodd" d="M16.6733 26.0823L16.3203 26.4391V49.4168L16.6733 49.0645V26.0823Z" fill="#5AA469"/>
<path fill-rule="evenodd" clip-rule="evenodd" d="M15.9672 26.6106L15.6143 26.9746V50.2092L15.9672 49.857V26.6106Z" fill="#5AA469"/>
<path fill-rule="evenodd" clip-rule="evenodd" d="M15.2612 27.1389L14.9082 27.5128V50.9137L15.2612 50.5614V27.1389Z" fill="#5AA469"/>
<path d="M35.9102 18.1572L39.9693 21.8555V31.5415L35.9102 28.0193V18.1572Z" fill="#171717"/>
<path fill-rule="evenodd" clip-rule="evenodd" d="M32.5566 21.2123L35.9099 18.1572V19.9183L32.5566 22.828V21.2123Z" fill="#171717"/>
<path fill-rule="evenodd" clip-rule="evenodd" d="M35.9099 20.7988L32.5566 23.8539V25.0254L32.8024 25.2563L35.9099 22.5599V20.7988Z" fill="#171717"/>
<path fill-rule="evenodd" clip-rule="evenodd" d="M35.9096 23.4404L33.3506 25.772L34.3013 26.5971L35.9096 25.2015V23.4404Z" fill="#171717"/>
<path d="M27.1748 43.6931L10.6729 54.6119H14.535V53.5552L27.1748 47.0392L39.8146 53.5552V54.6119H43.8523L27.1748 43.6931Z" fill="#171717"/>
<path d="M25.1445 48.8005L26.9094 48.4482V50.2093H25.1445V48.8005Z" fill="#171717"/>
<path d="M27.2627 48.4482L29.0276 48.8005V50.2093H27.2627V48.4482Z" fill="#171717"/>
<rect x="25.1445" y="50.5615" width="1.76487" height="1.76109" fill="#171717"/>
<rect x="27.2627" y="50.5615" width="1.76487" height="1.76109" fill="#171717"/>
<path d="M46.8978 57.9574C46.8978 58.3532 37.9209 55.8075 26.8473 55.8075C15.7738 55.8075 6.79688 58.3532 6.79688 57.9574C6.79688 57.5616 15.7738 54.3743 26.8473 54.3743C37.9209 54.3743 46.8978 57.5616 46.8978 57.9574Z" fill="#171717"/>
<path d="M15.0092 4.8333C20.218 2.08969 26.1438 1.05257 31.9502 1.84216L30.6232 3.01113C25.4597 2.5341 21.4806 3.55911 16.8584 5.99373C11.3843 8.87706 7.25392 13.5602 4.84406 19.2495C2.4342 24.9389 2.06954 31.2847 3.81187 37.2116C5.5542 43.1386 7.88447 48.2822 12.9924 51.7711L12.9321 51.859L11.8566 52.5805C6.69942 48.928 2.92088 43.6453 1.13816 37.581C-0.689548 31.3636 -0.307016 24.7068 2.22093 18.7387C4.74889 12.7705 9.26679 7.85792 15.0092 4.8333Z" fill="#171717"/>
<path d="M57.0286 44.1375V44.6424L59.9337 44.6351C60.0703 44.6351 60.1703 44.6034 60.2337 44.54C60.2972 44.4717 60.3289 44.3326 60.3289 44.1229C60.3289 43.957 60.3142 43.8375 60.285 43.7643C60.2557 43.6863 60.2142 43.6375 60.1606 43.618C60.1069 43.5984 60.0289 43.5887 59.9264 43.5887H55.9529V42.6154H60.3728C60.6606 42.6154 60.9021 42.6886 61.0972 42.835C61.2972 42.9813 61.3973 43.2301 61.3973 43.5814V44.5693C61.3973 44.7205 61.368 44.8376 61.3094 44.9205C61.6119 45.0571 61.7631 45.2864 61.7631 45.6084V46.9036C61.7485 47.4597 61.4265 47.7378 60.7972 47.7378H55.9529V44.1375H57.0286ZM60.2996 46.7645C60.4411 46.7645 60.5435 46.7304 60.6069 46.6621C60.6704 46.5938 60.7021 46.4474 60.7021 46.223C60.7021 45.9889 60.6679 45.8303 60.5996 45.7474C60.5362 45.6596 60.4338 45.6157 60.2923 45.6157H57.0286V46.7645H60.2996ZM66.8014 44.079V46.5157C66.7966 46.745 66.7405 46.9524 66.6331 47.1377C66.5258 47.3231 66.3819 47.4695 66.2014 47.5768C66.0209 47.6841 65.816 47.7378 65.5867 47.7378H63.4134C63.1841 47.7378 62.9792 47.6841 62.7987 47.5768C62.6182 47.4695 62.4743 47.3231 62.367 47.1377C62.2596 46.9524 62.2035 46.745 62.1986 46.5157V44.079H63.267V46.1938C63.267 46.3596 63.2963 46.4962 63.3548 46.6036C63.4183 46.7109 63.5353 46.7645 63.7061 46.7645H65.294C65.4648 46.7645 65.5794 46.7109 65.6379 46.6036C65.7014 46.4962 65.7331 46.3596 65.7331 46.1938V44.079H66.8014ZM68.3122 43.6399H67.2438V42.6154H68.3122V43.6399ZM67.2438 47.7378V44.079H68.3122V47.7378H67.2438ZM68.7517 47.7378V42.2496H69.82V47.7378H68.7517ZM74.8623 42.2496V46.2743H73.7939V45.0595H71.7377C71.5767 45.0595 71.4669 45.1156 71.4084 45.2278C71.3498 45.3352 71.323 45.484 71.3279 45.6742V46.1938C71.3279 46.3596 71.3571 46.4962 71.4157 46.6036C71.4791 46.7109 71.5962 46.7645 71.7669 46.7645H74.8623V47.7378H71.4742C71.2449 47.7378 71.04 47.6841 70.8595 47.5768C70.679 47.4695 70.5351 47.3231 70.4278 47.1377C70.3205 46.9524 70.2644 46.745 70.2595 46.5157V45.1181C70.2644 44.9132 70.3229 44.7327 70.4351 44.5766C70.5522 44.4156 70.6985 44.2936 70.8742 44.2107C71.0547 44.1278 71.2376 44.0863 71.423 44.0863H73.7939V42.2496H74.8623ZM76.373 43.6399H75.3047V42.6154H76.373V43.6399ZM75.3047 47.7378V44.079H76.373V47.7378H75.3047ZM76.8125 47.7378V44.079H77.8809V47.7378H76.8125ZM80.3469 45.623C80.3469 45.4522 80.3152 45.3157 80.2518 45.2132C80.1932 45.1059 80.0786 45.0522 79.9079 45.0522H78.3712V44.079H80.2006C80.4299 44.079 80.6347 44.1326 80.8152 44.24C80.9957 44.3473 81.1397 44.4936 81.247 44.679C81.3543 44.8644 81.4104 45.0717 81.4153 45.301V47.7378H80.3469V45.623ZM86.4605 44.079V47.9793C86.4605 48.2086 86.4068 48.4159 86.2995 48.6013C86.197 48.7867 86.0531 48.933 85.8677 49.0403C85.6824 49.1477 85.475 49.2013 85.2457 49.2013H83.3651V48.2281H84.953C85.1238 48.2281 85.2384 48.1744 85.297 48.0671C85.3604 47.9646 85.3921 47.828 85.3921 47.6573V45.0522H83.3358C83.0529 45.0522 82.9163 45.2327 82.926 45.5937V46.1938C82.926 46.3596 82.9553 46.4962 83.0139 46.6036C83.0773 46.7109 83.1944 46.7645 83.3651 46.7645H84.9018V47.7378H83.0724C82.8431 47.7378 82.6382 47.6841 82.4577 47.5768C82.2772 47.4695 82.1333 47.3231 82.026 47.1377C81.9186 46.9524 81.8625 46.745 81.8577 46.5157V45.1108C81.8625 44.9059 81.9211 44.7254 82.0333 44.5693C82.1504 44.4083 82.2967 44.2863 82.4724 44.2034C82.6529 44.1204 82.8358 44.079 83.0212 44.079H86.4605ZM88.3678 42.6154H94.1707V43.6911H88.3678V42.6154ZM90.7387 44.24H91.8071V47.7378H90.7387V44.24ZM95.3575 45.6303L97.2894 45.3083C97.2894 45.2303 97.2552 45.1693 97.1869 45.1254C97.1186 45.0815 97.0308 45.0595 96.9235 45.0595H95.277C95.116 45.0595 95.0063 45.1156 94.9477 45.2278C94.8892 45.3352 94.8624 45.484 94.8672 45.6742V46.1938C94.8672 46.3596 94.8965 46.4962 94.955 46.6036C95.0185 46.7109 95.1355 46.7645 95.3063 46.7645H97.8675V47.7378H95.0136C94.7843 47.7378 94.5794 47.6841 94.3989 47.5768C94.2184 47.4695 94.0745 47.3231 93.9672 47.1377C93.8598 46.9524 93.8037 46.745 93.7989 46.5157V45.1181C93.8037 44.9132 93.8623 44.7327 93.9745 44.5766C94.0916 44.4156 94.2379 44.2936 94.4135 44.2107C94.594 44.1278 94.777 44.0863 94.9624 44.0863H97.2382C97.4235 44.0863 97.604 44.1278 97.7797 44.2107C97.9602 44.2936 98.1065 44.4156 98.2187 44.5766C98.3358 44.7327 98.3968 44.9132 98.4017 45.1181L98.409 45.3157C98.409 45.7742 98.1968 46.0303 97.7723 46.084L95.3575 46.4499V45.6303ZM100.322 45.0595C100.161 45.0595 100.051 45.1156 99.9929 45.2278C99.9344 45.3352 99.9075 45.484 99.9124 45.6742V46.1938C99.9124 46.3596 99.9417 46.4962 100 46.6036C100.064 46.7109 100.181 46.7645 100.351 46.7645H101.939C102.11 46.7645 102.225 46.7109 102.283 46.6036C102.347 46.4962 102.378 46.3596 102.378 46.1938H103.447V46.5157C103.442 46.745 103.386 46.9524 103.279 47.1377C103.171 47.3231 103.027 47.4695 102.847 47.5768C102.666 47.6841 102.461 47.7378 102.232 47.7378H100.059C99.8295 47.7378 99.6246 47.6841 99.4441 47.5768C99.2636 47.4695 99.1197 47.3231 99.0123 47.1377C98.905 46.9524 98.8489 46.745 98.844 46.5157V45.1181C98.8489 44.9132 98.9075 44.7327 99.0197 44.5766C99.1367 44.4156 99.2831 44.2936 99.4587 44.2107C99.6392 44.1278 99.8222 44.0863 100.008 44.0863H102.283C102.469 44.0863 102.649 44.1278 102.825 44.2107C103.005 44.2936 103.152 44.4156 103.264 44.5766C103.381 44.7327 103.442 44.9132 103.447 45.1181V45.5645H102.378C102.369 45.4035 102.332 45.2791 102.269 45.1913C102.21 45.1034 102.11 45.0595 101.969 45.0595H100.322ZM103.889 47.7378V42.2496H104.958V47.7378H103.889ZM107.424 45.623C107.424 45.4522 107.392 45.3157 107.328 45.2132C107.27 45.1059 107.155 45.0522 106.985 45.0522H105.448V44.079H107.277C107.507 44.079 107.711 44.1326 107.892 44.24C108.072 44.3473 108.216 44.4936 108.324 44.679C108.431 44.8644 108.487 45.0717 108.492 45.301V47.7378H107.424V45.623ZM108.934 47.7378V44.079H110.003V47.7378H108.934ZM112.469 45.623C112.469 45.4522 112.437 45.3157 112.374 45.2132C112.315 45.1059 112.2 45.0522 112.03 45.0522H110.493V44.079H112.322C112.552 44.079 112.757 44.1326 112.937 44.24C113.118 44.3473 113.262 44.4936 113.369 44.679C113.476 44.8644 113.532 45.0717 113.537 45.301V47.7378H112.469V45.623ZM117.419 44.0863C117.604 44.0863 117.785 44.1278 117.96 44.2107C118.141 44.2936 118.287 44.4156 118.399 44.5766C118.516 44.7327 118.577 44.9132 118.582 45.1181V46.5157C118.577 46.745 118.521 46.9524 118.414 47.1377C118.307 47.3231 118.163 47.4695 117.982 47.5768C117.802 47.6841 117.597 47.7378 117.368 47.7378H115.194C114.965 47.7378 114.76 47.6841 114.58 47.5768C114.399 47.4695 114.255 47.3231 114.148 47.1377C114.041 46.9524 113.984 46.745 113.98 46.5157V45.5498H115.048V45.6742V46.1938C115.048 46.3596 115.077 46.4962 115.136 46.6036C115.199 46.7109 115.316 46.7645 115.487 46.7645H117.075C117.246 46.7645 117.36 46.7109 117.419 46.6036C117.482 46.4962 117.514 46.3596 117.514 46.1938V45.6742C117.519 45.484 117.492 45.3352 117.433 45.2278C117.375 45.1156 117.265 45.0595 117.104 45.0595H113.98C113.994 44.8644 114.06 44.6937 114.177 44.5473C114.294 44.3961 114.441 44.2814 114.616 44.2034C114.792 44.1253 114.967 44.0863 115.143 44.0863H117.419ZM119.025 47.7378V42.2496H120.093V47.7378H119.025ZM123.972 44.0863C124.157 44.0863 124.338 44.1278 124.513 44.2107C124.694 44.2936 124.84 44.4156 124.952 44.5766C125.069 44.7327 125.13 44.9132 125.135 45.1181V46.5157C125.13 46.745 125.074 46.9524 124.967 47.1377C124.86 47.3231 124.716 47.4695 124.535 47.5768C124.355 47.6841 124.15 47.7378 123.921 47.7378H121.747C121.518 47.7378 121.313 47.6841 121.133 47.5768C120.952 47.4695 120.808 47.3231 120.701 47.1377C120.594 46.9524 120.537 46.745 120.533 46.5157V45.5498H121.601V45.6742V46.1938C121.601 46.3596 121.63 46.4962 121.689 46.6036C121.752 46.7109 121.869 46.7645 122.04 46.7645H123.628C123.799 46.7645 123.913 46.7109 123.972 46.6036C124.035 46.4962 124.067 46.3596 124.067 46.1938V45.6742C124.072 45.484 124.045 45.3352 123.986 45.2278C123.928 45.1156 123.818 45.0595 123.657 45.0595H120.533C120.547 44.8644 120.613 44.6937 120.73 44.5473C120.847 44.3961 120.994 44.2814 121.169 44.2034C121.345 44.1253 121.52 44.0863 121.696 44.0863H123.972ZM130.181 44.079V47.9793C130.181 48.2086 130.127 48.4159 130.02 48.6013C129.917 48.7867 129.773 48.933 129.588 49.0403C129.402 49.1477 129.195 49.2013 128.966 49.2013H127.085V48.2281H128.673C128.844 48.2281 128.958 48.1744 129.017 48.0671C129.08 47.9646 129.112 47.828 129.112 47.6573V45.0522H127.056C126.773 45.0522 126.636 45.2327 126.646 45.5937V46.1938C126.646 46.3596 126.675 46.4962 126.734 46.6036C126.797 46.7109 126.914 46.7645 127.085 46.7645H128.622V47.7378H126.792C126.563 47.7378 126.358 47.6841 126.178 47.5768C125.997 47.4695 125.853 47.3231 125.746 47.1377C125.639 46.9524 125.583 46.745 125.578 46.5157V45.1108C125.583 44.9059 125.641 44.7254 125.753 44.5693C125.87 44.4083 126.017 44.2863 126.192 44.2034C126.373 44.1204 126.556 44.079 126.741 44.079H130.181ZM134.091 44.079H135.226L132.24 49.2013H131.106L132.357 47.0573L130.623 44.079H131.786L132.935 46.0547L134.091 44.079ZM142.087 45.5791H141.816V45.6376V46.5157C141.816 46.745 141.763 46.9524 141.655 47.1377C141.553 47.3231 141.409 47.4695 141.224 47.5768C141.038 47.6841 140.831 47.7378 140.602 47.7378H138.348C138.118 47.7378 137.911 47.6841 137.726 47.5768C137.54 47.4695 137.394 47.3231 137.287 47.1377C137.184 46.9524 137.133 46.745 137.133 46.5157V45.6376C137.133 45.4376 137.187 45.262 137.294 45.1108C137.406 44.9546 137.55 44.8327 137.726 44.7449C137.618 44.5985 137.565 44.4351 137.565 44.2546V43.8375C137.565 43.6082 137.616 43.4009 137.718 43.2155C137.826 43.0301 137.972 42.8838 138.157 42.7764C138.343 42.6691 138.55 42.6154 138.779 42.6154H139.994V42.4618H140.967V43.7936H139.994V43.5887H138.977C138.831 43.5887 138.736 43.6277 138.692 43.7058C138.653 43.7789 138.633 43.8863 138.633 44.0277C138.633 44.1936 138.64 44.3156 138.655 44.3936C138.67 44.4668 138.706 44.5205 138.765 44.5546C138.823 44.5888 138.916 44.6058 139.043 44.6058H139.211V45.5791H138.611C138.455 45.5791 138.348 45.6328 138.289 45.7401C138.231 45.8474 138.201 45.9986 138.201 46.1938C138.201 46.3596 138.231 46.4962 138.289 46.6036C138.353 46.7109 138.47 46.7645 138.64 46.7645H140.309C140.48 46.7645 140.594 46.7109 140.653 46.6036C140.716 46.4962 140.748 46.3596 140.748 46.1938C140.748 45.9986 140.719 45.8474 140.66 45.7401C140.602 45.6328 140.494 45.5791 140.338 45.5791H139.936V44.6058H142.087V45.5791ZM145.157 47.7378C144.971 47.7378 144.791 47.6963 144.615 47.6134C144.44 47.5305 144.293 47.4109 144.176 47.2548C144.059 47.0938 143.998 46.9109 143.993 46.706V46.1865V43.6472C143.998 43.4423 144.059 43.2618 144.176 43.1057C144.293 42.9447 144.44 42.8228 144.615 42.7398C144.791 42.6569 144.971 42.6154 145.157 42.6154H148.772C149.055 42.6154 149.296 42.6886 149.496 42.835C149.696 42.9813 149.796 43.2301 149.796 43.5814V44.379H148.772V44.0277C148.767 43.8912 148.75 43.7936 148.721 43.735C148.691 43.6716 148.652 43.6326 148.603 43.618C148.56 43.5984 148.489 43.5887 148.391 43.5887H145.406C145.298 43.5984 145.218 43.6302 145.164 43.6838C145.11 43.7375 145.079 43.8399 145.069 43.9912C145.069 44.9815 145.067 45.7254 145.062 46.223C145.062 46.4474 145.093 46.5938 145.157 46.6621C145.22 46.7304 145.32 46.7645 145.457 46.7645H148.391C148.489 46.7645 148.56 46.7572 148.603 46.7426C148.652 46.7231 148.691 46.6841 148.721 46.6255C148.75 46.5621 148.767 46.4621 148.772 46.3255V45.8791H149.796V46.7719C149.796 47.1231 149.696 47.3719 149.496 47.5183C149.296 47.6646 149.055 47.7378 148.772 47.7378H145.157ZM153.671 44.0863C153.857 44.0863 154.037 44.1278 154.213 44.2107C154.393 44.2936 154.54 44.4156 154.652 44.5766C154.769 44.7327 154.83 44.9132 154.835 45.1181V46.5157C154.83 46.745 154.774 46.9524 154.666 47.1377C154.559 47.3231 154.415 47.4695 154.235 47.5768C154.054 47.6841 153.849 47.7378 153.62 47.7378H151.447C151.217 47.7378 151.012 47.6841 150.832 47.5768C150.651 47.4695 150.508 47.3231 150.4 47.1377C150.293 46.9524 150.237 46.745 150.232 46.5157V45.5498H151.3V45.6742V46.1938C151.3 46.3596 151.33 46.4962 151.388 46.6036C151.451 46.7109 151.569 46.7645 151.739 46.7645H153.327C153.498 46.7645 153.613 46.7109 153.671 46.6036C153.735 46.4962 153.766 46.3596 153.766 46.1938V45.6742C153.771 45.484 153.744 45.3352 153.686 45.2278C153.627 45.1156 153.518 45.0595 153.357 45.0595H150.232C150.247 44.8644 150.312 44.6937 150.429 44.5473C150.547 44.3961 150.693 44.2814 150.869 44.2034C151.044 44.1253 151.22 44.0863 151.395 44.0863H153.671ZM155.277 47.7378V44.079H156.345V47.7378H155.277ZM158.811 45.623C158.811 45.4522 158.78 45.3157 158.716 45.2132C158.658 45.1059 158.543 45.0522 158.372 45.0522H156.836V44.079H158.665C158.894 44.079 159.099 44.1326 159.28 44.24C159.46 44.3473 159.604 44.4936 159.712 44.679C159.819 44.8644 159.875 45.0717 159.88 45.301V47.7378H158.811V45.623ZM163.696 45.462C163.959 45.462 164.184 45.5157 164.369 45.623C164.559 45.7303 164.701 45.8718 164.793 46.0474C164.891 46.223 164.94 46.4084 164.94 46.6036C164.94 46.7987 164.893 46.9841 164.801 47.1597C164.708 47.3304 164.569 47.4695 164.384 47.5768C164.198 47.6841 163.974 47.7378 163.71 47.7378H160.337V46.7645H163.418C163.554 46.7645 163.659 46.745 163.732 46.706C163.805 46.6621 163.842 46.6109 163.842 46.5523C163.842 46.4938 163.803 46.4426 163.725 46.3987C163.647 46.3548 163.54 46.3328 163.403 46.3328H161.552C161.288 46.3328 161.064 46.2791 160.878 46.1718C160.693 46.0645 160.554 45.9255 160.461 45.7547C160.369 45.584 160.322 45.401 160.322 45.2059C160.322 45.0108 160.369 44.8254 160.461 44.6497C160.559 44.4741 160.7 44.3326 160.886 44.2253C161.076 44.118 161.303 44.0643 161.566 44.0643H164.669V45.0376H161.859C161.722 45.0376 161.615 45.0595 161.537 45.1034C161.459 45.1473 161.42 45.1986 161.42 45.2571C161.42 45.3108 161.456 45.3596 161.53 45.4035C161.603 45.4425 161.708 45.462 161.844 45.462H163.696ZM169.984 44.079V46.5157C169.98 46.745 169.924 46.9524 169.816 47.1377C169.709 47.3231 169.565 47.4695 169.384 47.5768C169.204 47.6841 168.999 47.7378 168.77 47.7378H166.596C166.367 47.7378 166.162 47.6841 165.982 47.5768C165.801 47.4695 165.657 47.3231 165.55 47.1377C165.443 46.9524 165.387 46.745 165.382 46.5157V44.079H166.45V46.1938C166.45 46.3596 166.479 46.4962 166.538 46.6036C166.601 46.7109 166.718 46.7645 166.889 46.7645H168.477C168.648 46.7645 168.762 46.7109 168.821 46.6036C168.884 46.4962 168.916 46.3596 168.916 46.1938V44.079H169.984ZM170.427 47.7378V42.2496H171.495V47.7378H170.427ZM173.691 46.7645V47.7378H173.149C172.92 47.7378 172.713 47.6841 172.527 47.5768C172.342 47.4695 172.196 47.3231 172.088 47.1377C171.986 46.9524 171.935 46.745 171.935 46.5157V42.2496H173.003V43.6838H173.508V44.7522H173.003V46.1938C173.003 46.3596 173.032 46.4962 173.091 46.6036C173.154 46.7109 173.271 46.7645 173.442 46.7645H173.691ZM178.731 44.079V47.7378H177.663V45.0522H175.607C175.324 45.0522 175.187 45.2327 175.197 45.5937V46.1938C175.197 46.3596 175.226 46.4962 175.285 46.6036C175.348 46.7109 175.465 46.7645 175.636 46.7645H177.173V47.7378H175.343C175.114 47.7378 174.909 47.6841 174.729 47.5768C174.548 47.4695 174.404 47.3231 174.297 47.1377C174.19 46.9524 174.133 46.745 174.129 46.5157V45.1108C174.133 44.9059 174.192 44.7254 174.304 44.5693C174.421 44.4083 174.568 44.2863 174.743 44.2034C174.924 44.1204 175.107 44.079 175.292 44.079H178.731ZM179.174 47.7378V44.079H180.242V47.7378H179.174ZM182.708 45.623C182.708 45.4522 182.676 45.3157 182.613 45.2132C182.554 45.1059 182.44 45.0522 182.269 45.0522H180.732V44.079H182.562C182.791 44.079 182.996 44.1326 183.176 44.24C183.357 44.3473 183.501 44.4936 183.608 44.679C183.716 44.8644 183.772 45.0717 183.777 45.301V47.7378H182.708V45.623ZM185.975 46.7645V47.7378H185.434C185.204 47.7378 184.997 47.6841 184.812 47.5768C184.626 47.4695 184.48 47.3231 184.373 47.1377C184.27 46.9524 184.219 46.745 184.219 46.5157V42.2496H185.287V43.6838H185.792V44.7522H185.287V46.1938C185.287 46.3596 185.317 46.4962 185.375 46.6036C185.439 46.7109 185.556 46.7645 185.726 46.7645H185.975Z" fill="#171717"/>
<path d="M63.455 12.7143V16.3426L84.3311 16.29C85.3127 16.29 86.0313 16.0622 86.4871 15.6064C86.9428 15.1156 87.1707 14.1165 87.1707 12.6091C87.1707 11.4172 87.0655 10.5583 86.8551 10.0324C86.6448 9.47154 86.3468 9.12098 85.9612 8.98075C85.5756 8.84052 85.0147 8.77041 84.2785 8.77041H55.725V1.77664H87.4862C89.5545 1.77664 91.2898 2.30249 92.692 3.35419C94.1294 4.40588 94.848 6.19376 94.848 8.71783V15.8168C94.848 16.9035 94.6377 17.7449 94.217 18.3408C96.3905 19.3224 97.4773 20.9701 97.4773 23.2838V32.5913C97.3721 36.5877 95.0584 38.5859 90.5361 38.5859H55.725V12.7143H63.455ZM86.9603 31.5922C87.977 31.5922 88.7131 31.3468 89.1689 30.856C89.6246 30.3652 89.8525 29.3135 89.8525 27.7009C89.8525 26.0182 89.6071 24.8789 89.1163 24.2829C88.6606 23.6519 87.9244 23.3364 86.9077 23.3364H63.455V31.5922H86.9603ZM100.607 1.77664H142.307V9.5066H100.607V1.77664ZM117.644 13.4504H125.322V38.5859H117.644V13.4504ZM153.798 38.5859C152.466 38.5859 151.169 38.288 149.907 37.692C148.645 37.096 147.593 36.2372 146.752 35.1153C145.911 33.9585 145.472 32.6439 145.437 31.1715V27.438V9.19109C145.472 7.71872 145.911 6.42163 146.752 5.29982C147.593 4.14296 148.645 3.26655 149.907 2.67058C151.169 2.07462 152.466 1.77664 153.798 1.77664H179.775C181.808 1.77664 183.544 2.30249 184.981 3.35419C186.418 4.40588 187.137 6.19376 187.137 8.71783V14.4496H179.775V11.9255C179.74 10.9439 179.617 10.2428 179.407 9.8221C179.197 9.36637 178.916 9.08592 178.566 8.98075C178.25 8.84052 177.742 8.77041 177.041 8.77041H155.586C154.815 8.84052 154.237 9.06839 153.851 9.45401C153.465 9.83963 153.237 10.5758 153.167 11.6626C153.167 18.779 153.15 24.1251 153.115 27.7009C153.115 29.3135 153.343 30.3652 153.798 30.856C154.254 31.3468 154.973 31.5922 155.954 31.5922H177.041C177.742 31.5922 178.25 31.5396 178.566 31.4344C178.916 31.2942 179.197 31.0137 179.407 30.5931C179.617 30.1373 179.74 29.4187 179.775 28.4371V25.2294H187.137V31.6448C187.137 34.1688 186.418 35.9567 184.981 37.0084C183.544 38.0601 181.808 38.5859 179.775 38.5859H153.798Z" fill="#5AA469"/>
<path d="M78.5637 54.3666L79.7771 52.0811H80.7747L79.0252 55.2227V57.4263H78.0723V55.2227L76.3154 52.0811H77.3502L78.5637 54.3666ZM84.896 55.4758C84.896 56.6893 84.1144 57.5082 83.0126 57.5082C81.9108 57.5082 81.1291 56.6893 81.1291 55.4758C81.1291 54.2624 81.9108 53.4435 83.0126 53.4435C84.1144 53.4435 84.896 54.2624 84.896 55.4758ZM82.0299 55.4758C82.0299 56.2724 82.4096 56.7563 83.0126 56.7563C83.6156 56.7563 83.9953 56.2724 83.9953 55.4758C83.9953 54.6792 83.6156 54.1954 83.0126 54.1954C82.4096 54.1954 82.0299 54.6792 82.0299 55.4758ZM89.0993 53.5179V57.4263H88.2059V57.0094C87.9826 57.2699 87.6476 57.5082 87.1414 57.5082C86.3225 57.5082 85.8163 56.9498 85.8163 56.1086V53.5179H86.7096V55.915C86.7096 56.3915 86.918 56.6967 87.4019 56.6967C87.8039 56.6967 88.2059 56.3989 88.2059 55.8406V53.5179H89.0993ZM90.1163 57.4263V56.6669H91.1511V54.2772H90.1163V53.5179H92.0295V54.1507C92.2752 53.704 92.8037 53.4435 93.3472 53.4435C93.6226 53.4435 93.8162 53.4881 93.9576 53.5477V54.4261C93.7566 54.3591 93.5705 54.3145 93.2579 54.3145C92.6549 54.3145 92.0295 54.7016 92.0295 55.3641V56.6669H93.4291V57.4263H90.1163ZM98.6419 56.3989L99.3789 55.781C99.7511 56.3617 100.309 56.7042 100.92 56.7042C101.523 56.7042 101.977 56.4213 101.977 55.9076C101.977 55.3641 101.419 55.2822 100.622 55.0887C99.8181 54.8951 98.9545 54.6644 98.9545 53.6221C98.9545 52.632 99.8032 51.9992 100.883 51.9992C101.798 51.9992 102.513 52.4161 102.87 52.9744L102.178 53.57C101.88 53.1085 101.478 52.7958 100.853 52.7958C100.28 52.7958 99.8777 53.0861 99.8777 53.5253C99.8777 53.9943 100.295 54.0986 101.017 54.2624C101.88 54.4559 102.915 54.6495 102.915 55.8108C102.915 56.8605 101.992 57.5082 100.89 57.5082C99.9744 57.5082 99.0588 57.0838 98.6419 56.3989ZM104.803 57.4933C104.029 57.4933 103.441 57.0392 103.441 56.3394C103.441 55.5949 104.014 55.2599 104.796 55.111L105.949 54.8877V54.8207C105.949 54.4485 105.726 54.2102 105.227 54.2102C104.788 54.2102 104.513 54.4187 104.401 54.7984L103.567 54.5974C103.768 53.9497 104.364 53.4435 105.265 53.4435C106.232 53.4435 106.82 53.8901 106.82 54.7909V56.4734C106.82 56.6967 106.925 56.7637 107.178 56.7339V57.4263C106.508 57.5007 106.158 57.3742 106.016 57.054C105.756 57.3369 105.332 57.4933 104.803 57.4933ZM105.949 56.049V55.5651L105.026 55.7438C104.639 55.8183 104.334 55.9523 104.334 56.3021C104.334 56.6074 104.572 56.7786 104.93 56.7786C105.428 56.7786 105.949 56.5255 105.949 56.049ZM111.381 57.4263H107.942V56.6669H109.073V54.2772H107.942V53.5179H109.073C109.073 52.4459 109.818 51.9992 110.763 51.9992C111.113 51.9992 111.441 52.0439 111.679 52.096V52.8702C111.411 52.833 111.165 52.7883 110.793 52.7883C110.235 52.7883 109.967 53.0117 109.967 53.5179H111.679V54.2772H109.967V56.6669H111.381V57.4263ZM114.356 57.5082C113.195 57.5082 112.376 56.6818 112.376 55.4758C112.376 54.3294 113.187 53.4435 114.319 53.4435C115.502 53.4435 116.128 54.2996 116.128 55.3716V55.6694H113.247C113.321 56.3394 113.753 56.7488 114.363 56.7488C114.847 56.7488 115.22 56.5255 115.354 56.1235L116.105 56.4138C115.823 57.0987 115.175 57.5082 114.356 57.5082ZM114.319 54.1954C113.813 54.1954 113.433 54.4708 113.299 54.9994H115.227C115.22 54.5676 114.929 54.1954 114.319 54.1954ZM125.085 56.5925V57.4263H121.288V56.5925H122.71V52.9149H121.288V52.0811H125.085V52.9149H123.663V56.5925H125.085ZM126.028 57.4263V53.5179H126.921V53.9348C127.144 53.6742 127.494 53.4435 128 53.4435C128.819 53.4435 129.311 54.0092 129.311 54.8505V57.4263H128.417V55.111C128.417 54.6271 128.224 54.2772 127.732 54.2772C127.33 54.2772 126.921 54.575 126.921 55.1334V57.4263H126.028ZM130.491 57.4263V53.5179H131.385V53.9348C131.608 53.6742 131.958 53.4435 132.464 53.4435C133.283 53.4435 133.775 54.0092 133.775 54.8505V57.4263H132.881V55.111C132.881 54.6271 132.688 54.2772 132.196 54.2772C131.794 54.2772 131.385 54.575 131.385 55.1334V57.4263H130.491ZM138.462 55.4758C138.462 56.6893 137.68 57.5082 136.578 57.5082C135.476 57.5082 134.695 56.6893 134.695 55.4758C134.695 54.2624 135.476 53.4435 136.578 53.4435C137.68 53.4435 138.462 54.2624 138.462 55.4758ZM135.596 55.4758C135.596 56.2724 135.975 56.7563 136.578 56.7563C137.181 56.7563 137.561 56.2724 137.561 55.4758C137.561 54.6792 137.181 54.1954 136.578 54.1954C135.975 54.1954 135.596 54.6792 135.596 55.4758ZM141.489 57.4263H140.588L139.01 53.5179H139.948L141.049 56.3766L142.144 53.5179H143.067L141.489 57.4263ZM144.977 57.4933C144.203 57.4933 143.615 57.0392 143.615 56.3394C143.615 55.5949 144.188 55.2599 144.97 55.111L146.124 54.8877V54.8207C146.124 54.4485 145.9 54.2102 145.402 54.2102C144.962 54.2102 144.687 54.4187 144.575 54.7984L143.741 54.5974C143.942 53.9497 144.538 53.4435 145.439 53.4435C146.407 53.4435 146.995 53.8901 146.995 54.7909V56.4734C146.995 56.6967 147.099 56.7637 147.352 56.7339V57.4263C146.682 57.5007 146.332 57.3742 146.191 57.054C145.93 57.3369 145.506 57.4933 144.977 57.4933ZM146.124 56.049V55.5651L145.201 55.7438C144.813 55.8183 144.508 55.9523 144.508 56.3021C144.508 56.6074 144.746 56.7786 145.104 56.7786C145.603 56.7786 146.124 56.5255 146.124 56.049ZM149.039 56.0863V54.2772H147.982V53.5179H149.039V52.3714H149.917V53.5179H151.712V54.2772H149.917V56.0044C149.917 56.5106 150.193 56.6744 150.788 56.6744C151.116 56.6744 151.421 56.6223 151.697 56.5478V57.3444C151.436 57.4188 151.019 57.4784 150.625 57.4784C149.791 57.4784 149.039 57.1359 149.039 56.0863ZM154.098 52.9968V52.0811H155.022V52.9968H154.098ZM152.788 57.4263V56.6669H154.113V54.2772H152.788V53.5179H155.007V56.6669H156.332V57.4263H152.788ZM160.781 55.4758C160.781 56.6893 159.999 57.5082 158.897 57.5082C157.795 57.5082 157.014 56.6893 157.014 55.4758C157.014 54.2624 157.795 53.4435 158.897 53.4435C159.999 53.4435 160.781 54.2624 160.781 55.4758ZM157.915 55.4758C157.915 56.2724 158.294 56.7563 158.897 56.7563C159.5 56.7563 159.88 56.2724 159.88 55.4758C159.88 54.6792 159.5 54.1954 158.897 54.1954C158.294 54.1954 157.915 54.6792 157.915 55.4758ZM161.738 57.4263V53.5179H162.631V53.9348C162.855 53.6742 163.205 53.4435 163.711 53.4435C164.53 53.4435 165.021 54.0092 165.021 54.8505V57.4263H164.128V55.111C164.128 54.6271 163.934 54.2772 163.443 54.2772C163.041 54.2772 162.631 54.575 162.631 55.1334V57.4263H161.738Z" fill="#5AA469"/>
<path d="M55.7334 55.2727L74.5636 55.2727" stroke="#5AA469" stroke-width="0.875825" stroke-linecap="round"/>
<path d="M167.401 55.2727L186.232 55.2727" stroke="#5AA469" stroke-width="0.875825" stroke-linecap="round"/>
</svg>
