<svg width="24" height="24" viewBox="0 0 24 24" fill="none" xmlns="http://www.w3.org/2000/svg">
<path d="M17.0628 21.0938C16.9626 21.0938 16.8635 21.0724 16.7722 21.031C16.6809 20.9896 16.5996 20.9292 16.5336 20.8538L12.8206 16.6097H5.56152C4.75988 16.6087 3.99136 16.2898 3.42456 15.7229C2.85776 15.156 2.53895 14.3874 2.53809 13.5858V5.27391C2.53895 4.47226 2.85776 3.7037 3.42456 3.13681C3.99136 2.56992 4.75988 2.25099 5.56152 2.25H18.3584C19.16 2.25099 19.9286 2.56992 20.4954 3.13681C21.0622 3.7037 21.381 4.47226 21.3818 5.27391V13.5858C21.381 14.3874 21.0622 15.156 20.4954 15.7229C19.9286 16.2898 19.16 16.6087 18.3584 16.6097H17.7659V20.3906C17.7659 20.5771 17.6918 20.7559 17.56 20.8878C17.4281 21.0197 17.2493 21.0938 17.0628 21.0938ZM5.56152 3.65625C5.13273 3.65687 4.72168 3.82752 4.41852 4.13076C4.11536 4.43401 3.94483 4.84511 3.94434 5.27391V13.5858C3.94483 14.0146 4.11536 14.4257 4.41852 14.7289C4.72168 15.0322 5.13273 15.2028 5.56152 15.2034H13.1393C13.2396 15.2034 13.3386 15.2248 13.4299 15.2662C13.5212 15.3076 13.6025 15.368 13.6686 15.4434L16.3596 18.5198V15.9066C16.3596 15.7201 16.4337 15.5412 16.5656 15.4094C16.6975 15.2775 16.8763 15.2034 17.0628 15.2034H18.3561C18.7849 15.2028 19.1959 15.0322 19.4991 14.7289C19.8022 14.4257 19.9727 14.0146 19.9732 13.5858V5.27391C19.9727 4.84543 19.8025 4.43462 19.4997 4.13142C19.197 3.82823 18.7864 3.65737 18.3579 3.65625H5.56152Z" fill="#929292"/>
<path d="M9.35786 12.3751C9.17115 12.3747 8.99211 12.3008 8.85957 12.1693C8.84364 12.1529 8.82817 12.1356 8.8127 12.1177C8.79817 12.1 8.78456 12.0815 8.77192 12.0624C8.75911 12.0434 8.74739 12.0237 8.73676 12.0034C8.72598 11.9832 8.71614 11.9621 8.70723 11.941C8.69832 11.9199 8.69082 11.8979 8.68379 11.8763C8.67676 11.8548 8.67161 11.8295 8.66692 11.8093C8.66223 11.7891 8.65895 11.7624 8.65661 11.7413C8.65434 11.7183 8.65325 11.6951 8.65333 11.672C8.65324 11.6489 8.65433 11.6259 8.65661 11.6031C8.65895 11.5801 8.6627 11.5562 8.66692 11.5346C8.67114 11.5131 8.67723 11.4877 8.68379 11.4681C8.69036 11.4484 8.69832 11.424 8.70723 11.4029C8.71614 11.3818 8.72598 11.3612 8.73676 11.341C8.74747 11.3206 8.7592 11.3007 8.77192 11.2815C8.78458 11.2627 8.79817 11.244 8.8127 11.2262C8.82723 11.2084 8.84317 11.191 8.85957 11.1746C8.9334 11.1015 9.02237 11.0455 9.12021 11.0105C9.21805 10.9755 9.32237 10.9624 9.42582 10.9721C9.44879 10.9745 9.4727 10.9782 9.49426 10.9824C9.51582 10.9866 9.54114 10.9927 9.56083 10.9993C9.58051 11.0059 9.60489 11.0138 9.62598 11.0227C9.64708 11.0316 9.6677 11.0415 9.68786 11.0523C9.70801 11.0631 9.72817 11.0748 9.74739 11.0874C9.76661 11.1001 9.78489 11.1137 9.8027 11.1282C9.82051 11.1427 9.83786 11.1587 9.85379 11.1751C9.86973 11.1915 9.88567 11.2088 9.90067 11.2266C9.91567 11.2445 9.92879 11.2632 9.94145 11.282C9.95416 11.3012 9.9659 11.3211 9.97661 11.3415C9.98754 11.3618 9.99739 11.3824 10.0061 11.4034C10.015 11.4245 10.0225 11.4465 10.0296 11.4685C10.0366 11.4906 10.0418 11.5126 10.0465 11.5351C10.0511 11.5576 10.0544 11.582 10.0568 11.6035C10.0591 11.6251 10.06 11.6504 10.06 11.6724C10.06 11.6945 10.06 11.7193 10.0568 11.7418C10.0535 11.7643 10.0507 11.7887 10.0465 11.8098C10.0422 11.8309 10.0361 11.8566 10.0296 11.8768C10.023 11.897 10.015 11.9204 10.0061 11.9415C9.99723 11.9626 9.98739 11.9837 9.97661 12.0038C9.96582 12.024 9.95411 12.0437 9.94145 12.0629C9.92879 12.0821 9.91473 12.1004 9.90067 12.1182C9.88661 12.136 9.8702 12.1534 9.85379 12.1698C9.83739 12.1862 9.82051 12.2016 9.8027 12.2166C9.78489 12.2316 9.76614 12.2448 9.74739 12.2574C9.72864 12.2701 9.70801 12.2818 9.68786 12.2926C9.6677 12.3034 9.64708 12.3132 9.62598 12.3221C9.60489 12.331 9.58286 12.3385 9.56083 12.3456C9.53879 12.3526 9.51676 12.3577 9.49426 12.3624C9.47176 12.3671 9.44739 12.3704 9.42582 12.3727C9.40426 12.3751 9.38083 12.3751 9.35786 12.3751Z" fill="#929292"/>
<path d="M14.562 12.3751C14.539 12.3751 14.5151 12.3751 14.4931 12.3718C14.4711 12.3685 14.4462 12.3657 14.4246 12.3615C14.4031 12.3573 14.3778 12.3512 14.3576 12.3446C14.3375 12.3381 14.314 12.3301 14.2929 12.3212C14.2718 12.3123 14.2512 12.3024 14.2311 12.2917C14.2106 12.2809 14.1908 12.2692 14.1715 12.2565C14.1528 12.2438 14.134 12.2302 14.1162 12.2157C14.0984 12.2012 14.0811 12.1852 14.0646 12.1688C14.0482 12.1524 14.0328 12.1351 14.0178 12.1173C14.0028 12.0995 13.9896 12.0807 13.977 12.062C13.9643 12.0427 13.9525 12.0229 13.9418 12.0024C13.9309 11.9821 13.9211 11.9615 13.9123 11.9406C13.9034 11.9195 13.8959 11.8974 13.8889 11.8759C13.8818 11.8543 13.8767 11.829 13.872 11.8088C13.8673 11.7887 13.864 11.762 13.8617 11.7409C13.8593 11.7198 13.8584 11.694 13.8584 11.6715C13.8584 11.649 13.8584 11.6246 13.8617 11.6021C13.865 11.5796 13.8678 11.5552 13.872 11.5342C13.8762 11.5131 13.8823 11.4873 13.8889 11.4671C13.8954 11.447 13.9034 11.4235 13.9123 11.4024C13.9212 11.3813 13.9311 11.3602 13.9418 11.3401C13.9526 11.3199 13.9643 11.3002 13.977 11.281C13.9896 11.2619 14.0032 11.2434 14.0178 11.2257C14.0323 11.2079 14.0482 11.1906 14.0646 11.1742C14.0811 11.1577 14.0984 11.1423 14.1162 11.1273C14.134 11.1123 14.1528 11.0991 14.1715 11.0865C14.1908 11.0738 14.2106 11.062 14.2311 11.0513C14.2514 11.0407 14.272 11.0309 14.2929 11.0218C14.314 11.0129 14.3361 11.0054 14.3576 10.9984C14.3792 10.9913 14.4045 10.9862 14.4246 10.9815C14.4448 10.9768 14.4715 10.9735 14.4931 10.9712C14.5391 10.967 14.5854 10.967 14.6314 10.9712C14.6539 10.9735 14.6782 10.9773 14.6993 10.9815C14.7204 10.9857 14.7462 10.9918 14.7664 10.9984C14.7865 11.0049 14.81 11.0129 14.8311 11.0218C14.8521 11.0307 14.8728 11.0406 14.8929 11.0513C14.9134 11.062 14.9332 11.0738 14.9525 11.0865C14.9712 11.0991 14.99 11.1127 15.0078 11.1273C15.0256 11.1418 15.0429 11.1577 15.0593 11.1742C15.0757 11.1906 15.0912 11.2079 15.1062 11.2257C15.1207 11.2434 15.1344 11.2619 15.147 11.281C15.1595 11.3004 15.1712 11.3201 15.1821 11.3401C15.1929 11.3602 15.2028 11.3813 15.2117 11.4024C15.2206 11.4235 15.2281 11.4456 15.2351 11.4671C15.2421 11.4887 15.2473 11.514 15.252 11.5342C15.2567 11.5543 15.26 11.581 15.2623 11.6021C15.2668 11.6489 15.2668 11.696 15.2623 11.7427C15.26 11.7652 15.2562 11.7896 15.252 11.8107C15.2478 11.8318 15.2417 11.8576 15.2351 11.8777C15.2286 11.8979 15.2206 11.9213 15.2117 11.9424C15.2028 11.9635 15.1929 11.9842 15.1821 12.0043C15.1714 12.0247 15.1597 12.0446 15.147 12.0638C15.1343 12.0826 15.1207 12.1013 15.1062 12.1192C15.0917 12.137 15.0757 12.1543 15.0593 12.1707C15.0429 12.1871 15.0256 12.2026 15.0078 12.2176C14.99 12.2326 14.9712 12.2457 14.9525 12.2584C14.9332 12.2711 14.9134 12.2828 14.8929 12.2935C14.8726 12.3042 14.852 12.314 14.8311 12.3231C14.81 12.332 14.7879 12.3395 14.7664 12.3465C14.7448 12.3535 14.7218 12.3587 14.6993 12.3634C14.6768 12.3681 14.6525 12.3713 14.6314 12.3737C14.6103 12.376 14.585 12.3751 14.562 12.3751Z" fill="#929292"/>
<path d="M11.96 12.375C11.937 12.375 11.914 12.3739 11.8911 12.3717C11.8681 12.3693 11.8442 12.3656 11.8226 12.3614C11.8011 12.3571 11.7781 12.351 11.7561 12.3445C11.734 12.3379 11.7125 12.33 11.6914 12.321C11.6703 12.3121 11.6492 12.3023 11.629 12.2915C11.5884 12.2699 11.55 12.2444 11.5142 12.2156C11.4964 12.201 11.479 12.1851 11.4631 12.1687C11.4466 12.1523 11.431 12.1351 11.4162 12.1171C11.4017 12.0993 11.3876 12.0806 11.375 12.0618C11.3622 12.0426 11.3505 12.0227 11.3398 12.0023C11.3292 11.982 11.3193 11.9614 11.3103 11.9404C11.3018 11.9193 11.2939 11.8973 11.2873 11.8753C11.2805 11.8534 11.2748 11.8312 11.2704 11.8087C11.2612 11.7635 11.2567 11.7175 11.2568 11.6714C11.2568 11.6482 11.2579 11.625 11.2601 11.602C11.2624 11.5792 11.2659 11.5565 11.2704 11.534C11.2749 11.5114 11.2805 11.489 11.2873 11.467C11.2939 11.4454 11.3018 11.4234 11.3103 11.4023C11.3187 11.3812 11.329 11.3606 11.3398 11.3404C11.3505 11.32 11.3622 11.3001 11.375 11.2809C11.3876 11.2621 11.4017 11.2434 11.4162 11.2256C11.431 11.2076 11.4466 11.1904 11.4631 11.174C11.479 11.1581 11.4964 11.1421 11.5142 11.1271C11.55 11.0983 11.5884 11.0728 11.629 11.0512C11.6492 11.0404 11.6703 11.0306 11.6914 11.0217C11.7125 11.0128 11.734 11.0053 11.7561 10.9982C11.7781 10.9912 11.8006 10.986 11.8226 10.9814C11.8447 10.9767 11.8695 10.9734 11.8911 10.971C11.9378 10.9667 11.9849 10.9667 12.0317 10.971C12.0547 10.9734 12.0786 10.9771 12.0997 10.9814C12.1207 10.9856 12.1465 10.9917 12.1667 10.9982C12.1868 11.0048 12.2103 11.0128 12.2314 11.0217C12.2525 11.0306 12.2736 11.0404 12.2937 11.0512C12.3139 11.062 12.3336 11.0737 12.3528 11.0864C12.3721 11.099 12.3907 11.1126 12.4086 11.1271C12.4264 11.1417 12.4437 11.1576 12.4597 11.174C12.4761 11.1904 12.4918 11.2076 12.5065 11.2256C12.5211 11.2434 12.5347 11.2621 12.5478 11.2809C12.5605 11.3001 12.5722 11.32 12.5829 11.3404C12.5938 11.3605 12.6035 11.3812 12.612 11.4023C12.6209 11.4234 12.6287 11.445 12.6354 11.467C12.642 11.489 12.6476 11.5139 12.6523 11.534C12.6569 11.5565 12.6603 11.5792 12.6626 11.602C12.6649 11.625 12.666 11.6482 12.6659 11.6714C12.6661 11.7175 12.6615 11.7635 12.6523 11.8087C12.6476 11.8312 12.642 11.8556 12.6354 11.8753C12.6288 11.8974 12.621 11.9191 12.612 11.9404C12.6035 11.9616 12.5938 11.9822 12.5829 12.0023C12.5722 12.0225 12.5604 12.0426 12.5478 12.0618C12.5351 12.081 12.5211 12.0993 12.5065 12.1171C12.4918 12.1351 12.4761 12.1523 12.4597 12.1687C12.4437 12.1846 12.4264 12.2006 12.4086 12.2156C12.3907 12.2301 12.3721 12.2437 12.3528 12.2564C12.3337 12.2689 12.314 12.2806 12.2937 12.2915C12.2736 12.3023 12.2525 12.3121 12.2314 12.321C12.2103 12.33 12.1887 12.3375 12.1667 12.3445C12.1447 12.3515 12.1222 12.3567 12.0997 12.3614C12.0772 12.366 12.0528 12.3693 12.0317 12.3717C12.0079 12.374 11.9839 12.3751 11.96 12.375Z" fill="#929292"/>
</svg>
