<svg width="32" height="32" viewBox="0 0 32 32" fill="none" xmlns="http://www.w3.org/2000/svg">
<path d="M10.6548 10.3869H20.3484C20.6162 10.3869 20.8334 10.1701 20.8334 9.9023C20.8334 9.63449 20.6162 9.41699 20.3484 9.41699H10.6548C10.387 9.41699 10.1702 9.63449 10.1702 9.9023C10.1702 10.1701 10.387 10.3869 10.6548 10.3869Z" fill="#09090B"/>
<path d="M21.7555 12.71H12.6712C12.4035 12.71 12.1863 12.9268 12.1863 13.1946C12.1863 13.4624 12.4035 13.6799 12.6712 13.6799H21.7555C22.0232 13.6799 22.2401 13.4624 22.2401 13.1946C22.2401 12.9268 22.0232 12.71 21.7555 12.71Z" fill="#09090B"/>
<path d="M19.1685 16.0029H10.6548C10.387 16.0029 10.1702 16.2197 10.1702 16.4876C10.1702 16.7553 10.387 16.9722 10.6548 16.9722H19.1685C19.4359 16.9722 19.6531 16.7553 19.6531 16.4876C19.653 16.2197 19.4359 16.0029 19.1685 16.0029Z" fill="#09090B"/>
<path d="M24.7989 5.39258H7.20195C5.32745 5.39258 3.80176 6.8027 3.80176 8.53683V18.2137C3.80176 19.9471 5.32745 21.3573 7.20195 21.3573H17.5791L25.0673 26.6066V21.3481C26.8171 21.2208 28.1991 19.8636 28.1991 18.2137V8.53683C28.1991 6.8027 26.6734 5.39258 24.7989 5.39258ZM26.7445 18.2137C26.7445 19.1451 25.8713 19.9028 24.7988 19.9028H23.6127V23.8105L18.0381 19.9028H7.20188C6.12913 19.9028 5.2562 19.1451 5.2562 18.2137V8.53683C5.2562 7.60476 6.12913 6.84714 7.20188 6.84714H24.7988C25.8713 6.84714 26.7445 7.60483 26.7445 8.53683V18.2137Z" fill="#09090B"/>
</svg>
