<svg width="32" height="32" viewBox="0 0 32 32" fill="none" xmlns="http://www.w3.org/2000/svg">
<path d="M29.3333 24.0066C29.3333 24.7394 28.7392 25.3336 28.0064 25.3336H17.3269C16.5941 25.3336 16 24.7394 16 24.0066C16 23.2738 16.5941 22.6797 17.3269 22.6797H28.0064C28.7392 22.6797 29.3333 23.2738 29.3333 24.0066Z" fill="white"/>
<path d="M29.3337 16.0006C29.3337 16.7336 28.7395 17.3276 28.0067 17.3276H3.99391C3.26107 17.3276 2.66699 16.7336 2.66699 16.0006C2.66699 15.2678 3.26107 14.6738 3.99391 14.6738H28.0067C28.7395 14.6738 29.3337 15.2678 29.3337 16.0006Z" fill="white"/>
<path d="M28.0067 9.32085C28.7395 9.32085 29.3337 8.72675 29.3337 7.99391C29.3337 7.26107 28.7395 6.66699 28.0067 6.66699H11.9939C11.2611 6.66699 10.667 7.26107 10.667 7.99391C10.667 8.72675 11.2611 9.32085 11.9939 9.32085H28.0067Z" fill="white"/>
</svg>
