<svg width="80" height="81" viewBox="0 0 80 81" fill="none" xmlns="http://www.w3.org/2000/svg">
<g clipPath="url(#clip0_1_639)">
<path fill-rule="evenodd" clip-rule="evenodd" d="M40 80.5C62.0914 80.5 80 62.5914 80 40.5C80 18.4086 62.0914 0.5 40 0.5C17.9086 0.5 0 18.4086 0 40.5C0 62.5914 17.9086 80.5 40 80.5Z" fill="#424242"/>
<path fill-rule="evenodd" clip-rule="evenodd" d="M40.0002 45.1155L63.0771 25.1155H16.9232L40.0002 45.1155ZM33.7671 42.9015L40.0002 48.0177L46.1356 42.9015L63.0771 57.4232H16.9232L33.7671 42.9015ZM15.3848 55.8847V26.6539L32.3078 41.2693L15.3848 55.8847ZM64.6155 55.8847V26.6539L47.6925 41.2693L64.6155 55.8847Z" fill="white"/>
</g>
<defs>
<clipPath id="clip0_1_639">
<rect width="80" height="80" fill="white" transform="translate(0 0.5)"/>
</clipPath>
</defs>
</svg>
