<svg width="47" height="58" viewBox="0 0 47 58" fill="none" xmlns="http://www.w3.org/2000/svg">
<path d="M17.4678 20.3587V48.4481L23.6448 42.7246V25.2897L32.9986 34.1833V44.3095L38.3814 49.5928V32.6863L27.0863 22.3839V12.0815L17.4678 20.3587Z" fill="#5AA469"/>
<path fill-rule="evenodd" clip-rule="evenodd" d="M9.54048 19.4614C8.32938 20.5694 5.85136 22.8351 5.62808 23.0343L5.94533 25.2569L10.4078 29.2113L14.6529 26.0098L13.8464 23.0542L9.91002 25.4793L32.2096 6.0779L31.8883 11.8072L30.6549 11.738L31.2611 13.5359L32.2302 13.5902L32.1612 14.821C35.5775 15.3654 31.8561 18.6845 31.4902 15.7535C30.8786 16.6258 31.6461 17.7025 32.7033 17.7618C33.8965 17.8288 35.4796 15.5363 33.253 14.2649L33.2875 13.6495L34.2566 13.7039L35.2363 11.9949L33.9147 11.9208L34.3467 4.2186L36.6696 2.19763L36.3467 1.65036L33.8502 2.03951L12.6629 20.5184L9.54048 19.4614ZM32.417 11.8368L32.7671 5.59287L33.6222 4.84892L33.2278 11.8823L32.417 11.8368Z" fill="#5AA469"/>
<path fill-rule="evenodd" clip-rule="evenodd" d="M16.6733 26.0823L16.3203 26.4391V49.4168L16.6733 49.0645V26.0823Z" fill="#5AA469"/>
<path fill-rule="evenodd" clip-rule="evenodd" d="M15.9672 26.6106L15.6143 26.9746V50.2092L15.9672 49.857V26.6106Z" fill="#5AA469"/>
<path fill-rule="evenodd" clip-rule="evenodd" d="M15.2612 27.1389L14.9082 27.5128V50.9137L15.2612 50.5614V27.1389Z" fill="#5AA469"/>
<path d="M35.9102 18.1572L39.9693 21.8555V31.5415L35.9102 28.0193V18.1572Z" fill="#171717"/>
<path fill-rule="evenodd" clip-rule="evenodd" d="M32.5566 21.2123L35.9099 18.1572V19.9183L32.5566 22.828V21.2123Z" fill="#171717"/>
<path fill-rule="evenodd" clip-rule="evenodd" d="M35.9099 20.7988L32.5566 23.8539V25.0254L32.8024 25.2563L35.9099 22.5599V20.7988Z" fill="#171717"/>
<path fill-rule="evenodd" clip-rule="evenodd" d="M35.9096 23.4404L33.3506 25.772L34.3013 26.5971L35.9096 25.2015V23.4404Z" fill="#171717"/>
<path d="M27.1748 43.6931L10.6729 54.6119H14.535V53.5552L27.1748 47.0392L39.8146 53.5552V54.6119H43.8523L27.1748 43.6931Z" fill="#171717"/>
<path d="M25.1445 48.8005L26.9094 48.4482V50.2093H25.1445V48.8005Z" fill="#171717"/>
<path d="M27.2627 48.4482L29.0276 48.8005V50.2093H27.2627V48.4482Z" fill="#171717"/>
<rect x="25.1445" y="50.5615" width="1.76487" height="1.76109" fill="#171717"/>
<rect x="27.2627" y="50.5615" width="1.76487" height="1.76109" fill="#171717"/>
<path d="M46.8978 57.9574C46.8978 58.3532 37.9209 55.8075 26.8473 55.8075C15.7738 55.8075 6.79688 58.3532 6.79688 57.9574C6.79688 57.5616 15.7738 54.3743 26.8473 54.3743C37.9209 54.3743 46.8978 57.5616 46.8978 57.9574Z" fill="#171717"/>
<path d="M15.0092 4.8333C20.218 2.08969 26.1438 1.05257 31.9502 1.84216L30.6232 3.01113C25.4597 2.5341 21.4806 3.55911 16.8584 5.99373C11.3843 8.87706 7.25392 13.5602 4.84406 19.2495C2.4342 24.9389 2.06954 31.2847 3.81187 37.2116C5.5542 43.1386 7.88447 48.2822 12.9924 51.7711L12.9321 51.859L11.8566 52.5805C6.69942 48.928 2.92088 43.6453 1.13816 37.581C-0.689548 31.3636 -0.307016 24.7068 2.22093 18.7387C4.74889 12.7705 9.26679 7.85792 15.0092 4.8333Z" fill="#171717"/>
</svg>
