<svg width="44" height="44" viewBox="0 0 44 44" fill="none" xmlns="http://www.w3.org/2000/svg">
<rect y="0.00012207" width="44" height="44" rx="4" fill="#FFD5D5"/>
<path d="M29.4643 37.0001H14.5358C13.2262 37.0001 12.3096 35.9335 12.3096 34.7335V14.7335H31.6905V34.6001C31.6905 35.9335 30.6429 37.0001 29.4643 37.0001Z" stroke="#FF0000" stroke-width="2" stroke-miterlimit="10" stroke-linecap="round" stroke-linejoin="round"/>
<path d="M33 13.9335V11.5335C33 10.6001 32.2143 9.80012 31.2976 9.80012H26.4524L25.9286 7.80012C25.6667 7.26679 25.2738 7.00012 24.619 7.00012H19.381C18.8571 7.00012 18.3333 7.26679 18.0714 7.80012L17.5476 9.66679H12.7024C11.7857 9.66679 11 10.4668 11 11.4001V13.9335C11 14.3335 11.3929 14.7335 11.7857 14.7335H32.2143C32.7381 14.7335 33 14.3335 33 13.9335Z" stroke="#FF0000" stroke-width="2" stroke-miterlimit="10" stroke-linecap="round" stroke-linejoin="round"/>
<path d="M17.8096 19.5334V32.2001" stroke="#FF0000" stroke-width="2" stroke-miterlimit="10" stroke-linecap="round" stroke-linejoin="round"/>
<path d="M22 19.5334V32.2001" stroke="#FF0000" stroke-width="2" stroke-miterlimit="10" stroke-linecap="round" stroke-linejoin="round"/>
<path d="M26.1904 19.5334V32.2001" stroke="#FF0000" stroke-width="2" stroke-miterlimit="10" stroke-linecap="round" stroke-linejoin="round"/>
</svg>
