<svg width="23" height="28" viewBox="0 0 23 28" fill="none" xmlns="http://www.w3.org/2000/svg">
<path d="M1.62207 10.6973V3.91797C1.62207 2.18991 3.02292 0.789062 4.75098 0.789062H15.208C15.845 0.789062 16.4566 1.03882 16.9115 1.48476L20.0655 4.5764L21.1341 5.72463C21.5532 6.17499 21.7861 6.76732 21.7861 7.3825V24.082C21.7861 25.8101 20.3853 27.2109 18.6572 27.2109H4.75098C3.02292 27.2109 1.62207 25.8101 1.62207 24.082V23.0391" stroke="black" stroke-width="1.24186" stroke-linecap="round"/>
<path d="M15.876 1.13672V6.00391C15.876 6.57994 16.3429 7.04688 16.9189 7.04688H21.7861" stroke="black" stroke-width="1.24186"/>
<path d="M0.926758 19.4096V14.5563C0.926758 14.5053 0.940664 14.4682 0.968476 14.445C0.996289 14.4172 1.03105 14.4033 1.07277 14.4033H3.30473C3.54113 14.4033 3.75668 14.452 3.95137 14.5493C4.15068 14.6467 4.31988 14.7741 4.45895 14.9318C4.60263 15.0893 4.71388 15.2701 4.7927 15.4741C4.87151 15.6734 4.9109 15.8797 4.9109 16.0929C4.9109 16.3015 4.87151 16.5055 4.7927 16.7048C4.71854 16.9041 4.61191 17.0826 4.47285 17.2402C4.33379 17.3978 4.16691 17.5253 3.97223 17.6226C3.77754 17.7153 3.56199 17.7617 3.32559 17.7617H2.26176V19.4096C2.26176 19.5115 2.20846 19.5625 2.10184 19.5625H1.07277C0.975429 19.5625 0.926758 19.5115 0.926758 19.4096ZM3.0127 15.5019H2.26176V16.6631H3.0127C3.18419 16.6631 3.3163 16.6051 3.40902 16.4893C3.50174 16.3687 3.54809 16.2343 3.54809 16.086C3.54809 16.0164 3.53418 15.9469 3.50637 15.8774C3.48318 15.8079 3.44841 15.7453 3.40207 15.6896C3.36035 15.634 3.30473 15.59 3.2352 15.5575C3.17029 15.5204 3.09613 15.5019 3.0127 15.5019ZM5.65968 19.4096V14.5563C5.65968 14.4543 5.70835 14.4033 5.8057 14.4033H7.61347C7.93798 14.4033 8.2532 14.4705 8.55913 14.605C8.8697 14.7394 9.14549 14.9225 9.38652 15.1543C9.62759 15.386 9.81994 15.6595 9.96367 15.9747C10.112 16.2899 10.1862 16.626 10.1862 16.9829C10.1862 17.3213 10.1189 17.6458 9.98452 17.9564C9.85009 18.2669 9.66698 18.5427 9.43519 18.7838C9.20345 19.0202 8.92994 19.2102 8.61476 19.3539C8.30416 19.493 7.97041 19.5625 7.61347 19.5625H5.8057C5.70835 19.5625 5.65968 19.5115 5.65968 19.4096ZM8.83722 16.9829C8.83722 16.7975 8.80249 16.6237 8.73296 16.4614C8.66805 16.2946 8.57533 16.1508 8.45484 16.0304C8.3343 15.9098 8.19058 15.8148 8.02371 15.7453C7.86149 15.6711 7.68304 15.634 7.48835 15.634H7.00163V18.3318H7.48835C7.68304 18.3318 7.86149 18.2971 8.02371 18.2275C8.19058 18.1533 8.3343 18.056 8.45484 17.9355C8.57533 17.815 8.66805 17.6736 8.73296 17.5114C8.80249 17.3445 8.83722 17.1683 8.83722 16.9829ZM10.997 19.4096V14.5563C10.997 14.4543 11.0457 14.4033 11.1431 14.4033H14.4597C14.557 14.4033 14.6057 14.4543 14.6057 14.5563V15.4463C14.6057 15.5483 14.557 15.5993 14.4597 15.5993H12.339V16.67H13.8896C13.9915 16.67 14.0425 16.7233 14.0425 16.83V17.6713C14.0425 17.7733 13.9915 17.8243 13.8896 17.8243H12.339V19.4096C12.339 19.5115 12.288 19.5625 12.186 19.5625H11.1431C11.0457 19.5625 10.997 19.5115 10.997 19.4096Z" fill="black"/>
<path d="M0.926758 19.4096V14.5563C0.926758 14.5053 0.940664 14.4682 0.968476 14.445C0.996289 14.4172 1.03105 14.4033 1.07277 14.4033H3.30473C3.54113 14.4033 3.75668 14.452 3.95137 14.5493C4.15068 14.6467 4.31988 14.7741 4.45895 14.9318C4.60263 15.0893 4.71388 15.2701 4.79269 15.4741C4.87151 15.6734 4.9109 15.8797 4.9109 16.0929C4.9109 16.3015 4.87151 16.5055 4.79269 16.7048C4.71854 16.9041 4.61191 17.0826 4.47285 17.2402C4.33379 17.3978 4.16691 17.5253 3.97223 17.6226C3.77754 17.7153 3.56199 17.7617 3.32559 17.7617H2.26176V19.4096C2.26176 19.5115 2.20846 19.5625 2.10184 19.5625H1.07277C0.975429 19.5625 0.926758 19.5115 0.926758 19.4096ZM3.0127 15.5019H2.26176V16.6631H3.0127C3.18419 16.6631 3.3163 16.6051 3.40902 16.4893C3.50174 16.3687 3.54809 16.2343 3.54809 16.086C3.54809 16.0164 3.53418 15.9469 3.50637 15.8774C3.48318 15.8079 3.44841 15.7453 3.40207 15.6896C3.36035 15.634 3.30473 15.59 3.2352 15.5575C3.17029 15.5204 3.09613 15.5019 3.0127 15.5019ZM5.65968 19.4096V14.5563C5.65968 14.4543 5.70835 14.4033 5.8057 14.4033H7.61347C7.93798 14.4033 8.2532 14.4705 8.55913 14.605C8.86969 14.7394 9.14549 14.9225 9.38652 15.1543C9.62758 15.386 9.81994 15.6595 9.96367 15.9747C10.112 16.2899 10.1862 16.626 10.1862 16.9829C10.1862 17.3213 10.1189 17.6458 9.98452 17.9564C9.85009 18.2669 9.66698 18.5427 9.43519 18.7838C9.20345 19.0202 8.92994 19.2102 8.61476 19.3539C8.30416 19.493 7.97041 19.5625 7.61347 19.5625H5.8057C5.70835 19.5625 5.65968 19.5115 5.65968 19.4096ZM8.83722 16.9829C8.83722 16.7975 8.80249 16.6237 8.73296 16.4614C8.66805 16.2946 8.57533 16.1508 8.45484 16.0304C8.3343 15.9098 8.19058 15.8148 8.02371 15.7453C7.86149 15.6711 7.68304 15.634 7.48835 15.634H7.00163V18.3318H7.48835C7.68304 18.3318 7.86149 18.2971 8.02371 18.2275C8.19058 18.1533 8.3343 18.056 8.45484 17.9355C8.57533 17.815 8.66805 17.6736 8.73296 17.5114C8.80249 17.3445 8.83722 17.1683 8.83722 16.9829ZM10.997 19.4096V14.5563C10.997 14.4543 11.0457 14.4033 11.1431 14.4033H14.4597C14.557 14.4033 14.6057 14.4543 14.6057 14.5563V15.4463C14.6057 15.5483 14.557 15.5993 14.4597 15.5993H12.339V16.67H13.8896C13.9915 16.67 14.0425 16.7233 14.0425 16.83V17.6713C14.0425 17.7733 13.9915 17.8243 13.8896 17.8243H12.339V19.4096C12.339 19.5115 12.288 19.5625 12.186 19.5625H11.1431C11.0457 19.5625 10.997 19.5115 10.997 19.4096Z" stroke="black" stroke-width="0.173828"/>
</svg>
