<svg width="52" height="46" viewBox="0 0 52 46" fill="none" xmlns="http://www.w3.org/2000/svg">
<rect width="51.8568" height="46" rx="4" fill="#DDF1FF"/>
<path d="M9.99949 6H33.912C36.1083 6 37.8961 7.78785 37.8961 9.98413V23.8246H41.8726C44.0688 23.8169 45.8567 25.6047 45.8567 27.801V36.0159C45.8567 38.2121 44.0688 40 41.8726 40H31.5462C29.3499 40 27.562 38.2121 27.562 36.0159V33.9737H9.98407C7.78779 33.9737 5.99994 32.1859 5.99994 29.9896V9.98413C6.01535 7.78785 7.8032 6 9.99949 6ZM29.9279 36.0159C29.9279 36.9098 30.6522 37.6419 31.5539 37.6419H41.8803C42.7742 37.6419 43.5063 36.9175 43.5063 36.0159V27.801C43.5063 26.9071 42.7819 26.175 41.8803 26.175H37.8961V29.9896C37.8961 32.1859 36.1083 33.9737 33.912 33.9737H29.9279V36.0159ZM29.9279 31.6156H33.912C34.8059 31.6156 35.538 30.8912 35.538 29.9896V26.175H31.5539C30.66 26.175 29.9279 26.8994 29.9279 27.801V31.6156ZM8.37346 29.9896C8.37346 30.8835 9.09785 31.6156 9.99949 31.6156H27.5697V27.801C27.5697 25.6047 29.3576 23.8169 31.5539 23.8169H35.538V9.98413C35.538 9.09021 34.8136 8.35811 33.912 8.35811H9.99949C9.10556 8.35811 8.37346 9.0825 8.37346 9.98413V29.9896Z" fill="black"/>
<path d="M18.2915 13.5213H15.4016L23.2389 19.5939L21.7901 21.4588L13.4982 15.0317V18.1913H11.1478V11.1632H18.2915V13.5213Z" fill="black"/>
</svg>
