<svg width="167" height="71" viewBox="0 0 167 71" fill="none" xmlns="http://www.w3.org/2000/svg">
<path d="M81.3612 1.30592C82.0055 -0.435312 84.4683 -0.435306 85.1126 1.30593L86.8101 5.89335C89.3423 12.7363 94.7375 18.1316 101.58 20.6637L106.168 22.3612C107.909 23.0055 107.909 25.4683 106.168 26.1126L101.58 27.8101C94.7375 30.3423 89.3422 35.7375 86.8101 42.5805L85.1126 47.1679C84.4683 48.9092 82.0055 48.9091 81.3612 47.1679L79.6637 42.5805C77.1316 35.7375 71.7363 30.3422 64.8933 27.8101L60.3059 26.1126C58.5647 25.4683 58.5647 23.0055 60.3059 22.3612L64.8933 20.6637C71.7363 18.1316 77.1316 12.7363 79.6637 5.89334L81.3612 1.30592Z" fill="#E31736"/>
<path d="M153.829 12.6324C154.141 11.7892 155.333 11.7892 155.645 12.6324L156.467 14.8539C157.693 18.1677 160.306 20.7804 163.62 22.0066L165.841 22.8286C166.685 23.1406 166.685 24.3332 165.841 24.6452L163.62 25.4673C160.306 26.6935 157.693 29.3062 156.467 32.6199L155.645 34.8414C155.333 35.6846 154.141 35.6846 153.829 34.8414L153.007 32.6199C151.78 29.3062 149.168 26.6935 145.854 25.4673L143.632 24.6452C142.789 24.3332 142.789 23.1406 143.632 22.8286L145.854 22.0066C149.168 20.7804 151.78 18.1677 153.007 14.8539L153.829 12.6324Z" fill="#E31736"/>
<path d="M10.8286 12.6324C11.1406 11.7892 12.3332 11.7892 12.6452 12.6324L13.4673 14.8539C14.6935 18.1677 17.3062 20.7804 20.6199 22.0066L22.8414 22.8286C23.6846 23.1406 23.6846 24.3332 22.8414 24.6452L20.6199 25.4673C17.3062 26.6935 14.6935 29.3062 13.4673 32.6199L12.6452 34.8414C12.3332 35.6846 11.1406 35.6846 10.8286 34.8414L10.0066 32.6199C8.78036 29.3062 6.16766 26.6935 2.8539 25.4673L0.632404 24.6452C-0.210803 24.3332 -0.2108 23.1406 0.632407 22.8286L2.8539 22.0066C6.16767 20.7804 8.78036 18.1677 10.0066 14.8539L10.8286 12.6324Z" fill="#E31736"/>
<ellipse cx="83" cy="66.5" rx="68" ry="4.5" fill="#09090B"/>
</svg>
