<svg width="27" height="28" viewBox="0 0 27 28" fill="none" xmlns="http://www.w3.org/2000/svg">
<path fill-rule="evenodd" clip-rule="evenodd" d="M20.738 2C20.738 0.896 19.842 0 18.738 0H8.07129C6.96729 0 6.07129 0.896 6.07129 2V6.66667C6.07129 7.03467 6.36996 7.33333 6.73796 7.33333H20.0713C20.4393 7.33333 20.738 7.03467 20.738 6.66667V2ZM19.4046 2V6H7.40462V2C7.40462 1.632 7.70329 1.33333 8.07129 1.33333H18.738C19.106 1.33333 19.4046 1.632 19.4046 2Z" fill="black"/>
<path fill-rule="evenodd" clip-rule="evenodd" d="M20.0706 20.6667H24.0706C25.1746 20.6667 26.0706 19.772 26.0706 18.6667V8C26.0706 6.896 25.1746 6 24.0706 6C19.8693 6 6.93864 6 2.7373 6C1.6333 6 0.737305 6.896 0.737305 8V18.6667C0.737305 19.772 1.6333 20.6667 2.7373 20.6667C3.6893 20.6667 5.09064 20.6667 6.7373 20.6667C7.1053 20.6667 7.40397 20.368 7.40397 20C7.40397 19.632 7.1053 19.3333 6.7373 19.3333H2.7373C2.3693 19.3333 2.07064 19.0347 2.07064 18.6667V8C2.07064 7.632 2.3693 7.33333 2.7373 7.33333H24.0706C24.4386 7.33333 24.7373 7.632 24.7373 8V18.6667C24.7373 19.0347 24.4386 19.3333 24.0706 19.3333H20.0706C19.7026 19.3333 19.404 19.632 19.404 20C19.404 20.368 19.7026 20.6667 20.0706 20.6667Z" fill="black"/>
<path fill-rule="evenodd" clip-rule="evenodd" d="M20.738 15.3332C20.738 14.9652 20.4393 14.6665 20.0713 14.6665H6.73796C6.36996 14.6665 6.07129 14.9652 6.07129 15.3332V27.3332C6.07129 27.7012 6.36996 27.9998 6.73796 27.9998H20.0713C20.4393 27.9998 20.738 27.7012 20.738 27.3332V15.3332ZM19.4046 15.9998V26.6665H7.40462V15.9998H19.4046Z" fill="black"/>
<path fill-rule="evenodd" clip-rule="evenodd" d="M21.404 14.6667H5.40397C5.03597 14.6667 4.7373 14.9653 4.7373 15.3333C4.7373 15.7013 5.03597 16 5.40397 16H21.404C21.772 16 22.0706 15.7013 22.0706 15.3333C22.0706 14.9653 21.772 14.6667 21.404 14.6667ZM16.0706 18.6667H10.7373C10.3693 18.6667 10.0706 18.9653 10.0706 19.3333C10.0706 19.7013 10.3693 20 10.7373 20H16.0706C16.4386 20 16.7373 19.7013 16.7373 19.3333C16.7373 18.9653 16.4386 18.6667 16.0706 18.6667ZM16.0706 22.6667H10.7373C10.3693 22.6667 10.0706 22.9653 10.0706 23.3333C10.0706 23.7013 10.3693 24 10.7373 24H16.0706C16.4386 24 16.7373 23.7013 16.7373 23.3333C16.7373 22.9653 16.4386 22.6667 16.0706 22.6667ZM21.404 10H18.7373C18.3693 10 18.0706 10.2987 18.0706 10.6667C18.0706 11.0347 18.3693 11.3333 18.7373 11.3333H21.404C21.772 11.3333 22.0706 11.0347 22.0706 10.6667C22.0706 10.2987 21.772 10 21.404 10Z" fill="black"/>
</svg>
