<svg width="32" height="32" viewBox="0 0 32 32" fill="none" xmlns="http://www.w3.org/2000/svg">
<path d="M21.5312 18.625C22.4688 17.15 23.0187 15.4 23.0187 13.5188C23.0187 8.2625 18.7625 4 13.5125 4C8.25625 4 4 8.2625 4 13.5188C4 18.775 8.25625 23.0375 13.5063 23.0375C15.4125 23.0375 17.1875 22.475 18.675 21.5125L19.1063 21.2125L25.8937 28L28 25.8563L21.2188 19.0688L21.5312 18.625ZM18.8375 8.2C20.2563 9.61875 21.0375 11.5062 21.0375 13.5125C21.0375 15.5187 20.2563 17.4063 18.8375 18.825C17.4187 20.2438 15.5312 21.025 13.525 21.025C11.5187 21.025 9.63125 20.2438 8.2125 18.825C6.79375 17.4063 6.0125 15.5187 6.0125 13.5125C6.0125 11.5062 6.79375 9.61875 8.2125 8.2C9.63125 6.78125 11.5187 6 13.525 6C15.5312 6 17.4187 6.78125 18.8375 8.2Z" fill="#09090B"/>
</svg>
