<svg width="44" height="44" viewBox="0 0 44 44" fill="none" xmlns="http://www.w3.org/2000/svg">
<rect width="44" height="44" rx="6" fill="#F4FFF2"/>
<path d="M23.7841 17.7438C23.1163 18.2199 22.299 18.4999 21.4163 18.4999C19.1612 18.4999 17.333 16.6717 17.333 14.4166C17.333 12.1614 19.1612 10.3333 21.4163 10.3333C22.8782 10.3333 24.1606 11.1014 24.8819 12.2561M14.9997 31.4349H18.045C18.4421 31.4349 18.8367 31.4822 19.2216 31.5767L22.4394 32.3586C23.1376 32.5287 23.8649 32.5452 24.5704 32.4082L28.1281 31.7161C29.068 31.533 29.9325 31.0829 30.6101 30.4238L33.1272 27.9752C33.846 27.2772 33.846 26.1444 33.1272 25.4452C32.48 24.8156 31.4552 24.7447 30.723 25.2786L27.7894 27.4189C27.3692 27.726 26.858 27.8914 26.3323 27.8914H23.4994L25.3026 27.8913C26.3189 27.8913 27.1422 27.0905 27.1422 26.1018V25.7439C27.1422 24.923 26.5678 24.2072 25.7494 24.0088L22.9664 23.332C22.5135 23.2221 22.0496 23.1666 21.5833 23.1666C20.4577 23.1666 18.4202 24.0985 18.4202 24.0985L14.9997 25.5289M31.333 15.5833C31.333 17.8384 29.5048 19.6666 27.2497 19.6666C24.9945 19.6666 23.1663 17.8384 23.1663 15.5833C23.1663 13.3281 24.9945 11.4999 27.2497 11.4999C29.5048 11.4999 31.333 13.3281 31.333 15.5833ZM10.333 25.0333L10.333 31.7999C10.333 32.4533 10.333 32.78 10.4602 33.0296C10.572 33.2491 10.7505 33.4276 10.97 33.5394C11.2196 33.6666 11.5463 33.6666 12.1997 33.6666H13.133C13.7864 33.6666 14.1131 33.6666 14.3627 33.5394C14.5822 33.4276 14.7607 33.2491 14.8725 33.0296C14.9997 32.78 14.9997 32.4533 14.9997 31.7999V25.0333C14.9997 24.3799 14.9997 24.0532 14.8725 23.8036C14.7607 23.5841 14.5822 23.4056 14.3627 23.2937C14.1131 23.1666 13.7864 23.1666 13.133 23.1666L12.1997 23.1666C11.5463 23.1666 11.2196 23.1666 10.97 23.2937C10.7505 23.4056 10.572 23.5841 10.4602 23.8036C10.333 24.0532 10.333 24.3799 10.333 25.0333Z" stroke="#5AA469" stroke-width="2" stroke-linecap="round" stroke-linejoin="round"/>
</svg>
