<svg width="44" height="44" viewBox="0 0 44 44" fill="none" xmlns="http://www.w3.org/2000/svg">
<rect width="44" height="44" rx="6" fill="#F4FFF2"/>
<path d="M18.5 16.1667H13.3667C12.7133 16.1667 12.3866 16.1667 12.137 16.2938C11.9175 16.4057 11.739 16.5842 11.6272 16.8037C11.5 17.0532 11.5 17.3799 11.5 18.0333V30.6333C11.5 31.2867 11.5 31.6134 11.6272 31.863C11.739 32.0825 11.9175 32.261 12.137 32.3728C12.3866 32.5 12.7133 32.5 13.3667 32.5H18.5M18.5 32.5H25.5M18.5 32.5L18.5 13.3667C18.5 12.7133 18.5 12.3866 18.6272 12.137C18.739 11.9175 18.9175 11.739 19.137 11.6272C19.3866 11.5 19.7133 11.5 20.3667 11.5L23.6333 11.5C24.2867 11.5 24.6134 11.5 24.863 11.6272C25.0825 11.739 25.261 11.9175 25.3728 12.137C25.5 12.3866 25.5 12.7133 25.5 13.3667V32.5M25.5 20.8333H30.6333C31.2867 20.8333 31.6134 20.8333 31.863 20.9605C32.0825 21.0723 32.261 21.2508 32.3728 21.4703C32.5 21.7199 32.5 22.0466 32.5 22.7V30.6333C32.5 31.2867 32.5 31.6134 32.3728 31.863C32.261 32.0825 32.0825 32.261 31.863 32.3728C31.6134 32.5 31.2867 32.5 30.6333 32.5H25.5" stroke="#5AA469" stroke-width="2" stroke-linecap="round" stroke-linejoin="round"/>
</svg>
