<svg width="135" height="57" viewBox="0 0 135 57" fill="none" xmlns="http://www.w3.org/2000/svg">
<path d="M3.02862 43.1375V43.6424L5.93373 43.6351C6.07032 43.6351 6.17033 43.6034 6.23375 43.54C6.29717 43.4717 6.32888 43.3326 6.32888 43.1229C6.32888 42.957 6.31424 42.8375 6.28497 42.7643C6.2557 42.6863 6.21424 42.6375 6.16057 42.618C6.10691 42.5984 6.02885 42.5887 5.92641 42.5887H1.95293V41.6154H6.37278C6.66061 41.6154 6.90209 41.6886 7.09723 41.835C7.29725 41.9813 7.39725 42.2301 7.39725 42.5814V43.5693C7.39725 43.7205 7.36798 43.8376 7.30944 43.9205C7.6119 44.0571 7.76314 44.2864 7.76314 44.6084V45.9036C7.7485 46.4597 7.42652 46.7378 6.79721 46.7378H1.95293V43.1375H3.02862ZM6.29961 45.7645C6.44108 45.7645 6.54353 45.7304 6.60695 45.6621C6.67037 45.5938 6.70208 45.4474 6.70208 45.223C6.70208 44.9889 6.66793 44.8303 6.59963 44.7474C6.53621 44.6596 6.43376 44.6157 6.29229 44.6157H3.02862V45.7645H6.29961ZM12.8014 43.079V45.5157C12.7966 45.745 12.7405 45.9524 12.6331 46.1377C12.5258 46.3231 12.3819 46.4695 12.2014 46.5768C12.0209 46.6841 11.816 46.7378 11.5867 46.7378H9.41338C9.18409 46.7378 8.9792 46.6841 8.7987 46.5768C8.61819 46.4695 8.47428 46.3231 8.36696 46.1377C8.25963 45.9524 8.20353 45.745 8.19865 45.5157V43.079H9.26703V45.1938C9.26703 45.3596 9.2963 45.4962 9.35484 45.6036C9.41826 45.7109 9.53534 45.7645 9.70608 45.7645H11.294C11.4648 45.7645 11.5794 45.7109 11.6379 45.6036C11.7014 45.4962 11.7331 45.3596 11.7331 45.1938V43.079H12.8014ZM14.3122 42.6399H13.2438V41.6154H14.3122V42.6399ZM13.2438 46.7378V43.079H14.3122V46.7378H13.2438ZM14.7517 46.7378V41.2496H15.82V46.7378H14.7517ZM20.8623 41.2496V45.2743H19.7939V44.0595H17.7377C17.5767 44.0595 17.4669 44.1156 17.4084 44.2278C17.3498 44.3352 17.323 44.484 17.3279 44.6742V45.1938C17.3279 45.3596 17.3571 45.4962 17.4157 45.6036C17.4791 45.7109 17.5962 45.7645 17.7669 45.7645H20.8623V46.7378H17.4742C17.2449 46.7378 17.04 46.6841 16.8595 46.5768C16.679 46.4695 16.5351 46.3231 16.4278 46.1377C16.3205 45.9524 16.2644 45.745 16.2595 45.5157V44.1181C16.2644 43.9132 16.3229 43.7327 16.4351 43.5766C16.5522 43.4156 16.6985 43.2936 16.8742 43.2107C17.0547 43.1278 17.2376 43.0863 17.423 43.0863H19.7939V41.2496H20.8623ZM22.373 42.6399H21.3047V41.6154H22.373V42.6399ZM21.3047 46.7378V43.079H22.373V46.7378H21.3047ZM22.8125 46.7378V43.079H23.8809V46.7378H22.8125ZM26.3469 44.623C26.3469 44.4522 26.3152 44.3157 26.2518 44.2132C26.1932 44.1059 26.0786 44.0522 25.9079 44.0522H24.3712V43.079H26.2006C26.4299 43.079 26.6347 43.1326 26.8152 43.24C26.9957 43.3473 27.1397 43.4936 27.247 43.679C27.3543 43.8644 27.4104 44.0717 27.4153 44.301V46.7378H26.3469V44.623ZM32.4605 43.079V46.9793C32.4605 47.2086 32.4068 47.4159 32.2995 47.6013C32.197 47.7867 32.0531 47.933 31.8677 48.0403C31.6824 48.1477 31.475 48.2013 31.2457 48.2013H29.3651V47.2281H30.953C31.1238 47.2281 31.2384 47.1744 31.297 47.0671C31.3604 46.9646 31.3921 46.828 31.3921 46.6573V44.0522H29.3358C29.0529 44.0522 28.9163 44.2327 28.926 44.5937V45.1938C28.926 45.3596 28.9553 45.4962 29.0139 45.6036C29.0773 45.7109 29.1944 45.7645 29.3651 45.7645H30.9018V46.7378H29.0724C28.8431 46.7378 28.6382 46.6841 28.4577 46.5768C28.2772 46.4695 28.1333 46.3231 28.026 46.1377C27.9186 45.9524 27.8625 45.745 27.8577 45.5157V44.1108C27.8625 43.9059 27.9211 43.7254 28.0333 43.5693C28.1504 43.4083 28.2967 43.2863 28.4724 43.2034C28.6529 43.1204 28.8358 43.079 29.0212 43.079H32.4605ZM34.3678 41.6154H40.1707V42.6911H34.3678V41.6154ZM36.7387 43.24H37.8071V46.7378H36.7387V43.24ZM41.3575 44.6303L43.2894 44.3083C43.2894 44.2303 43.2552 44.1693 43.1869 44.1254C43.1186 44.0815 43.0308 44.0595 42.9235 44.0595H41.277C41.116 44.0595 41.0063 44.1156 40.9477 44.2278C40.8892 44.3352 40.8624 44.484 40.8672 44.6742V45.1938C40.8672 45.3596 40.8965 45.4962 40.955 45.6036C41.0185 45.7109 41.1355 45.7645 41.3063 45.7645H43.8675V46.7378H41.0136C40.7843 46.7378 40.5794 46.6841 40.3989 46.5768C40.2184 46.4695 40.0745 46.3231 39.9672 46.1377C39.8598 45.9524 39.8037 45.745 39.7989 45.5157V44.1181C39.8037 43.9132 39.8623 43.7327 39.9745 43.5766C40.0916 43.4156 40.2379 43.2936 40.4135 43.2107C40.594 43.1278 40.777 43.0863 40.9624 43.0863H43.2382C43.4235 43.0863 43.604 43.1278 43.7797 43.2107C43.9602 43.2936 44.1065 43.4156 44.2187 43.5766C44.3358 43.7327 44.3968 43.9132 44.4017 44.1181L44.409 44.3157C44.409 44.7742 44.1968 45.0303 43.7723 45.084L41.3575 45.4499V44.6303ZM46.3222 44.0595C46.1612 44.0595 46.0514 44.1156 45.9929 44.2278C45.9344 44.3352 45.9075 44.484 45.9124 44.6742V45.1938C45.9124 45.3596 45.9417 45.4962 46.0002 45.6036C46.0636 45.7109 46.1807 45.7645 46.3515 45.7645H47.9394C48.1101 45.7645 48.2248 45.7109 48.2833 45.6036C48.3467 45.4962 48.3785 45.3596 48.3785 45.1938H49.4468V45.5157C49.442 45.745 49.3859 45.9524 49.2785 46.1377C49.1712 46.3231 49.0273 46.4695 48.8468 46.5768C48.6663 46.6841 48.4614 46.7378 48.2321 46.7378H46.0588C45.8295 46.7378 45.6246 46.6841 45.4441 46.5768C45.2636 46.4695 45.1197 46.3231 45.0123 46.1377C44.905 45.9524 44.8489 45.745 44.844 45.5157V44.1181C44.8489 43.9132 44.9075 43.7327 45.0197 43.5766C45.1367 43.4156 45.2831 43.2936 45.4587 43.2107C45.6392 43.1278 45.8222 43.0863 46.0075 43.0863H48.2833C48.4687 43.0863 48.6492 43.1278 48.8248 43.2107C49.0053 43.2936 49.1517 43.4156 49.2639 43.5766C49.381 43.7327 49.442 43.9132 49.4468 44.1181V44.5645H48.3785C48.3687 44.4035 48.3321 44.2791 48.2687 44.1913C48.2101 44.1034 48.1101 44.0595 47.9687 44.0595H46.3222ZM49.8892 46.7378V41.2496H50.9576V46.7378H49.8892ZM53.4236 44.623C53.4236 44.4522 53.3919 44.3157 53.3285 44.2132C53.27 44.1059 53.1553 44.0522 52.9846 44.0522H51.4479V43.079H53.2773C53.5066 43.079 53.7115 43.1326 53.892 43.24C54.0725 43.3473 54.2164 43.4936 54.3237 43.679C54.431 43.8644 54.4871 44.0717 54.492 44.301V46.7378H53.4236V44.623ZM54.9344 46.7378V43.079H56.0027V46.7378H54.9344ZM58.4688 44.623C58.4688 44.4522 58.4371 44.3157 58.3737 44.2132C58.3151 44.1059 58.2005 44.0522 58.0297 44.0522H56.493V43.079H58.3224C58.5517 43.079 58.7566 43.1326 58.9371 43.24C59.1176 43.3473 59.2615 43.4936 59.3689 43.679C59.4762 43.8644 59.5323 44.0717 59.5372 44.301V46.7378H58.4688V44.623ZM63.4188 43.0863C63.6042 43.0863 63.7847 43.1278 63.9603 43.2107C64.1408 43.2936 64.2872 43.4156 64.3994 43.5766C64.5165 43.7327 64.5775 43.9132 64.5823 44.1181V45.5157C64.5775 45.745 64.5214 45.9524 64.414 46.1377C64.3067 46.3231 64.1628 46.4695 63.9823 46.5768C63.8018 46.6841 63.5969 46.7378 63.3676 46.7378H61.1943C60.965 46.7378 60.7601 46.6841 60.5796 46.5768C60.3991 46.4695 60.2552 46.3231 60.1479 46.1377C60.0405 45.9524 59.9844 45.745 59.9795 45.5157V44.5498H61.0479V44.6742V45.1938C61.0479 45.3596 61.0772 45.4962 61.1357 45.6036C61.1992 45.7109 61.3162 45.7645 61.487 45.7645H63.0749C63.2457 45.7645 63.3603 45.7109 63.4188 45.6036C63.4823 45.4962 63.514 45.3596 63.514 45.1938V44.6742C63.5188 44.484 63.492 44.3352 63.4335 44.2278C63.3749 44.1156 63.2652 44.0595 63.1042 44.0595H59.9795C59.9942 43.8644 60.06 43.6937 60.1771 43.5473C60.2942 43.3961 60.4406 43.2814 60.6162 43.2034C60.7918 43.1253 60.9674 43.0863 61.1431 43.0863H63.4188ZM65.0247 46.7378V41.2496H66.0931V46.7378H65.0247ZM69.9718 43.0863C70.1572 43.0863 70.3377 43.1278 70.5133 43.2107C70.6938 43.2936 70.8402 43.4156 70.9524 43.5766C71.0695 43.7327 71.1305 43.9132 71.1353 44.1181V45.5157C71.1305 45.745 71.0744 45.9524 70.967 46.1377C70.8597 46.3231 70.7158 46.4695 70.5353 46.5768C70.3548 46.6841 70.1499 46.7378 69.9206 46.7378H67.7473C67.518 46.7378 67.3131 46.6841 67.1326 46.5768C66.9521 46.4695 66.8082 46.3231 66.7009 46.1377C66.5935 45.9524 66.5374 45.745 66.5325 45.5157V44.5498H67.6009V44.6742V45.1938C67.6009 45.3596 67.6302 45.4962 67.6887 45.6036C67.7522 45.7109 67.8692 45.7645 68.04 45.7645H69.6279C69.7987 45.7645 69.9133 45.7109 69.9718 45.6036C70.0353 45.4962 70.067 45.3596 70.067 45.1938V44.6742C70.0718 44.484 70.045 44.3352 69.9865 44.2278C69.9279 44.1156 69.8182 44.0595 69.6572 44.0595H66.5325C66.5472 43.8644 66.613 43.6937 66.7301 43.5473C66.8472 43.3961 66.9936 43.2814 67.1692 43.2034C67.3448 43.1253 67.5204 43.0863 67.6961 43.0863H69.9718ZM76.1805 43.079V46.9793C76.1805 47.2086 76.1269 47.4159 76.0195 47.6013C75.9171 47.7867 75.7732 47.933 75.5878 48.0403C75.4024 48.1477 75.1951 48.2013 74.9658 48.2013H73.0852V47.2281H74.6731C74.8438 47.2281 74.9585 47.1744 75.017 47.0671C75.0804 46.9646 75.1121 46.828 75.1121 46.6573V44.0522H73.0559C72.7729 44.0522 72.6363 44.2327 72.6461 44.5937V45.1938C72.6461 45.3596 72.6754 45.4962 72.7339 45.6036C72.7973 45.7109 72.9144 45.7645 73.0852 45.7645H74.6219V46.7378H72.7925C72.5632 46.7378 72.3583 46.6841 72.1778 46.5768C71.9973 46.4695 71.8534 46.3231 71.746 46.1377C71.6387 45.9524 71.5826 45.745 71.5777 45.5157V44.1108C71.5826 43.9059 71.6411 43.7254 71.7533 43.5693C71.8704 43.4083 72.0168 43.2863 72.1924 43.2034C72.3729 43.1204 72.5558 43.079 72.7412 43.079H76.1805ZM80.0915 43.079H81.2257L78.2401 48.2013H77.1059L78.3572 46.0573L76.6229 43.079H77.7864L78.9353 45.0547L80.0915 43.079ZM88.0871 44.5791H87.8163V44.6376V45.5157C87.8163 45.745 87.7627 45.9524 87.6553 46.1377C87.5529 46.3231 87.409 46.4695 87.2236 46.5768C87.0382 46.6841 86.8309 46.7378 86.6016 46.7378H84.3478C84.1185 46.7378 83.9111 46.6841 83.7258 46.5768C83.5404 46.4695 83.394 46.3231 83.2867 46.1377C83.1843 45.9524 83.133 45.745 83.133 45.5157V44.6376C83.133 44.4376 83.1867 44.262 83.294 44.1108C83.4062 43.9546 83.5501 43.8327 83.7258 43.7449C83.6184 43.5985 83.5648 43.4351 83.5648 43.2546V42.8375C83.5648 42.6082 83.616 42.4009 83.7184 42.2155C83.8258 42.0301 83.9721 41.8838 84.1575 41.7764C84.3429 41.6691 84.5502 41.6154 84.7795 41.6154H85.9942V41.4618H86.9675V42.7936H85.9942V42.5887H84.9771C84.8307 42.5887 84.7356 42.6277 84.6917 42.7058C84.6527 42.7789 84.6331 42.8863 84.6331 43.0277C84.6331 43.1936 84.6405 43.3156 84.6551 43.3936C84.6697 43.4668 84.7063 43.5205 84.7649 43.5546C84.8234 43.5888 84.9161 43.6058 85.0429 43.6058H85.2112V44.5791H84.6112C84.4551 44.5791 84.3478 44.6328 84.2892 44.7401C84.2307 44.8474 84.2014 44.9986 84.2014 45.1938C84.2014 45.3596 84.2307 45.4962 84.2892 45.6036C84.3526 45.7109 84.4697 45.7645 84.6405 45.7645H86.3089C86.4796 45.7645 86.5943 45.7109 86.6528 45.6036C86.7162 45.4962 86.7479 45.3596 86.7479 45.1938C86.7479 44.9986 86.7187 44.8474 86.6601 44.7401C86.6016 44.6328 86.4943 44.5791 86.3382 44.5791H85.9357V43.6058H88.0871V44.5791ZM91.1568 46.7378C90.9714 46.7378 90.7909 46.6963 90.6153 46.6134C90.4397 46.5305 90.2933 46.4109 90.1763 46.2548C90.0592 46.0938 89.9982 45.9109 89.9933 45.706V45.1865V42.6472C89.9982 42.4423 90.0592 42.2618 90.1763 42.1057C90.2933 41.9447 90.4397 41.8228 90.6153 41.7398C90.7909 41.6569 90.9714 41.6154 91.1568 41.6154H94.7717C95.0547 41.6154 95.2962 41.6886 95.4962 41.835C95.6962 41.9813 95.7962 42.2301 95.7962 42.5814V43.379H94.7717V43.0277C94.7669 42.8912 94.7498 42.7936 94.7205 42.735C94.6912 42.6716 94.6522 42.6326 94.6034 42.618C94.5595 42.5984 94.4888 42.5887 94.3912 42.5887H91.4056C91.2983 42.5984 91.2178 42.6302 91.1641 42.6838C91.1105 42.7375 91.0788 42.8399 91.069 42.9912C91.069 43.9815 91.0666 44.7254 91.0617 45.223C91.0617 45.4474 91.0934 45.5938 91.1568 45.6621C91.2202 45.7304 91.3203 45.7645 91.4568 45.7645H94.3912C94.4888 45.7645 94.5595 45.7572 94.6034 45.7426C94.6522 45.7231 94.6912 45.6841 94.7205 45.6255C94.7498 45.5621 94.7669 45.4621 94.7717 45.3255V44.8791H95.7962V45.7719C95.7962 46.1231 95.6962 46.3719 95.4962 46.5183C95.2962 46.6646 95.0547 46.7378 94.7717 46.7378H91.1568ZM99.6712 43.0863C99.8566 43.0863 100.037 43.1278 100.213 43.2107C100.393 43.2936 100.54 43.4156 100.652 43.5766C100.769 43.7327 100.83 43.9132 100.835 44.1181V45.5157C100.83 45.745 100.774 45.9524 100.666 46.1377C100.559 46.3231 100.415 46.4695 100.235 46.5768C100.054 46.6841 99.8492 46.7378 99.62 46.7378H97.4466C97.2173 46.7378 97.0124 46.6841 96.8319 46.5768C96.6514 46.4695 96.5075 46.3231 96.4002 46.1377C96.2929 45.9524 96.2368 45.745 96.2319 45.5157V44.5498H97.3003V44.6742V45.1938C97.3003 45.3596 97.3295 45.4962 97.3881 45.6036C97.4515 45.7109 97.5686 45.7645 97.7393 45.7645H99.3273C99.498 45.7645 99.6126 45.7109 99.6712 45.6036C99.7346 45.4962 99.7663 45.3596 99.7663 45.1938V44.6742C99.7712 44.484 99.7444 44.3352 99.6858 44.2278C99.6273 44.1156 99.5175 44.0595 99.3565 44.0595H96.2319C96.2465 43.8644 96.3124 43.6937 96.4295 43.5473C96.5465 43.3961 96.6929 43.2814 96.8685 43.2034C97.0441 43.1253 97.2198 43.0863 97.3954 43.0863H99.6712ZM101.277 46.7378V43.079H102.345V46.7378H101.277ZM104.811 44.623C104.811 44.4522 104.78 44.3157 104.716 44.2132C104.658 44.1059 104.543 44.0522 104.372 44.0522H102.836V43.079H104.665C104.894 43.079 105.099 43.1326 105.28 43.24C105.46 43.3473 105.604 43.4936 105.712 43.679C105.819 43.8644 105.875 44.0717 105.88 44.301V46.7378H104.811V44.623ZM109.696 44.462C109.959 44.462 110.184 44.5157 110.369 44.623C110.559 44.7303 110.701 44.8718 110.793 45.0474C110.891 45.223 110.94 45.4084 110.94 45.6036C110.94 45.7987 110.893 45.9841 110.801 46.1597C110.708 46.3304 110.569 46.4695 110.384 46.5768C110.198 46.6841 109.974 46.7378 109.71 46.7378H106.337V45.7645H109.418C109.554 45.7645 109.659 45.745 109.732 45.706C109.805 45.6621 109.842 45.6109 109.842 45.5523C109.842 45.4938 109.803 45.4426 109.725 45.3987C109.647 45.3548 109.54 45.3328 109.403 45.3328H107.552C107.288 45.3328 107.064 45.2791 106.878 45.1718C106.693 45.0645 106.554 44.9255 106.461 44.7547C106.369 44.584 106.322 44.401 106.322 44.2059C106.322 44.0108 106.369 43.8254 106.461 43.6497C106.559 43.4741 106.7 43.3326 106.886 43.2253C107.076 43.118 107.303 43.0643 107.566 43.0643H110.669V44.0376H107.859C107.722 44.0376 107.615 44.0595 107.537 44.1034C107.459 44.1473 107.42 44.1986 107.42 44.2571C107.42 44.3108 107.456 44.3596 107.53 44.4035C107.603 44.4425 107.708 44.462 107.844 44.462H109.696ZM115.984 43.079V45.5157C115.98 45.745 115.924 45.9524 115.816 46.1377C115.709 46.3231 115.565 46.4695 115.384 46.5768C115.204 46.6841 114.999 46.7378 114.77 46.7378H112.596C112.367 46.7378 112.162 46.6841 111.982 46.5768C111.801 46.4695 111.657 46.3231 111.55 46.1377C111.443 45.9524 111.387 45.745 111.382 45.5157V43.079H112.45V45.1938C112.45 45.3596 112.479 45.4962 112.538 45.6036C112.601 45.7109 112.718 45.7645 112.889 45.7645H114.477C114.648 45.7645 114.762 45.7109 114.821 45.6036C114.884 45.4962 114.916 45.3596 114.916 45.1938V43.079H115.984ZM116.427 46.7378V41.2496H117.495V46.7378H116.427ZM119.691 45.7645V46.7378H119.149C118.92 46.7378 118.713 46.6841 118.527 46.5768C118.342 46.4695 118.196 46.3231 118.088 46.1377C117.986 45.9524 117.935 45.745 117.935 45.5157V41.2496H119.003V42.6838H119.508V43.7522H119.003V45.1938C119.003 45.3596 119.032 45.4962 119.091 45.6036C119.154 45.7109 119.271 45.7645 119.442 45.7645H119.691ZM124.731 43.079V46.7378H123.663V44.0522H121.607C121.324 44.0522 121.187 44.2327 121.197 44.5937V45.1938C121.197 45.3596 121.226 45.4962 121.285 45.6036C121.348 45.7109 121.465 45.7645 121.636 45.7645H123.173V46.7378H121.343C121.114 46.7378 120.909 46.6841 120.729 46.5768C120.548 46.4695 120.404 46.3231 120.297 46.1377C120.19 45.9524 120.133 45.745 120.129 45.5157V44.1108C120.133 43.9059 120.192 43.7254 120.304 43.5693C120.421 43.4083 120.568 43.2863 120.743 43.2034C120.924 43.1204 121.107 43.079 121.292 43.079H124.731ZM125.174 46.7378V43.079H126.242V46.7378H125.174ZM128.708 44.623C128.708 44.4522 128.676 44.3157 128.613 44.2132C128.554 44.1059 128.44 44.0522 128.269 44.0522H126.732V43.079H128.562C128.791 43.079 128.996 43.1326 129.176 43.24C129.357 43.3473 129.501 43.4936 129.608 43.679C129.716 43.8644 129.772 44.0717 129.777 44.301V46.7378H128.708V44.623ZM131.975 45.7645V46.7378H131.434C131.204 46.7378 130.997 46.6841 130.812 46.5768C130.626 46.4695 130.48 46.3231 130.373 46.1377C130.27 45.9524 130.219 45.745 130.219 45.5157V41.2496H131.287V42.6838H131.792V43.7522H131.287V45.1938C131.287 45.3596 131.317 45.4962 131.375 45.6036C131.439 45.7109 131.556 45.7645 131.726 45.7645H131.975Z" fill="#171717"/>
<path d="M9.45495 11.7143V15.3426L30.3311 15.29C31.3127 15.29 32.0313 15.0622 32.4871 14.6064C32.9428 14.1156 33.1707 13.1165 33.1707 11.6091C33.1707 10.4172 33.0655 9.55829 32.8551 9.03244C32.6448 8.47154 32.3468 8.12098 31.9612 7.98075C31.5756 7.84052 31.0147 7.77041 30.2785 7.77041H1.725V0.776644H33.4862C35.5545 0.776644 37.2898 1.30249 38.692 2.35419C40.1294 3.40588 40.848 5.19376 40.848 7.71783V14.8168C40.848 15.9035 40.6377 16.7449 40.217 17.3408C42.3905 18.3224 43.4773 19.9701 43.4773 22.2838V31.5913C43.3721 35.5877 41.0584 37.5859 36.5361 37.5859H1.725V11.7143H9.45495ZM32.9603 30.5922C33.977 30.5922 34.7131 30.3468 35.1689 29.856C35.6246 29.3652 35.8525 28.3135 35.8525 26.7009C35.8525 25.0182 35.6071 23.8789 35.1163 23.2829C34.6606 22.6519 33.9244 22.3364 32.9077 22.3364H9.45495V30.5922H32.9603ZM46.6069 0.776644H88.3065V8.5066H46.6069V0.776644ZM63.6443 12.4504H71.3217V37.5859H63.6443V12.4504ZM99.7984 37.5859C98.4662 37.5859 97.1691 37.288 95.9071 36.692C94.6451 36.096 93.5934 35.2372 92.752 34.1153C91.9107 32.9585 91.4724 31.6439 91.4374 30.1715V26.438V8.19109C91.4724 6.71872 91.9107 5.42163 92.752 4.29982C93.5934 3.14296 94.6451 2.26655 95.9071 1.67058C97.1691 1.07462 98.4662 0.776644 99.7984 0.776644H125.775C127.808 0.776644 129.544 1.30249 130.981 2.35419C132.418 3.40588 133.137 5.19376 133.137 7.71783V13.4496H125.775V10.9255C125.74 9.94391 125.617 9.24278 125.407 8.8221C125.197 8.36637 124.916 8.08592 124.566 7.98075C124.25 7.84052 123.742 7.77041 123.041 7.77041H101.586C100.815 7.84052 100.237 8.06839 99.8509 8.45401C99.4653 8.83963 99.2375 9.57582 99.1673 10.6626C99.1673 17.779 99.1498 23.1251 99.1148 26.7009C99.1148 28.3135 99.3426 29.3652 99.7984 29.856C100.254 30.3468 100.973 30.5922 101.954 30.5922H123.041C123.742 30.5922 124.25 30.5396 124.566 30.4344C124.916 30.2942 125.197 30.0137 125.407 29.5931C125.617 29.1373 125.74 28.4187 125.775 27.4371V24.2294H133.137V30.6448C133.137 33.1688 132.418 34.9567 130.981 36.0084C129.544 37.0601 127.808 37.5859 125.775 37.5859H99.7984Z" fill="#5AA469"/>
<path d="M24.5637 53.3666L25.7771 51.0811H26.7747L25.0252 54.2227V56.4263H24.0723V54.2227L22.3154 51.0811H23.3502L24.5637 53.3666ZM30.896 54.4758C30.896 55.6893 30.1144 56.5082 29.0126 56.5082C27.9108 56.5082 27.1291 55.6893 27.1291 54.4758C27.1291 53.2624 27.9108 52.4435 29.0126 52.4435C30.1144 52.4435 30.896 53.2624 30.896 54.4758ZM28.0299 54.4758C28.0299 55.2724 28.4096 55.7563 29.0126 55.7563C29.6156 55.7563 29.9953 55.2724 29.9953 54.4758C29.9953 53.6792 29.6156 53.1954 29.0126 53.1954C28.4096 53.1954 28.0299 53.6792 28.0299 54.4758ZM35.0993 52.5179V56.4263H34.2059V56.0094C33.9826 56.2699 33.6476 56.5082 33.1414 56.5082C32.3225 56.5082 31.8163 55.9498 31.8163 55.1086V52.5179H32.7096V54.915C32.7096 55.3915 32.918 55.6967 33.4019 55.6967C33.8039 55.6967 34.2059 55.3989 34.2059 54.8406V52.5179H35.0993ZM36.1163 56.4263V55.6669H37.1511V53.2772H36.1163V52.5179H38.0295V53.1507C38.2752 52.704 38.8037 52.4435 39.3472 52.4435C39.6226 52.4435 39.8162 52.4881 39.9576 52.5477V53.4261C39.7566 53.3591 39.5705 53.3145 39.2579 53.3145C38.6549 53.3145 38.0295 53.7016 38.0295 54.3641V55.6669H39.4291V56.4263H36.1163ZM44.6419 55.3989L45.3789 54.781C45.7511 55.3617 46.3094 55.7042 46.9199 55.7042C47.5229 55.7042 47.977 55.4213 47.977 54.9076C47.977 54.3641 47.4187 54.2822 46.6221 54.0887C45.8181 53.8951 44.9545 53.6644 44.9545 52.6221C44.9545 51.632 45.8032 50.9992 46.8827 50.9992C47.7984 50.9992 48.513 51.4161 48.8704 51.9744L48.178 52.57C47.8802 52.1085 47.4782 51.7958 46.8529 51.7958C46.2797 51.7958 45.8777 52.0861 45.8777 52.5253C45.8777 52.9943 46.2946 53.0986 47.0167 53.2624C47.8802 53.4559 48.915 53.6495 48.915 54.8108C48.915 55.8605 47.9919 56.5082 46.8901 56.5082C45.9744 56.5082 45.0588 56.0838 44.6419 55.3989ZM50.803 56.4933C50.0288 56.4933 49.4407 56.0392 49.4407 55.3394C49.4407 54.5949 50.0139 54.2599 50.7956 54.111L51.9495 53.8877V53.8207C51.9495 53.4485 51.7261 53.2102 51.2274 53.2102C50.7881 53.2102 50.5127 53.4187 50.401 53.7984L49.5672 53.5974C49.7682 52.9497 50.3638 52.4435 51.2646 52.4435C52.2324 52.4435 52.8205 52.8901 52.8205 53.7909V55.4734C52.8205 55.6967 52.9247 55.7637 53.1778 55.7339V56.4263C52.5078 56.5007 52.1579 56.3742 52.0165 56.054C51.7559 56.3369 51.3316 56.4933 50.803 56.4933ZM51.9495 55.049V54.5651L51.0264 54.7438C50.6392 54.8183 50.334 54.9523 50.334 55.3021C50.334 55.6074 50.5722 55.7786 50.9296 55.7786C51.4284 55.7786 51.9495 55.5255 51.9495 55.049ZM57.3811 56.4263H53.9417V55.6669H55.0733V53.2772H53.9417V52.5179H55.0733C55.0733 51.4459 55.8177 50.9992 56.7632 50.9992C57.1131 50.9992 57.4406 51.0439 57.6789 51.096V51.8702C57.4108 51.833 57.1652 51.7883 56.793 51.7883C56.2346 51.7883 55.9666 52.0117 55.9666 52.5179H57.6789V53.2772H55.9666V55.6669H57.3811V56.4263ZM60.356 56.5082C59.1946 56.5082 58.3757 55.6818 58.3757 54.4758C58.3757 53.3294 59.1872 52.4435 60.3187 52.4435C61.5024 52.4435 62.1278 53.2996 62.1278 54.3716V54.6694H59.2467C59.3212 55.3394 59.753 55.7488 60.3634 55.7488C60.8473 55.7488 61.2195 55.5255 61.3535 55.1235L62.1054 55.4138C61.8225 56.0987 61.1749 56.5082 60.356 56.5082ZM60.3187 53.1954C59.8125 53.1954 59.4328 53.4708 59.2988 53.9994H61.227C61.2195 53.5676 60.9292 53.1954 60.3187 53.1954ZM71.0851 55.5925V56.4263H67.2884V55.5925H68.7103V51.9149H67.2884V51.0811H71.0851V51.9149H69.6632V55.5925H71.0851ZM72.0277 56.4263V52.5179H72.921V52.9348C73.1444 52.6742 73.4943 52.4435 74.0005 52.4435C74.8194 52.4435 75.3107 53.0092 75.3107 53.8505V56.4263H74.4174V54.111C74.4174 53.6271 74.2238 53.2772 73.7325 53.2772C73.3305 53.2772 72.921 53.575 72.921 54.1334V56.4263H72.0277ZM76.4915 56.4263V52.5179H77.3848V52.9348C77.6082 52.6742 77.9581 52.4435 78.4643 52.4435C79.2832 52.4435 79.7745 53.0092 79.7745 53.8505V56.4263H78.8812V54.111C78.8812 53.6271 78.6876 53.2772 78.1963 53.2772C77.7943 53.2772 77.3848 53.575 77.3848 54.1334V56.4263H76.4915ZM84.4617 54.4758C84.4617 55.6893 83.68 56.5082 82.5782 56.5082C81.4764 56.5082 80.6947 55.6893 80.6947 54.4758C80.6947 53.2624 81.4764 52.4435 82.5782 52.4435C83.68 52.4435 84.4617 53.2624 84.4617 54.4758ZM81.5955 54.4758C81.5955 55.2724 81.9752 55.7563 82.5782 55.7563C83.1812 55.7563 83.5609 55.2724 83.5609 54.4758C83.5609 53.6792 83.1812 53.1954 82.5782 53.1954C81.9752 53.1954 81.5955 53.6792 81.5955 54.4758ZM87.4887 56.4263H86.5879L85.0096 52.5179H85.9477L87.0494 55.3766L88.1438 52.5179H89.0669L87.4887 56.4263ZM90.9772 56.4933C90.203 56.4933 89.6149 56.0392 89.6149 55.3394C89.6149 54.5949 90.1881 54.2599 90.9698 54.111L92.1237 53.8877V53.8207C92.1237 53.4485 91.9004 53.2102 91.4016 53.2102C90.9623 53.2102 90.6869 53.4187 90.5752 53.7984L89.7414 53.5974C89.9424 52.9497 90.538 52.4435 91.4388 52.4435C92.4066 52.4435 92.9947 52.8901 92.9947 53.7909V55.4734C92.9947 55.6967 93.0989 55.7637 93.352 55.7339V56.4263C92.682 56.5007 92.3321 56.3742 92.1907 56.054C91.9301 56.3369 91.5058 56.4933 90.9772 56.4933ZM92.1237 55.049V54.5651L91.2006 54.7438C90.8135 54.8183 90.5082 54.9523 90.5082 55.3021C90.5082 55.6074 90.7465 55.7786 91.1038 55.7786C91.6026 55.7786 92.1237 55.5255 92.1237 55.049ZM95.039 55.0863V53.2772H93.9819V52.5179H95.039V51.3714H95.9175V52.5179H97.7116V53.2772H95.9175V55.0044C95.9175 55.5106 96.1929 55.6744 96.7885 55.6744C97.116 55.6744 97.4213 55.6223 97.6967 55.5478V56.3444C97.4362 56.4188 97.0193 56.4784 96.6247 56.4784C95.7909 56.4784 95.039 56.1359 95.039 55.0863ZM100.098 51.9968V51.0811H101.022V51.9968H100.098ZM98.7882 56.4263V55.6669H100.113V53.2772H98.7882V52.5179H101.007V55.6669H102.332V56.4263H98.7882ZM106.781 54.4758C106.781 55.6893 105.999 56.5082 104.897 56.5082C103.795 56.5082 103.014 55.6893 103.014 54.4758C103.014 53.2624 103.795 52.4435 104.897 52.4435C105.999 52.4435 106.781 53.2624 106.781 54.4758ZM103.915 54.4758C103.915 55.2724 104.294 55.7563 104.897 55.7563C105.5 55.7563 105.88 55.2724 105.88 54.4758C105.88 53.6792 105.5 53.1954 104.897 53.1954C104.294 53.1954 103.915 53.6792 103.915 54.4758ZM107.738 56.4263V52.5179H108.631V52.9348C108.855 52.6742 109.205 52.4435 109.711 52.4435C110.53 52.4435 111.021 53.0092 111.021 53.8505V56.4263H110.128V54.111C110.128 53.6271 109.934 53.2772 109.443 53.2772C109.041 53.2772 108.631 53.575 108.631 54.1334V56.4263H107.738Z" fill="#5AA469"/>
<path d="M1.7334 54.2727L20.5636 54.2727" stroke="#5AA469" stroke-width="0.875825" stroke-linecap="round"/>
<path d="M113.401 54.2727L132.232 54.2727" stroke="#5AA469" stroke-width="0.875825" stroke-linecap="round"/>
</svg>
