<svg width="44" height="44" viewBox="0 0 44 44" fill="none" xmlns="http://www.w3.org/2000/svg">
<rect width="44" height="44" rx="6" fill="#F4FFF2"/>
<path d="M25.1663 15.8333C25.1663 17.122 22.2935 18.1667 18.7497 18.1667C15.2058 18.1667 12.333 17.122 12.333 15.8333M25.1663 15.8333C25.1663 14.5447 22.2935 13.5 18.7497 13.5C15.2058 13.5 12.333 14.5447 12.333 15.8333M25.1663 15.8333V17.5833M12.333 15.8333V29.8333C12.333 31.122 15.2058 32.1667 18.7497 32.1667M18.7497 22.8333C18.553 22.8333 18.3585 22.8301 18.1663 22.8238C14.8959 22.7167 12.333 21.7172 12.333 20.5M18.7497 27.5C15.2058 27.5 12.333 26.4553 12.333 25.1667M35.6663 23.4167C35.6663 24.7053 32.7935 25.75 29.2497 25.75C25.7058 25.75 22.833 24.7053 22.833 23.4167M35.6663 23.4167C35.6663 22.128 32.7935 21.0833 29.2497 21.0833C25.7058 21.0833 22.833 22.128 22.833 23.4167M35.6663 23.4167V32.1667C35.6663 33.4553 32.7935 34.5 29.2497 34.5C25.7058 34.5 22.833 33.4553 22.833 32.1667V23.4167M35.6663 27.7917C35.6663 29.0803 32.7935 30.125 29.2497 30.125C25.7058 30.125 22.833 29.0803 22.833 27.7917" stroke="#5AA469" stroke-width="2" stroke-linecap="round" stroke-linejoin="round"/>
</svg>
