<svg width="30" height="30" viewBox="0 0 30 30" fill="none" xmlns="http://www.w3.org/2000/svg">
<path d="M2.5 6.24989H6.93125C7.0835 7.11901 7.53735 7.9066 8.21295 8.47414C8.88856 9.04168 9.74265 9.35282 10.625 9.35282C11.5074 9.35282 12.3614 9.04168 13.037 8.47414C13.7127 7.9066 14.1665 7.11901 14.3188 6.24989H27.5C27.6658 6.24989 27.8247 6.18405 27.9419 6.06684C28.0592 5.94963 28.125 5.79065 28.125 5.62489C28.125 5.45913 28.0592 5.30016 27.9419 5.18295C27.8247 5.06574 27.6658 4.99989 27.5 4.99989H14.3188C14.1665 4.13078 13.7127 3.34318 13.037 2.77564C12.3614 2.20811 11.5074 1.89697 10.625 1.89697C9.74265 1.89697 8.88856 2.20811 8.21295 2.77564C7.53735 3.34318 7.0835 4.13078 6.93125 4.99989H2.5C2.33424 4.99989 2.17527 5.06574 2.05806 5.18295C1.94085 5.30016 1.875 5.45913 1.875 5.62489C1.875 5.79065 1.94085 5.94963 2.05806 6.06684C2.17527 6.18405 2.33424 6.24989 2.5 6.24989ZM10.625 3.12489C11.1195 3.12489 11.6028 3.27152 12.0139 3.54622C12.425 3.82092 12.7455 4.21137 12.9347 4.66819C13.1239 5.125 13.1734 5.62767 13.077 6.11262C12.9805 6.59757 12.7424 7.04303 12.3928 7.39266C12.0431 7.74229 11.5977 7.98039 11.1127 8.07686C10.6278 8.17332 10.1251 8.12381 9.66829 7.93459C9.21148 7.74537 8.82103 7.42494 8.54633 7.01382C8.27162 6.6027 8.125 6.11935 8.125 5.62489C8.125 4.96185 8.38839 4.32597 8.85723 3.85713C9.32607 3.38829 9.96196 3.12489 10.625 3.12489ZM27.5 14.3749H23.0688C22.9165 13.5058 22.4627 12.7182 21.787 12.1506C21.1114 11.5831 20.2574 11.272 19.375 11.272C18.4926 11.272 17.6386 11.5831 16.963 12.1506C16.2873 12.7182 15.8335 13.5058 15.6812 14.3749H2.5C2.33424 14.3749 2.17527 14.4407 2.05806 14.558C1.94085 14.6752 1.875 14.8341 1.875 14.9999C1.875 15.1657 1.94085 15.3246 2.05806 15.4418C2.17527 15.559 2.33424 15.6249 2.5 15.6249H15.6812C15.8335 16.494 16.2873 17.2816 16.963 17.8491C17.6386 18.4167 18.4926 18.7278 19.375 18.7278C20.2574 18.7278 21.1114 18.4167 21.787 17.8491C22.4627 17.2816 22.9165 16.494 23.0688 15.6249H27.5C27.6658 15.6249 27.8247 15.559 27.9419 15.4418C28.0592 15.3246 28.125 15.1657 28.125 14.9999C28.125 14.8341 28.0592 14.6752 27.9419 14.558C27.8247 14.4407 27.6658 14.3749 27.5 14.3749ZM19.375 17.4999C18.8805 17.4999 18.3972 17.3533 17.9861 17.0786C17.575 16.8039 17.2545 16.4134 17.0653 15.9566C16.8761 15.4998 16.8266 14.9971 16.923 14.5122C17.0195 14.0272 17.2576 13.5818 17.6072 13.2321C17.9569 12.8825 18.4023 12.6444 18.8873 12.5479C19.3722 12.4515 19.8749 12.501 20.3317 12.6902C20.7885 12.8794 21.179 13.1998 21.4537 13.611C21.7284 14.0221 21.875 14.5054 21.875 14.9999C21.875 15.6629 21.6116 16.2988 21.1428 16.7677C20.6739 17.2365 20.038 17.4999 19.375 17.4999ZM27.5 23.7499H14.3188C14.1665 22.8808 13.7127 22.0932 13.037 21.5256C12.3614 20.9581 11.5074 20.647 10.625 20.647C9.74265 20.647 8.88856 20.9581 8.21295 21.5256C7.53735 22.0932 7.0835 22.8808 6.93125 23.7499H2.5C2.33424 23.7499 2.17527 23.8157 2.05806 23.933C1.94085 24.0502 1.875 24.2091 1.875 24.3749C1.875 24.5407 1.94085 24.6996 2.05806 24.8168C2.17527 24.934 2.33424 24.9999 2.5 24.9999H6.93125C7.0835 25.869 7.53735 26.6566 8.21295 27.2241C8.88856 27.7917 9.74265 28.1028 10.625 28.1028C11.5074 28.1028 12.3614 27.7917 13.037 27.2241C13.7127 26.6566 14.1665 25.869 14.3188 24.9999H27.5C27.6658 24.9999 27.8247 24.934 27.9419 24.8168C28.0592 24.6996 28.125 24.5407 28.125 24.3749C28.125 24.2091 28.0592 24.0502 27.9419 23.933C27.8247 23.8157 27.6658 23.7499 27.5 23.7499ZM10.625 26.8749C10.1305 26.8749 9.6472 26.7283 9.23607 26.4536C8.82495 26.1789 8.50452 25.7884 8.3153 25.3316C8.12608 24.8748 8.07657 24.3721 8.17304 23.8872C8.2695 23.4022 8.5076 22.9568 8.85723 22.6071C9.20686 22.2575 9.65232 22.0194 10.1373 21.9229C10.6222 21.8265 11.1249 21.876 11.5817 22.0652C12.0385 22.2544 12.429 22.5748 12.7037 22.986C12.9784 23.3971 13.125 23.8804 13.125 24.3749C13.125 25.0379 12.8616 25.6738 12.3928 26.1427C11.9239 26.6115 11.288 26.8749 10.625 26.8749Z" fill="black"/>
</svg>
