<svg width="52" height="52" viewBox="0 0 52 52" fill="none" xmlns="http://www.w3.org/2000/svg">
<path d="M17.2051 35.1804V14.0459H21.5219V20.4919C22.8582 19.707 23.9075 19.291 26.2534 19.291C28.2403 19.291 29.884 20.2017 31.1847 21.5569C32.4854 22.9024 33.1357 24.839 33.1357 27.3667C33.1357 29.9809 32.47 31.9944 31.1386 33.4072C29.8175 34.82 28.2096 35.2932 26.3149 35.2932C25.3829 35.2932 24.4612 35.3101 23.5497 34.8777C22.6484 34.4355 21.8701 33.7868 21.2146 32.9314V35.1804H17.2051ZM21.4911 27.1937C21.4911 28.7795 21.7574 29.952 22.29 30.7113C23.0376 31.7877 24.031 32.3259 25.2702 32.3259C26.2227 32.3259 27.0318 31.9463 27.6975 31.187C28.3734 30.4182 28.7114 29.212 28.7114 27.5685C28.7114 25.8193 28.3734 24.5603 27.6975 23.7914C27.0215 23.0129 26.1561 22.6237 25.1013 22.6237C24.0669 22.6237 23.2066 23.0033 22.5204 23.7626C21.8342 24.5122 21.4911 25.6559 21.4911 27.1937Z" fill="url(#paint0_linear_2019_72)"/>
<path d="M10.7068 24.5181L6.59549 23.8513C7.05767 22.3632 7.85306 21.2616 8.98165 20.5465C10.1102 19.8314 11.787 19.4739 14.0119 19.4739C16.0327 19.4739 17.5374 19.6913 18.5263 20.1261C19.5152 20.5513 20.2084 21.0973 20.6061 21.7641C21.0146 22.4212 21.2188 23.6339 21.2188 25.4023L21.1704 30.1566C21.1704 31.5094 21.4735 32.2764 21.6132 32.9238C21.7637 33.5616 24.2679 34.4809 24.6656 35.2153L17.7202 35.0987C17.6019 34.8281 17.4568 34.5437 17.2849 34.0122C17.2096 33.7706 17.5056 34.1941 17.4734 34.1168C16.6995 34.7932 15.8719 34.8342 14.9905 35.1724C14.1091 35.5106 12.8189 35.5631 11.8193 35.5631C10.0565 35.5631 8.66457 35.1331 7.64347 34.2731C6.63311 33.4131 6.12793 32.326 6.12793 31.0118C6.12793 30.1421 6.35902 29.369 6.82121 28.6926C7.28339 28.0065 7.9283 27.4847 8.75594 27.1272C9.59432 26.7599 10.7981 26.4411 12.3674 26.1705C14.4849 25.813 15.952 25.4796 16.7689 25.1703V24.7645C16.7689 23.9818 16.554 23.4261 16.124 23.0976C15.6941 22.7594 14.8826 22.5903 13.6895 22.5903C12.8834 22.5903 12.2546 22.7352 11.8031 23.0251C11.3517 23.3053 10.9862 23.803 10.7068 24.5181ZM16.7689 27.8229C16.1885 27.9968 15.2695 28.2046 14.0119 28.4462C12.7544 28.6878 11.9321 28.9245 11.5452 29.1564C10.954 29.5333 10.6584 30.0116 10.6584 30.5914C10.6584 31.1615 10.8949 31.6544 11.3678 32.0699C11.8408 32.4854 12.4427 32.6932 13.1736 32.6932C13.9904 32.6932 14.7697 32.4516 15.5114 31.9684C16.0595 31.6012 16.4196 31.1519 16.5916 30.6204C16.7098 30.2725 16.7689 29.6106 16.7689 28.6346V27.8229Z" fill="url(#paint1_linear_2019_72)"/>
<path d="M45.5514 24.3731L41.2647 25.0979C41.1203 24.2958 40.7901 23.6919 40.2743 23.286C39.7688 22.8802 39.1085 22.6772 38.2934 22.6772C37.2102 22.6772 36.3435 23.0299 35.6936 23.7354C35.0539 24.4311 34.7341 25.6004 34.7341 27.2431C34.7341 29.0695 35.0591 30.3595 35.7091 31.1132C36.3693 31.867 37.2514 32.2438 38.3553 32.2438C39.1807 32.2438 39.8565 32.0264 40.3826 31.5916C40.9088 31.1471 41.2802 30.3885 41.4968 29.3159L45.768 29.9971C45.3244 31.8331 44.4733 33.2198 43.2146 34.1571C41.9559 35.0945 40.2691 35.5631 38.1542 35.5631C35.7503 35.5631 33.8314 34.8529 32.3973 33.4324C30.9736 32.0119 30.2617 30.0454 30.2617 27.533C30.2617 24.9916 30.9787 23.0154 32.4128 21.6046C33.8468 20.1841 35.7864 19.4739 38.2315 19.4739C40.233 19.4739 41.8218 19.8797 42.998 20.6914C44.1844 21.4935 45.0355 22.7207 45.5514 24.3731Z" fill="url(#paint2_linear_2019_72)"/>
<path fill-rule="evenodd" clip-rule="evenodd" d="M26 51.1034C39.8643 51.1034 51.1034 39.8643 51.1034 26C51.1034 12.1357 39.8643 0.896552 26 0.896552C12.1357 0.896552 0.896552 12.1357 0.896552 26C0.896552 39.8643 12.1357 51.1034 26 51.1034ZM26 52C40.3594 52 52 40.3594 52 26C52 11.6406 40.3594 0 26 0C11.6406 0 0 11.6406 0 26C0 40.3594 11.6406 52 26 52Z" fill="black"/>
<defs>
<linearGradient id="paint0_linear_2019_72" x1="25.1704" y1="14.0459" x2="25.1704" y2="35.2933" gradientUnits="userSpaceOnUse">
<stop stop-color="#4CB050"/>
<stop offset="1" stop-color="#337836"/>
</linearGradient>
<linearGradient id="paint1_linear_2019_72" x1="15.3967" y1="19.4739" x2="15.3967" y2="35.5631" gradientUnits="userSpaceOnUse">
<stop stop-color="#4CB050"/>
<stop offset="1" stop-color="#337836"/>
</linearGradient>
<linearGradient id="paint2_linear_2019_72" x1="38.0149" y1="19.4739" x2="38.0149" y2="35.5631" gradientUnits="userSpaceOnUse">
<stop stop-color="#4CB050"/>
<stop offset="1" stop-color="#337836"/>
</linearGradient>
</defs>
</svg>
